999
DXF file: 1151011_7_d.dxf
999
Pro/ENGINEER 2016130 by Parametric Technology Corporation
  0
SECTION
  2
HEADER
  9
$EXTMAX
 10
34.0
 20
22.0
 30
0.0
  9
$EXTMIN
 10
0.0
 20
0.0
 30
0.0
  9
$LIMMIN
 10
0.0
 20
0.0
  9
$LIMMAX
 10
34.0
 20
22.0
  9
$VIEWCTR
 10
17.0
 20
11.0
  9
$VIEWSIZE
 40
22.0
  9
$CLAYER
  8
0
  9
$LTSCALE
 40
1.87
  9
$CELTYPE
  6
BYLAYER
  9
$DIMSCALE
 40
1.0
  9
$DIMASZ
 40
0.1875
  9
$DIMEXO
 40
0.0625
  9
$DIMDLI
 40
1.292
  9
$DIMEXE
 40
0.125
  9
$DIMCEN
 40
0.306
  9
$DIMLFAC
 40
1.0
  9
$DIMBLK
  1
_FILLED
  9
$DIMALT
 70
0
  9
$DIMALTF
 40
25.4
  9
$DIMTXT
 40
0.15625
  9
$AUNITS
 70
0
  9
$PDMODE
 70
0
  9
$PDSIZE
 40
0.3125
  9
$TILEMODE
 70
1
  0
ENDSEC
  0
SECTION
  2
TABLES
  0
TABLE
  2
LTYPE
 70
6
  0
LTYPE
  2
BYBLOCK
 70
0
  3

 72
65
 73
0
 40
0.0
  0
LTYPE
  2
BYLAYER
 70
0
  3

 72
65
 73
0
 40
0.0
  0
LTYPE
  2
CONTINUOUS
 70
64
  3
Solid line
 72
65
 73
0
 40
0.0
  0
LTYPE
  2
CENTER
 70
64
  3
____ _ ____ _ ____ _ ____ _ ____ _ ____ _ ____
 72
65
 73
4
 40
0.6
 49
0.375
 49
-0.075
 49
0.075
 49
-0.075
  0
LTYPE
  2
HIDDEN
 70
64
  3
- - - - - - - - - - - - - - - - - - - -
 72
65
 73
2
 40
0.2
 49
0.1
 49
-0.1
  0
LTYPE
  2
PHANTOM
 70
64
  3
_____ _ _ _____ _ _ _____ _ _ _____
 72
65
 73
6
 40
0.8
 49
0.45
 49
-0.05
 49
0.1
 49
-0.05
 49
0.1
 49
-0.05
  0
LTYPE
  2
DOT
 70
64
  3
. . . . . . . . . . . . . . . . . . . .
 72
65
 73
2
 40
0.2
 49
0.1
 49
-0.1
  0
LTYPE
  2
DASHED
 70
64
  3
- - - - - - - - - - - - - - - - - - - -
 72
65
 73
2
 40
0.2
 49
0.1
 49
-0.1
  0
ENDTAB
  0
TABLE
  2
LAYER
 70
36
  0
LAYER
  2
0
 70
0
 62
7
  6
CONTINUOUS
  0
LAYER
  2
DEFAULT_1
 70
0
 62
7
  6
CENTER
  0
LAYER
  2
DEFAULT_2
 70
0
 62
8
  6
HIDDEN
  0
LAYER
  2
DEFAULT_3
 70
0
 62
7
  6
PHANTOM
  0
LAYER
  2
259
 70
0
 62
7
  6
CONTINUOUS
  0
LAYER
  2
781
 70
0
 62
7
  6
CONTINUOUS
  0
LAYER
  2
DATUMS
 70
0
 62
7
  6
CONTINUOUS
  0
LAYER
  2
DATUM_AXIS
 70
0
 62
7
  6
CONTINUOUS
  0
LAYER
  2
DATUM_CSYS
 70
0
 62
7
  6
CONTINUOUS
  0
LAYER
  2
DATUM_PLANE
 70
0
 62
7
  6
CONTINUOUS
  0
LAYER
  2
DATUM_POINT
 70
0
 62
7
  6
CONTINUOUS
  0
LAYER
  2
DEFPOINTS
 70
0
 62
7
  6
CONTINUOUS
  0
LAYER
  2
DRAFT_ENT
 70
0
 62
7
  6
CONTINUOUS
  0
LAYER
  2
IGES_FRZ
 70
0
 62
7
  6
CONTINUOUS
  0
LAYER
  2
IMPORT
 70
0
 62
7
  6
CONTINUOUS
  0
LAYER
  2
INTFCLR_3
 70
0
 62
7
  6
CONTINUOUS
  0
LAYER
  2
LAYER_1
 70
0
 62
7
  6
CONTINUOUS
  0
LAYER
  2
NOTE
 70
0
 62
7
  6
CONTINUOUS
  0
LAYER
  2
SYMBOL
 70
0
 62
7
  6
CONTINUOUS
  0
LAYER
  2
_CURVE
 70
0
 62
7
  6
CONTINUOUS
  0
LAYER
  2
_SURFACE
 70
0
 62
7
  6
CONTINUOUS
  0
LAYER
  2
__REF_CURVE
 70
0
 62
7
  6
CONTINUOUS
  0
LAYER
  2
__REF_SURFACE
 70
0
 62
7
  6
CONTINUOUS
  0
LAYER
  2
___NOTE
 70
0
 62
7
  6
CONTINUOUS
  0
LAYER
  2
___SYMBOL
 70
0
 62
7
  6
CONTINUOUS
  0
ENDTAB
  0
TABLE
  2
STYLE
 70
1
  0
STYLE
  2
STANDARD
 70
0
 40
0.0
 41
0.8
 50
0.0
 71
0
 42
0.2
  3
txt
  4

  0
STYLE
  2
TEXTSTYLE_1
 70
0
 40
0.0
 41
0.8
 50
0.0
 71
0
 42
0.2
  3
gdt
  4

  0
ENDTAB
  0
ENDSEC
  0
SECTION
  2
BLOCKS
  0
BLOCK
  8
___SYMBOL
 62
2
  6
CONTINUOUS
  2
SCISSORS_BL0
 70
64
 10
20.2727537211
 20
7.0558895473
  0
LINE
  8
___SYMBOL
 62
7
  6
CONTINUOUS
 10
20.2252977805
 20
6.9137323298
 11
20.0535412209
 21
6.4020681529
  0
LINE
  8
___SYMBOL
 62
7
  6
CONTINUOUS
 10
20.2794226014
 20
6.9150306433
 11
20.0535412209
 21
6.4020681529
  0
LINE
  8
___SYMBOL
 62
7
  6
CONTINUOUS
 10
20.2484505348
 20
7.0059291972
 11
20.2254537197
 21
6.9631019937
  0
LINE
  8
___SYMBOL
 62
7
  6
CONTINUOUS
 10
20.2115772513
 20
6.9703633728
 11
20.2347323082
 21
7.0134852716
  0
LINE
  8
___SYMBOL
 62
7
  6
CONTINUOUS
 10
20.1317403686
 20
6.8207729789
 11
19.7802139213
 21
6.5706144889
  0
LINE
  8
___SYMBOL
 62
7
  6
CONTINUOUS
 10
20.3495409572
 20
6.9799642689
 11
20.2932866747
 21
6.9446887957
  0
LINE
  8
___SYMBOL
 62
7
  6
CONTINUOUS
 10
20.1671631564
 20
7.010438629
 11
19.8831477054
 21
6.7489010327
  0
LINE
  8
___SYMBOL
 62
7
  6
CONTINUOUS
 10
20.1516700676
 20
6.9274833641
 11
20.2252977805
 21
6.9137323298
  0
LINE
  8
___SYMBOL
 62
7
  6
CONTINUOUS
 10
20.1801469577
 20
7.0799583162
 11
20.2936009164
 21
7.1669970641
  0
LINE
  8
___SYMBOL
 62
7
  6
CONTINUOUS
 10
20.3698372045
 20
7.1180045537
 11
20.3114863459
 21
7.1011651082
  0
LINE
  8
___SYMBOL
 62
7
  6
CONTINUOUS
 10
20.0535412209
 20
6.4020681529
 11
20.1801469577
 21
7.0799583162
  0
LINE
  8
___SYMBOL
 62
7
  6
CONTINUOUS
 10
20.3698372045
 20
7.1180045537
 11
20.3495409572
 21
6.9799642689
  0
ARC
  8
___SYMBOL
 62
7
  6
CONTINUOUS
 10
20.1168459397
 20
6.4951175983
 40
0.3449940525
 50
132.6406360869
 51
167.3593639131
  0
ARC
  8
___SYMBOL
 62
7
  6
CONTINUOUS
 10
20.0160112861
 20
7.056235092
 40
0.2988715733
 50
331.8059909349
 51
21.752660067
  0
CIRCLE
  8
___SYMBOL
 62
7
  6
CONTINUOUS
 10
20.2298239818
 20
6.9883431777
 40
0.0256167242
  0
ARC
  8
___SYMBOL
 62
7
  6
CONTINUOUS
 10
20.27574697
 20
7.3725918437
 40
0.0139580219
 50
335.3133793157
 51
104.0675041521
  0
ARC
  8
___SYMBOL
 62
7
  6
CONTINUOUS
 10
20.5562532577
 20
7.2189385901
 40
0.0139579068
 50
23.3109272841
 51
149.4467240969
  0
POLYLINE
  8
___SYMBOL
 62
7
  6
CONTINUOUS
 66
1
 70
0
  0
VERTEX
  8
___SYMBOL
 62
7
  6
CONTINUOUS
 10
20.4191198425
 20
7.5487957391
  0
VERTEX
  8
___SYMBOL
 62
7
  6
CONTINUOUS
 10
20.416986779
 20
7.5387200763
  0
VERTEX
  8
___SYMBOL
 62
7
  6
CONTINUOUS
 10
20.4145818609
 20
7.5287119146
  0
VERTEX
  8
___SYMBOL
 62
7
  6
CONTINUOUS
 10
20.411917881
 20
7.5187700684
  0
VERTEX
  8
___SYMBOL
 62
7
  6
CONTINUOUS
 10
20.409007632
 20
7.5088933522
  0
VERTEX
  8
___SYMBOL
 62
7
  6
CONTINUOUS
 10
20.4058639066
 20
7.4990805804
  0
VERTEX
  8
___SYMBOL
 62
7
  6
CONTINUOUS
 10
20.4024994976
 20
7.4893305675
  0
VERTEX
  8
___SYMBOL
 62
7
  6
CONTINUOUS
 10
20.3989271977
 20
7.4796421278
  0
VERTEX
  8
___SYMBOL
 62
7
  6
CONTINUOUS
 10
20.3951597995
 20
7.4700140759
  0
VERTEX
  8
___SYMBOL
 62
7
  6
CONTINUOUS
 10
20.3912100959
 20
7.4604452261
  0
VERTEX
  8
___SYMBOL
 62
7
  6
CONTINUOUS
 10
20.3870908795
 20
7.4509343929
  0
VERTEX
  8
___SYMBOL
 62
7
  6
CONTINUOUS
 10
20.382814943
 20
7.4414803908
  0
VERTEX
  8
___SYMBOL
 62
7
  6
CONTINUOUS
 10
20.3783950793
 20
7.4320820341
  0
VERTEX
  8
___SYMBOL
 62
7
  6
CONTINUOUS
 10
20.3738440809
 20
7.4227381373
  0
VERTEX
  8
___SYMBOL
 62
7
  6
CONTINUOUS
 10
20.3691747407
 20
7.4134475149
  0
VERTEX
  8
___SYMBOL
 62
7
  6
CONTINUOUS
 10
20.3643998513
 20
7.4042089812
  0
VERTEX
  8
___SYMBOL
 62
7
  6
CONTINUOUS
 10
20.3595322055
 20
7.3950213508
  0
VERTEX
  8
___SYMBOL
 62
7
  6
CONTINUOUS
 10
20.354584596
 20
7.385883438
  0
VERTEX
  8
___SYMBOL
 62
7
  6
CONTINUOUS
 10
20.3495698155
 20
7.3767940573
  0
VERTEX
  8
___SYMBOL
 62
7
  6
CONTINUOUS
 10
20.3445006568
 20
7.3677520231
  0
VERTEX
  8
___SYMBOL
 62
7
  6
CONTINUOUS
 10
20.3393899125
 20
7.3587561498
  0
VERTEX
  8
___SYMBOL
 62
7
  6
CONTINUOUS
 10
20.331810649
 20
7.345570752
  0
VERTEX
  8
___SYMBOL
 62
7
  6
CONTINUOUS
 10
20.3242217064
 20
7.3324280707
  0
VERTEX
  8
___SYMBOL
 62
7
  6
CONTINUOUS
 10
20.31667595
 20
7.3192731261
  0
VERTEX
  8
___SYMBOL
 62
7
  6
CONTINUOUS
 10
20.3092262448
 20
7.3060509382
  0
VERTEX
  8
___SYMBOL
 62
7
  6
CONTINUOUS
 10
20.3019254561
 20
7.2927065272
  0
VERTEX
  8
___SYMBOL
 62
7
  6
CONTINUOUS
 10
20.2986362895
 20
7.2865162175
  0
VERTEX
  8
___SYMBOL
 62
7
  6
CONTINUOUS
 10
20.2954098797
 20
7.2802845633
  0
VERTEX
  8
___SYMBOL
 62
7
  6
CONTINUOUS
 10
20.2922663422
 20
7.2740076677
  0
VERTEX
  8
___SYMBOL
 62
7
  6
CONTINUOUS
 10
20.2892257925
 20
7.2676816333
  0
VERTEX
  8
___SYMBOL
 62
7
  6
CONTINUOUS
 10
20.2863083463
 20
7.261302563
  0
VERTEX
  8
___SYMBOL
 62
7
  6
CONTINUOUS
 10
20.2835341189
 20
7.2548665597
  0
VERTEX
  8
___SYMBOL
 62
7
  6
CONTINUOUS
 10
20.280923226
 20
7.2483697261
  0
VERTEX
  8
___SYMBOL
 62
7
  6
CONTINUOUS
 10
20.2784957831
 20
7.2418081651
  0
VERTEX
  8
___SYMBOL
 62
7
  6
CONTINUOUS
 10
20.2762719058
 20
7.2351779795
  0
VERTEX
  8
___SYMBOL
 62
7
  6
CONTINUOUS
 10
20.2742717095
 20
7.228475272
  0
VERTEX
  8
___SYMBOL
 62
7
  6
CONTINUOUS
 10
20.2725153099
 20
7.2216961456
  0
VERTEX
  8
___SYMBOL
 62
7
  6
CONTINUOUS
 10
20.2710228224
 20
7.214836703
  0
VERTEX
  8
___SYMBOL
 62
7
  6
CONTINUOUS
 10
20.2704698291
 20
7.211839931
  0
VERTEX
  8
___SYMBOL
 62
7
  6
CONTINUOUS
 10
20.2700110277
 20
7.2088303467
  0
VERTEX
  8
___SYMBOL
 62
7
  6
CONTINUOUS
 10
20.2696873123
 20
7.2058109402
  0
VERTEX
  8
___SYMBOL
 62
7
  6
CONTINUOUS
 10
20.269539577
 20
7.2027847019
  0
VERTEX
  8
___SYMBOL
 62
7
  6
CONTINUOUS
 10
20.2696087159
 20
7.1997546219
  0
VERTEX
  8
___SYMBOL
 62
7
  6
CONTINUOUS
 10
20.2699356233
 20
7.1967236906
  0
VERTEX
  8
___SYMBOL
 62
7
  6
CONTINUOUS
 10
20.2703629308
 20
7.1944863609
  0
VERTEX
  8
___SYMBOL
 62
7
  6
CONTINUOUS
 10
20.2709462764
 20
7.1922601861
  0
VERTEX
  8
___SYMBOL
 62
7
  6
CONTINUOUS
 10
20.2716785718
 20
7.1900551527
  0
VERTEX
  8
___SYMBOL
 62
7
  6
CONTINUOUS
 10
20.2725527285
 20
7.1878812476
  0
VERTEX
  8
___SYMBOL
 62
7
  6
CONTINUOUS
 10
20.2735616581
 20
7.1857484572
  0
VERTEX
  8
___SYMBOL
 62
7
  6
CONTINUOUS
 10
20.2746982722
 20
7.1836667682
  0
VERTEX
  8
___SYMBOL
 62
7
  6
CONTINUOUS
 10
20.2759554823
 20
7.1816461673
  0
VERTEX
  8
___SYMBOL
 62
7
  6
CONTINUOUS
 10
20.2773262002
 20
7.1796966411
  0
VERTEX
  8
___SYMBOL
 62
7
  6
CONTINUOUS
 10
20.2788033372
 20
7.1778281763
  0
VERTEX
  8
___SYMBOL
 62
7
  6
CONTINUOUS
 10
20.2803798051
 20
7.1760507595
  0
VERTEX
  8
___SYMBOL
 62
7
  6
CONTINUOUS
 10
20.2820485154
 20
7.1743743774
  0
VERTEX
  8
___SYMBOL
 62
7
  6
CONTINUOUS
 10
20.2838023797
 20
7.1728090165
  0
VERTEX
  8
___SYMBOL
 62
7
  6
CONTINUOUS
 10
20.2856343096
 20
7.1713646636
  0
VERTEX
  8
___SYMBOL
 62
7
  6
CONTINUOUS
 10
20.2875372166
 20
7.1700513052
  0
VERTEX
  8
___SYMBOL
 62
7
  6
CONTINUOUS
 10
20.2895040124
 20
7.1688789281
  0
VERTEX
  8
___SYMBOL
 62
7
  6
CONTINUOUS
 10
20.2915276084
 20
7.1678575188
  0
VERTEX
  8
___SYMBOL
 62
7
  6
CONTINUOUS
 10
20.2936009164
 20
7.1669970641
  0
SEQEND
  0
POLYLINE
  8
___SYMBOL
 62
7
  6
CONTINUOUS
 66
1
 70
0
  0
VERTEX
  8
___SYMBOL
 62
7
  6
CONTINUOUS
 10
20.2884293088
 20
7.3667622072
  0
VERTEX
  8
___SYMBOL
 62
7
  6
CONTINUOUS
 10
20.2852842492
 20
7.3601245327
  0
VERTEX
  8
___SYMBOL
 62
7
  6
CONTINUOUS
 10
20.2819969634
 20
7.3535617863
  0
VERTEX
  8
___SYMBOL
 62
7
  6
CONTINUOUS
 10
20.2781116538
 20
7.3462004077
  0
VERTEX
  8
___SYMBOL
 62
7
  6
CONTINUOUS
 10
20.2740841922
 20
7.33893337
  0
VERTEX
  8
___SYMBOL
 62
7
  6
CONTINUOUS
 10
20.2699272863
 20
7.3317424139
  0
VERTEX
  8
___SYMBOL
 62
7
  6
CONTINUOUS
 10
20.2656536443
 20
7.3246092799
  0
VERTEX
  8
___SYMBOL
 62
7
  6
CONTINUOUS
 10
20.2612759742
 20
7.3175157083
  0
VERTEX
  8
___SYMBOL
 62
7
  6
CONTINUOUS
 10
20.2568069838
 20
7.3104434397
  0
VERTEX
  8
___SYMBOL
 62
7
  6
CONTINUOUS
 10
20.2522593812
 20
7.3033742146
  0
VERTEX
  8
___SYMBOL
 62
7
  6
CONTINUOUS
 10
20.2476458743
 20
7.2962897735
  0
VERTEX
  8
___SYMBOL
 62
7
  6
CONTINUOUS
 10
20.2447103355
 20
7.2918069849
  0
VERTEX
  8
___SYMBOL
 62
7
  6
CONTINUOUS
 10
20.2417670487
 20
7.2873088588
  0
VERTEX
  8
___SYMBOL
 62
7
  6
CONTINUOUS
 10
20.2388294169
 20
7.2827933681
  0
VERTEX
  8
___SYMBOL
 62
7
  6
CONTINUOUS
 10
20.2359108431
 20
7.2782584853
  0
VERTEX
  8
___SYMBOL
 62
7
  6
CONTINUOUS
 10
20.2330247304
 20
7.2737021832
  0
VERTEX
  8
___SYMBOL
 62
7
  6
CONTINUOUS
 10
20.230184482
 20
7.2691224344
  0
VERTEX
  8
___SYMBOL
 62
7
  6
CONTINUOUS
 10
20.2274035008
 20
7.2645172115
  0
VERTEX
  8
___SYMBOL
 62
7
  6
CONTINUOUS
 10
20.2246951899
 20
7.2598844873
  0
VERTEX
  8
___SYMBOL
 62
7
  6
CONTINUOUS
 10
20.2220729523
 20
7.2552222344
  0
VERTEX
  8
___SYMBOL
 62
7
  6
CONTINUOUS
 10
20.2195501912
 20
7.2505284254
  0
VERTEX
  8
___SYMBOL
 62
7
  6
CONTINUOUS
 10
20.2171403095
 20
7.2458010331
  0
VERTEX
  8
___SYMBOL
 62
7
  6
CONTINUOUS
 10
20.2148567104
 20
7.2410380301
  0
VERTEX
  8
___SYMBOL
 62
7
  6
CONTINUOUS
 10
20.2127127968
 20
7.236237389
  0
VERTEX
  8
___SYMBOL
 62
7
  6
CONTINUOUS
 10
20.2107219719
 20
7.2313970826
  0
VERTEX
  8
___SYMBOL
 62
7
  6
CONTINUOUS
 10
20.2088976387
 20
7.2265150835
  0
VERTEX
  8
___SYMBOL
 62
7
  6
CONTINUOUS
 10
20.2072532003
 20
7.2215893644
  0
VERTEX
  8
___SYMBOL
 62
7
  6
CONTINUOUS
 10
20.2058020596
 20
7.2166178979
  0
VERTEX
  8
___SYMBOL
 62
7
  6
CONTINUOUS
 10
20.2045576199
 20
7.2115986567
  0
VERTEX
  8
___SYMBOL
 62
7
  6
CONTINUOUS
 10
20.2035332841
 20
7.2065296134
  0
VERTEX
  8
___SYMBOL
 62
7
  6
CONTINUOUS
 10
20.2027086314
 20
7.2012013636
  0
VERTEX
  8
___SYMBOL
 62
7
  6
CONTINUOUS
 10
20.2021106232
 20
7.1958228335
  0
VERTEX
  8
___SYMBOL
 62
7
  6
CONTINUOUS
 10
20.2017130798
 20
7.1903998598
  0
VERTEX
  8
___SYMBOL
 62
7
  6
CONTINUOUS
 10
20.2014898215
 20
7.1849382793
  0
VERTEX
  8
___SYMBOL
 62
7
  6
CONTINUOUS
 10
20.2014146685
 20
7.1794439288
  0
VERTEX
  8
___SYMBOL
 62
7
  6
CONTINUOUS
 10
20.2014614411
 20
7.173922645
  0
VERTEX
  8
___SYMBOL
 62
7
  6
CONTINUOUS
 10
20.2016039595
 20
7.1683802646
  0
VERTEX
  8
___SYMBOL
 62
7
  6
CONTINUOUS
 10
20.201816044
 20
7.1628226244
  0
VERTEX
  8
___SYMBOL
 62
7
  6
CONTINUOUS
 10
20.2020715149
 20
7.1572555611
  0
VERTEX
  8
___SYMBOL
 62
7
  6
CONTINUOUS
 10
20.2022651912
 20
7.1532060256
  0
VERTEX
  8
___SYMBOL
 62
7
  6
CONTINUOUS
 10
20.2024316523
 20
7.1491618977
  0
VERTEX
  8
___SYMBOL
 62
7
  6
CONTINUOUS
 10
20.2025345862
 20
7.1451304814
  0
VERTEX
  8
___SYMBOL
 62
7
  6
CONTINUOUS
 10
20.2025376811
 20
7.1411190801
  0
VERTEX
  8
___SYMBOL
 62
7
  6
CONTINUOUS
 10
20.2024046251
 20
7.1371349978
  0
VERTEX
  8
___SYMBOL
 62
7
  6
CONTINUOUS
 10
20.2020991065
 20
7.1331855381
  0
VERTEX
  8
___SYMBOL
 62
7
  6
CONTINUOUS
 10
20.2015848131
 20
7.1292780046
  0
VERTEX
  8
___SYMBOL
 62
7
  6
CONTINUOUS
 10
20.2008254333
 20
7.1254197012
  0
VERTEX
  8
___SYMBOL
 62
7
  6
CONTINUOUS
 10
20.1998520264
 20
7.1217960377
  0
VERTEX
  8
___SYMBOL
 62
7
  6
CONTINUOUS
 10
20.1986572435
 20
7.1182202456
  0
VERTEX
  8
___SYMBOL
 62
7
  6
CONTINUOUS
 10
20.1972749345
 20
7.1146889212
  0
VERTEX
  8
___SYMBOL
 62
7
  6
CONTINUOUS
 10
20.1957389488
 20
7.1111986603
  0
VERTEX
  8
___SYMBOL
 62
7
  6
CONTINUOUS
 10
20.1940831363
 20
7.1077460591
  0
VERTEX
  8
___SYMBOL
 62
7
  6
CONTINUOUS
 10
20.1923413465
 20
7.1043277134
  0
VERTEX
  8
___SYMBOL
 62
7
  6
CONTINUOUS
 10
20.1905474291
 20
7.1009402195
  0
VERTEX
  8
___SYMBOL
 62
7
  6
CONTINUOUS
 10
20.188308904
 20
7.0967902472
  0
VERTEX
  8
___SYMBOL
 62
7
  6
CONTINUOUS
 10
20.1860960505
 20
7.0926496006
  0
VERTEX
  8
___SYMBOL
 62
7
  6
CONTINUOUS
 10
20.1839624124
 20
7.0884857497
  0
VERTEX
  8
___SYMBOL
 62
7
  6
CONTINUOUS
 10
20.1819615336
 20
7.0842661648
  0
VERTEX
  8
___SYMBOL
 62
7
  6
CONTINUOUS
 10
20.1801469577
 20
7.0799583162
  0
SEQEND
  0
POLYLINE
  8
___SYMBOL
 62
7
  6
CONTINUOUS
 66
1
 70
0
  0
VERTEX
  8
___SYMBOL
 62
7
  6
CONTINUOUS
 10
20.5987690615
 20
7.4024270347
  0
VERTEX
  8
___SYMBOL
 62
7
  6
CONTINUOUS
 10
20.5930597425
 20
7.3963541906
  0
VERTEX
  8
___SYMBOL
 62
7
  6
CONTINUOUS
 10
20.5875287112
 20
7.3901243862
  0
VERTEX
  8
___SYMBOL
 62
7
  6
CONTINUOUS
 10
20.5821666952
 20
7.3837478811
  0
VERTEX
  8
___SYMBOL
 62
7
  6
CONTINUOUS
 10
20.5769644218
 20
7.3772349349
  0
VERTEX
  8
___SYMBOL
 62
7
  6
CONTINUOUS
 10
20.5719126187
 20
7.3705958072
  0
VERTEX
  8
___SYMBOL
 62
7
  6
CONTINUOUS
 10
20.5670020134
 20
7.3638407575
  0
VERTEX
  8
___SYMBOL
 62
7
  6
CONTINUOUS
 10
20.5622233333
 20
7.3569800454
  0
VERTEX
  8
___SYMBOL
 62
7
  6
CONTINUOUS
 10
20.5575673059
 20
7.3500239305
  0
VERTEX
  8
___SYMBOL
 62
7
  6
CONTINUOUS
 10
20.5530246589
 20
7.3429826723
  0
VERTEX
  8
___SYMBOL
 62
7
  6
CONTINUOUS
 10
20.5485861197
 20
7.3358665305
  0
VERTEX
  8
___SYMBOL
 62
7
  6
CONTINUOUS
 10
20.5442424157
 20
7.3286857645
  0
VERTEX
  8
___SYMBOL
 62
7
  6
CONTINUOUS
 10
20.5399842746
 20
7.3214506341
  0
VERTEX
  8
___SYMBOL
 62
7
  6
CONTINUOUS
 10
20.5358024238
 20
7.3141713987
  0
VERTEX
  8
___SYMBOL
 62
7
  6
CONTINUOUS
 10
20.5306975161
 20
7.305080426
  0
VERTEX
  8
___SYMBOL
 62
7
  6
CONTINUOUS
 10
20.5256708776
 20
7.2959542138
  0
VERTEX
  8
___SYMBOL
 62
7
  6
CONTINUOUS
 10
20.520697313
 20
7.2868097742
  0
VERTEX
  8
___SYMBOL
 62
7
  6
CONTINUOUS
 10
20.5157516271
 20
7.2776641193
  0
VERTEX
  8
___SYMBOL
 62
7
  6
CONTINUOUS
 10
20.5108086246
 20
7.2685342612
  0
VERTEX
  8
___SYMBOL
 62
7
  6
CONTINUOUS
 10
20.5058431103
 20
7.259437212
  0
VERTEX
  8
___SYMBOL
 62
7
  6
CONTINUOUS
 10
20.500829889
 20
7.2503899839
  0
VERTEX
  8
___SYMBOL
 62
7
  6
CONTINUOUS
 10
20.4957437653
 20
7.2414095889
  0
VERTEX
  8
___SYMBOL
 62
7
  6
CONTINUOUS
 10
20.4905595441
 20
7.2325130392
  0
VERTEX
  8
___SYMBOL
 62
7
  6
CONTINUOUS
 10
20.4852520301
 20
7.2237173469
  0
VERTEX
  8
___SYMBOL
 62
7
  6
CONTINUOUS
 10
20.4795754901
 20
7.214675207
  0
VERTEX
  8
___SYMBOL
 62
7
  6
CONTINUOUS
 10
20.4737566744
 20
7.205723166
  0
VERTEX
  8
___SYMBOL
 62
7
  6
CONTINUOUS
 10
20.4678142857
 20
7.1968235386
  0
VERTEX
  8
___SYMBOL
 62
7
  6
CONTINUOUS
 10
20.4617670268
 20
7.1879386391
  0
VERTEX
  8
___SYMBOL
 62
7
  6
CONTINUOUS
 10
20.4556336006
 20
7.1790307822
  0
VERTEX
  8
___SYMBOL
 62
7
  6
CONTINUOUS
 10
20.4494327099
 20
7.1700622823
  0
VERTEX
  8
___SYMBOL
 62
7
  6
CONTINUOUS
 10
20.4431830574
 20
7.160995454
  0
VERTEX
  8
___SYMBOL
 62
7
  6
CONTINUOUS
 10
20.4409842873
 20
7.1577931894
  0
VERTEX
  8
___SYMBOL
 62
7
  6
CONTINUOUS
 10
20.4387702473
 20
7.1545917325
  0
VERTEX
  8
___SYMBOL
 62
7
  6
CONTINUOUS
 10
20.4365293541
 20
7.151408572
  0
VERTEX
  8
___SYMBOL
 62
7
  6
CONTINUOUS
 10
20.4342500243
 20
7.1482611965
  0
VERTEX
  8
___SYMBOL
 62
7
  6
CONTINUOUS
 10
20.4319206746
 20
7.1451670946
  0
VERTEX
  8
___SYMBOL
 62
7
  6
CONTINUOUS
 10
20.4295297217
 20
7.1421437551
  0
VERTEX
  8
___SYMBOL
 62
7
  6
CONTINUOUS
 10
20.427065582
 20
7.1392086665
  0
VERTEX
  8
___SYMBOL
 62
7
  6
CONTINUOUS
 10
20.4245166724
 20
7.1363793176
  0
VERTEX
  8
___SYMBOL
 62
7
  6
CONTINUOUS
 10
20.4218714094
 20
7.133673197
  0
VERTEX
  8
___SYMBOL
 62
7
  6
CONTINUOUS
 10
20.4191182096
 20
7.1311077933
  0
VERTEX
  8
___SYMBOL
 62
7
  6
CONTINUOUS
 10
20.4162454897
 20
7.1287005952
  0
VERTEX
  8
___SYMBOL
 62
7
  6
CONTINUOUS
 10
20.4132416663
 20
7.1264690913
  0
VERTEX
  8
___SYMBOL
 62
7
  6
CONTINUOUS
 10
20.410095156
 20
7.1244307704
  0
VERTEX
  8
___SYMBOL
 62
7
  6
CONTINUOUS
 10
20.4067943756
 20
7.122603121
  0
VERTEX
  8
___SYMBOL
 62
7
  6
CONTINUOUS
 10
20.4043739494
 20
7.1214516309
  0
VERTEX
  8
___SYMBOL
 62
7
  6
CONTINUOUS
 10
20.4018810044
 20
7.120415941
  0
VERTEX
  8
___SYMBOL
 62
7
  6
CONTINUOUS
 10
20.399325233
 20
7.1194987558
  0
VERTEX
  8
___SYMBOL
 62
7
  6
CONTINUOUS
 10
20.3967163275
 20
7.11870278
  0
VERTEX
  8
___SYMBOL
 62
7
  6
CONTINUOUS
 10
20.3940639801
 20
7.1180307183
  0
VERTEX
  8
___SYMBOL
 62
7
  6
CONTINUOUS
 10
20.3913778832
 20
7.1174852751
  0
VERTEX
  8
___SYMBOL
 62
7
  6
CONTINUOUS
 10
20.3886677291
 20
7.1170691552
  0
VERTEX
  8
___SYMBOL
 62
7
  6
CONTINUOUS
 10
20.3859432102
 20
7.1167850631
  0
VERTEX
  8
___SYMBOL
 62
7
  6
CONTINUOUS
 10
20.3832140188
 20
7.1166357035
  0
VERTEX
  8
___SYMBOL
 62
7
  6
CONTINUOUS
 10
20.3804898471
 20
7.116623781
  0
VERTEX
  8
___SYMBOL
 62
7
  6
CONTINUOUS
 10
20.3777803875
 20
7.1167520001
  0
VERTEX
  8
___SYMBOL
 62
7
  6
CONTINUOUS
 10
20.3750953323
 20
7.1170230655
  0
VERTEX
  8
___SYMBOL
 62
7
  6
CONTINUOUS
 10
20.3724443739
 20
7.1174396819
  0
VERTEX
  8
___SYMBOL
 62
7
  6
CONTINUOUS
 10
20.3698372045
 20
7.1180045537
  0
SEQEND
  0
POLYLINE
  8
___SYMBOL
 62
7
  6
CONTINUOUS
 66
1
 70
0
  0
VERTEX
  8
___SYMBOL
 62
7
  6
CONTINUOUS
 10
20.5442333106
 20
7.226033943
  0
VERTEX
  8
___SYMBOL
 62
7
  6
CONTINUOUS
 10
20.5370536422
 20
7.213674082
  0
VERTEX
  8
___SYMBOL
 62
7
  6
CONTINUOUS
 10
20.529997184
 20
7.2012302751
  0
VERTEX
  8
___SYMBOL
 62
7
  6
CONTINUOUS
 10
20.5249156304
 20
7.1921695899
  0
VERTEX
  8
___SYMBOL
 62
7
  6
CONTINUOUS
 10
20.5198358311
 20
7.1830909963
  0
VERTEX
  8
___SYMBOL
 62
7
  6
CONTINUOUS
 10
20.5147384219
 20
7.1740145592
  0
VERTEX
  8
___SYMBOL
 62
7
  6
CONTINUOUS
 10
20.5096040384
 20
7.1649603433
  0
VERTEX
  8
___SYMBOL
 62
7
  6
CONTINUOUS
 10
20.5044133162
 20
7.1559484134
  0
VERTEX
  8
___SYMBOL
 62
7
  6
CONTINUOUS
 10
20.499146891
 20
7.1469988345
  0
VERTEX
  8
___SYMBOL
 62
7
  6
CONTINUOUS
 10
20.4937853986
 20
7.1381316712
  0
VERTEX
  8
___SYMBOL
 62
7
  6
CONTINUOUS
 10
20.4883094745
 20
7.1293669885
  0
VERTEX
  8
___SYMBOL
 62
7
  6
CONTINUOUS
 10
20.4826997544
 20
7.1207248512
  0
VERTEX
  8
___SYMBOL
 62
7
  6
CONTINUOUS
 10
20.4769368741
 20
7.1122253241
  0
VERTEX
  8
___SYMBOL
 62
7
  6
CONTINUOUS
 10
20.4738232878
 20
7.1078003205
  0
VERTEX
  8
___SYMBOL
 62
7
  6
CONTINUOUS
 10
20.4706518876
 20
7.1034248458
  0
VERTEX
  8
___SYMBOL
 62
7
  6
CONTINUOUS
 10
20.4674129962
 20
7.0991030406
  0
VERTEX
  8
___SYMBOL
 62
7
  6
CONTINUOUS
 10
20.4640969361
 20
7.0948390456
  0
VERTEX
  8
___SYMBOL
 62
7
  6
CONTINUOUS
 10
20.46069403
 20
7.0906370013
  0
VERTEX
  8
___SYMBOL
 62
7
  6
CONTINUOUS
 10
20.4571946005
 20
7.0865010483
  0
VERTEX
  8
___SYMBOL
 62
7
  6
CONTINUOUS
 10
20.4535889702
 20
7.0824353274
  0
VERTEX
  8
___SYMBOL
 62
7
  6
CONTINUOUS
 10
20.4498674616
 20
7.0784439791
  0
VERTEX
  8
___SYMBOL
 62
7
  6
CONTINUOUS
 10
20.4460203974
 20
7.074531144
  0
VERTEX
  8
___SYMBOL
 62
7
  6
CONTINUOUS
 10
20.4420381002
 20
7.0707009627
  0
VERTEX
  8
___SYMBOL
 62
7
  6
CONTINUOUS
 10
20.4379108925
 20
7.0669575759
  0
VERTEX
  8
___SYMBOL
 62
7
  6
CONTINUOUS
 10
20.4336290971
 20
7.0633051242
  0
VERTEX
  8
___SYMBOL
 62
7
  6
CONTINUOUS
 10
20.4291830364
 20
7.0597477481
  0
VERTEX
  8
___SYMBOL
 62
7
  6
CONTINUOUS
 10
20.4245630331
 20
7.0562895884
  0
VERTEX
  8
___SYMBOL
 62
7
  6
CONTINUOUS
 10
20.4220198011
 20
7.0544820342
  0
VERTEX
  8
___SYMBOL
 62
7
  6
CONTINUOUS
 10
20.4194319002
 20
7.0526998567
  0
VERTEX
  8
___SYMBOL
 62
7
  6
CONTINUOUS
 10
20.4168071487
 20
7.0509388883
  0
VERTEX
  8
___SYMBOL
 62
7
  6
CONTINUOUS
 10
20.4141533649
 20
7.0491949617
  0
VERTEX
  8
___SYMBOL
 62
7
  6
CONTINUOUS
 10
20.4114783671
 20
7.0474639091
  0
VERTEX
  8
___SYMBOL
 62
7
  6
CONTINUOUS
 10
20.4087899735
 20
7.0457415631
  0
VERTEX
  8
___SYMBOL
 62
7
  6
CONTINUOUS
 10
20.4060960024
 20
7.0440237562
  0
VERTEX
  8
___SYMBOL
 62
7
  6
CONTINUOUS
 10
20.4034042722
 20
7.0423063207
  0
VERTEX
  8
___SYMBOL
 62
7
  6
CONTINUOUS
 10
20.4007226011
 20
7.0405850893
  0
VERTEX
  8
___SYMBOL
 62
7
  6
CONTINUOUS
 10
20.3980588073
 20
7.0388558943
  0
VERTEX
  8
___SYMBOL
 62
7
  6
CONTINUOUS
 10
20.3954207093
 20
7.0371145683
  0
VERTEX
  8
___SYMBOL
 62
7
  6
CONTINUOUS
 10
20.3928161252
 20
7.0353569436
  0
VERTEX
  8
___SYMBOL
 62
7
  6
CONTINUOUS
 10
20.3902528733
 20
7.0335788528
  0
VERTEX
  8
___SYMBOL
 62
7
  6
CONTINUOUS
 10
20.387738772
 20
7.0317761284
  0
VERTEX
  8
___SYMBOL
 62
7
  6
CONTINUOUS
 10
20.3852816395
 20
7.0299446027
  0
VERTEX
  8
___SYMBOL
 62
7
  6
CONTINUOUS
 10
20.3828892942
 20
7.0280801083
  0
VERTEX
  8
___SYMBOL
 62
7
  6
CONTINUOUS
 10
20.3805695542
 20
7.0261784777
  0
VERTEX
  8
___SYMBOL
 62
7
  6
CONTINUOUS
 10
20.3783302379
 20
7.0242355432
  0
VERTEX
  8
___SYMBOL
 62
7
  6
CONTINUOUS
 10
20.3761791635
 20
7.0222471374
  0
VERTEX
  8
___SYMBOL
 62
7
  6
CONTINUOUS
 10
20.3741241495
 20
7.0202090928
  0
VERTEX
  8
___SYMBOL
 62
7
  6
CONTINUOUS
 10
20.3721730139
 20
7.0181172418
  0
VERTEX
  8
___SYMBOL
 62
7
  6
CONTINUOUS
 10
20.3703335752
 20
7.0159674168
  0
VERTEX
  8
___SYMBOL
 62
7
  6
CONTINUOUS
 10
20.3686136516
 20
7.0137554504
  0
VERTEX
  8
___SYMBOL
 62
7
  6
CONTINUOUS
 10
20.3670210613
 20
7.011477175
  0
VERTEX
  8
___SYMBOL
 62
7
  6
CONTINUOUS
 10
20.3655636228
 20
7.0091284232
  0
VERTEX
  8
___SYMBOL
 62
7
  6
CONTINUOUS
 10
20.3642491542
 20
7.0067050272
  0
VERTEX
  8
___SYMBOL
 62
7
  6
CONTINUOUS
 10
20.3630854739
 20
7.0042028197
  0
VERTEX
  8
___SYMBOL
 62
7
  6
CONTINUOUS
 10
20.3620804001
 20
7.0016176331
  0
VERTEX
  8
___SYMBOL
 62
7
  6
CONTINUOUS
 10
20.3612417511
 20
6.9989452998
  0
VERTEX
  8
___SYMBOL
 62
7
  6
CONTINUOUS
 10
20.3605773453
 20
6.9961816524
  0
VERTEX
  8
___SYMBOL
 62
7
  6
CONTINUOUS
 10
20.3602304948
 20
6.9943488036
  0
VERTEX
  8
___SYMBOL
 62
7
  6
CONTINUOUS
 10
20.3598787668
 20
6.9924969822
  0
VERTEX
  8
___SYMBOL
 62
7
  6
CONTINUOUS
 10
20.3594412494
 20
6.990647092
  0
VERTEX
  8
___SYMBOL
 62
7
  6
CONTINUOUS
 10
20.3588370305
 20
6.9888200365
  0
VERTEX
  8
___SYMBOL
 62
7
  6
CONTINUOUS
 10
20.3582961194
 20
6.9876046093
  0
VERTEX
  8
___SYMBOL
 62
7
  6
CONTINUOUS
 10
20.3576486478
 20
6.9864238348
  0
VERTEX
  8
___SYMBOL
 62
7
  6
CONTINUOUS
 10
20.3569021846
 20
6.9852922056
  0
VERTEX
  8
___SYMBOL
 62
7
  6
CONTINUOUS
 10
20.3560642984
 20
6.9842242147
  0
VERTEX
  8
___SYMBOL
 62
7
  6
CONTINUOUS
 10
20.3551425583
 20
6.9832343547
  0
VERTEX
  8
___SYMBOL
 62
7
  6
CONTINUOUS
 10
20.354144533
 20
6.9823371187
  0
VERTEX
  8
___SYMBOL
 62
7
  6
CONTINUOUS
 10
20.3530777914
 20
6.9815469992
  0
VERTEX
  8
___SYMBOL
 62
7
  6
CONTINUOUS
 10
20.3519499023
 20
6.9808784892
  0
VERTEX
  8
___SYMBOL
 62
7
  6
CONTINUOUS
 10
20.3507684346
 20
6.9803460815
  0
VERTEX
  8
___SYMBOL
 62
7
  6
CONTINUOUS
 10
20.3495409572
 20
6.9799642689
  0
SEQEND
  0
POLYLINE
  8
___SYMBOL
 62
7
  6
CONTINUOUS
 66
1
 70
0
  0
VERTEX
  8
___SYMBOL
 62
7
  6
CONTINUOUS
 10
20.3398314042
 20
7.6516594501
  0
VERTEX
  8
___SYMBOL
 62
7
  6
CONTINUOUS
 10
20.3205026179
 20
7.6583083651
  0
VERTEX
  8
___SYMBOL
 62
7
  6
CONTINUOUS
 10
20.2990362117
 20
7.6594024254
  0
VERTEX
  8
___SYMBOL
 62
7
  6
CONTINUOUS
 10
20.277312823
 20
7.6548459245
  0
VERTEX
  8
___SYMBOL
 62
7
  6
CONTINUOUS
 10
20.2555979438
 20
7.6446941741
  0
VERTEX
  8
___SYMBOL
 62
7
  6
CONTINUOUS
 10
20.2357942244
 20
7.6298370745
  0
VERTEX
  8
___SYMBOL
 62
7
  6
CONTINUOUS
 10
20.2181436514
 20
7.610455719
  0
VERTEX
  8
___SYMBOL
 62
7
  6
CONTINUOUS
 10
20.2041926955
 20
7.5882486526
  0
VERTEX
  8
___SYMBOL
 62
7
  6
CONTINUOUS
 10
20.1942626644
 20
7.5639756668
  0
VERTEX
  8
___SYMBOL
 62
7
  6
CONTINUOUS
 10
20.1887842864
 20
7.5383404568
  0
VERTEX
  8
___SYMBOL
 62
7
  6
CONTINUOUS
 10
20.1882374829
 20
7.5135891384
  0
VERTEX
  8
___SYMBOL
 62
7
  6
CONTINUOUS
 10
20.1926291303
 20
7.4900242622
  0
VERTEX
  8
___SYMBOL
 62
7
  6
CONTINUOUS
 10
20.2015743888
 20
7.469710486
  0
VERTEX
  8
___SYMBOL
 62
7
  6
CONTINUOUS
 10
20.2149638772
 20
7.4528958772
  0
VERTEX
  8
___SYMBOL
 62
7
  6
CONTINUOUS
 10
20.2316244072
 20
7.4410539324
  0
VERTEX
  8
___SYMBOL
 62
7
  6
CONTINUOUS
 10
20.2509530412
 20
7.4344049766
  0
VERTEX
  8
___SYMBOL
 62
7
  6
CONTINUOUS
 10
20.2724195439
 20
7.4333108606
  0
VERTEX
  8
___SYMBOL
 62
7
  6
CONTINUOUS
 10
20.2941428919
 20
7.4378675138
  0
VERTEX
  8
___SYMBOL
 62
7
  6
CONTINUOUS
 10
20.3158578676
 20
7.4480192084
  0
VERTEX
  8
___SYMBOL
 62
7
  6
CONTINUOUS
 10
20.3356614905
 20
7.4628763638
  0
VERTEX
  8
___SYMBOL
 62
7
  6
CONTINUOUS
 10
20.35331216
 20
7.4822576635
  0
VERTEX
  8
___SYMBOL
 62
7
  6
CONTINUOUS
 10
20.3672631159
 20
7.5044647299
  0
VERTEX
  8
___SYMBOL
 62
7
  6
CONTINUOUS
 10
20.377193147
 20
7.5287377157
  0
VERTEX
  8
___SYMBOL
 62
7
  6
CONTINUOUS
 10
20.382671525
 20
7.5543729257
  0
VERTEX
  8
___SYMBOL
 62
7
  6
CONTINUOUS
 10
20.383218232
 20
7.5791242999
  0
VERTEX
  8
___SYMBOL
 62
7
  6
CONTINUOUS
 10
20.3788265846
 20
7.602689176
  0
VERTEX
  8
___SYMBOL
 62
7
  6
CONTINUOUS
 10
20.3698813261
 20
7.6230029522
  0
VERTEX
  8
___SYMBOL
 62
7
  6
CONTINUOUS
 10
20.3564918785
 20
7.6398174089
  0
VERTEX
  8
___SYMBOL
 62
7
  6
CONTINUOUS
 10
20.3398314042
 20
7.6516594501
  0
SEQEND
  0
POLYLINE
  8
___SYMBOL
 62
7
  6
CONTINUOUS
 66
1
 70
0
  0
VERTEX
  8
___SYMBOL
 62
7
  6
CONTINUOUS
 10
20.4191198425
 20
7.5487957391
  0
VERTEX
  8
___SYMBOL
 62
7
  6
CONTINUOUS
 10
20.4212151126
 20
7.5581486619
  0
VERTEX
  8
___SYMBOL
 62
7
  6
CONTINUOUS
 10
20.4228686474
 20
7.5674631388
  0
VERTEX
  8
___SYMBOL
 62
7
  6
CONTINUOUS
 10
20.4240750557
 20
7.5767088013
  0
VERTEX
  8
___SYMBOL
 62
7
  6
CONTINUOUS
 10
20.4248304044
 20
7.5858555056
  0
VERTEX
  8
___SYMBOL
 62
7
  6
CONTINUOUS
 10
20.4251322306
 20
7.59487343
  0
VERTEX
  8
___SYMBOL
 62
7
  6
CONTINUOUS
 10
20.4249795504
 20
7.6037331731
  0
VERTEX
  8
___SYMBOL
 62
7
  6
CONTINUOUS
 10
20.4243728615
 20
7.612405849
  0
VERTEX
  8
___SYMBOL
 62
7
  6
CONTINUOUS
 10
20.4233141419
 20
7.6208631817
  0
VERTEX
  8
___SYMBOL
 62
7
  6
CONTINUOUS
 10
20.4218068434
 20
7.6290775976
  0
VERTEX
  8
___SYMBOL
 62
7
  6
CONTINUOUS
 10
20.4198558804
 20
7.6370223146
  0
VERTEX
  8
___SYMBOL
 62
7
  6
CONTINUOUS
 10
20.4174676137
 20
7.6446714303
  0
VERTEX
  8
___SYMBOL
 62
7
  6
CONTINUOUS
 10
20.4146498298
 20
7.652000006
  0
VERTEX
  8
___SYMBOL
 62
7
  6
CONTINUOUS
 10
20.4114117157
 20
7.6589841478
  0
VERTEX
  8
___SYMBOL
 62
7
  6
CONTINUOUS
 10
20.4077638288
 20
7.6656010852
  0
VERTEX
  8
___SYMBOL
 62
7
  6
CONTINUOUS
 10
20.4037180624
 20
7.6718292445
  0
VERTEX
  8
___SYMBOL
 62
7
  6
CONTINUOUS
 10
20.3992876071
 20
7.6776483198
  0
VERTEX
  8
___SYMBOL
 62
7
  6
CONTINUOUS
 10
20.3944869078
 20
7.683039339
  0
VERTEX
  8
___SYMBOL
 62
7
  6
CONTINUOUS
 10
20.3893316164
 20
7.6879847254
  0
VERTEX
  8
___SYMBOL
 62
7
  6
CONTINUOUS
 10
20.3838385409
 20
7.6924683554
  0
VERTEX
  8
___SYMBOL
 62
7
  6
CONTINUOUS
 10
20.3780255908
 20
7.6964756107
  0
VERTEX
  8
___SYMBOL
 62
7
  6
CONTINUOUS
 10
20.3719117181
 20
7.6999934264
  0
VERTEX
  8
___SYMBOL
 62
7
  6
CONTINUOUS
 10
20.3655168562
 20
7.7030103331
  0
VERTEX
  8
___SYMBOL
 62
7
  6
CONTINUOUS
 10
20.3588618547
 20
7.7055164947
  0
VERTEX
  8
___SYMBOL
 62
7
  6
CONTINUOUS
 10
20.3519684111
 20
7.7075037401
  0
VERTEX
  8
___SYMBOL
 62
7
  6
CONTINUOUS
 10
20.3448590004
 20
7.7089655904
  0
VERTEX
  8
___SYMBOL
 62
7
  6
CONTINUOUS
 10
20.3375568018
 20
7.7098972794
  0
VERTEX
  8
___SYMBOL
 62
7
  6
CONTINUOUS
 10
20.330085623
 20
7.7102957694
  0
VERTEX
  8
___SYMBOL
 62
7
  6
CONTINUOUS
 10
20.3224698226
 20
7.7101597612
  0
VERTEX
  8
___SYMBOL
 62
7
  6
CONTINUOUS
 10
20.3147342308
 20
7.7094896983
  0
VERTEX
  8
___SYMBOL
 62
7
  6
CONTINUOUS
 10
20.3069040682
 20
7.7082877653
  0
VERTEX
  8
___SYMBOL
 62
7
  6
CONTINUOUS
 10
20.2990048639
 20
7.7065578809
  0
VERTEX
  8
___SYMBOL
 62
7
  6
CONTINUOUS
 10
20.2910623721
 20
7.7043056851
  0
VERTEX
  8
___SYMBOL
 62
7
  6
CONTINUOUS
 10
20.283102488
 20
7.7015385209
  0
VERTEX
  8
___SYMBOL
 62
7
  6
CONTINUOUS
 10
20.2751511636
 20
7.6982654102
  0
VERTEX
  8
___SYMBOL
 62
7
  6
CONTINUOUS
 10
20.2672343231
 20
7.6944970245
  0
VERTEX
  8
___SYMBOL
 62
7
  6
CONTINUOUS
 10
20.2593777779
 20
7.69024565
  0
VERTEX
  8
___SYMBOL
 62
7
  6
CONTINUOUS
 10
20.2516071432
 20
7.6855251476
  0
VERTEX
  8
___SYMBOL
 62
7
  6
CONTINUOUS
 10
20.243947754
 20
7.6803509079
  0
VERTEX
  8
___SYMBOL
 62
7
  6
CONTINUOUS
 10
20.2364245825
 20
7.6747398006
  0
VERTEX
  8
___SYMBOL
 62
7
  6
CONTINUOUS
 10
20.2290621568
 20
7.6687101199
  0
VERTEX
  8
___SYMBOL
 62
7
  6
CONTINUOUS
 10
20.2218844811
 20
7.6622815247
  0
VERTEX
  8
___SYMBOL
 62
7
  6
CONTINUOUS
 10
20.214914957
 20
7.6554749743
  0
VERTEX
  8
___SYMBOL
 62
7
  6
CONTINUOUS
 10
20.2081763076
 20
7.6483126606
  0
VERTEX
  8
___SYMBOL
 62
7
  6
CONTINUOUS
 10
20.2016905032
 20
7.6408179351
  0
VERTEX
  8
___SYMBOL
 62
7
  6
CONTINUOUS
 10
20.1954786898
 20
7.6330152333
  0
VERTEX
  8
___SYMBOL
 62
7
  6
CONTINUOUS
 10
20.1895611201
 20
7.6249299946
  0
VERTEX
  8
___SYMBOL
 62
7
  6
CONTINUOUS
 10
20.1839570873
 20
7.6165885798
  0
VERTEX
  8
___SYMBOL
 62
7
  6
CONTINUOUS
 10
20.1786848627
 20
7.6080181847
  0
VERTEX
  8
___SYMBOL
 62
7
  6
CONTINUOUS
 10
20.1737616353
 20
7.5992467517
  0
VERTEX
  8
___SYMBOL
 62
7
  6
CONTINUOUS
 10
20.1692034568
 20
7.5903028789
  0
VERTEX
  8
___SYMBOL
 62
7
  6
CONTINUOUS
 10
20.1650251883
 20
7.5812157263
  0
VERTEX
  8
___SYMBOL
 62
7
  6
CONTINUOUS
 10
20.1612404524
 20
7.5720149213
  0
VERTEX
  8
___SYMBOL
 62
7
  6
CONTINUOUS
 10
20.1578615887
 20
7.5627304615
  0
VERTEX
  8
___SYMBOL
 62
7
  6
CONTINUOUS
 10
20.1548996134
 20
7.5533926176
  0
VERTEX
  8
___SYMBOL
 62
7
  6
CONTINUOUS
 10
20.1523641837
 20
7.5440318341
  0
VERTEX
  8
___SYMBOL
 62
7
  6
CONTINUOUS
 10
20.1502635658
 20
7.5346786306
  0
VERTEX
  8
___SYMBOL
 62
7
  6
CONTINUOUS
 10
20.1486046086
 20
7.5253635015
  0
VERTEX
  8
___SYMBOL
 62
7
  6
CONTINUOUS
 10
20.1473927208
 20
7.5161168176
  0
VERTEX
  8
___SYMBOL
 62
7
  6
CONTINUOUS
 10
20.1466318535
 20
7.5069687262
  0
VERTEX
  8
___SYMBOL
 62
7
  6
CONTINUOUS
 10
20.1463244875
 20
7.4979490533
  0
VERTEX
  8
___SYMBOL
 62
7
  6
CONTINUOUS
 10
20.146471625
 20
7.489087206
  0
VERTEX
  8
___SYMBOL
 62
7
  6
CONTINUOUS
 10
20.147072786
 20
7.4804120771
  0
VERTEX
  8
___SYMBOL
 62
7
  6
CONTINUOUS
 10
20.1481260108
 20
7.4719519506
  0
VERTEX
  8
___SYMBOL
 62
7
  6
CONTINUOUS
 10
20.1496278654
 20
7.4637344093
  0
VERTEX
  8
___SYMBOL
 62
7
  6
CONTINUOUS
 10
20.1515734532
 20
7.4557862454
  0
VERTEX
  8
___SYMBOL
 62
7
  6
CONTINUOUS
 10
20.153956431
 20
7.4481333725
  0
VERTEX
  8
___SYMBOL
 62
7
  6
CONTINUOUS
 10
20.1567690293
 20
7.4408007417
  0
VERTEX
  8
___SYMBOL
 62
7
  6
CONTINUOUS
 10
20.1600020783
 20
7.4338122599
  0
VERTEX
  8
___SYMBOL
 62
7
  6
CONTINUOUS
 10
20.1636450369
 20
7.4271907119
  0
VERTEX
  8
___SYMBOL
 62
7
  6
CONTINUOUS
 10
20.1676860279
 20
7.4209576864
  0
VERTEX
  8
___SYMBOL
 62
7
  6
CONTINUOUS
 10
20.1721118763
 20
7.4151335052
  0
VERTEX
  8
___SYMBOL
 62
7
  6
CONTINUOUS
 10
20.1769081523
 20
7.409737157
  0
VERTEX
  8
___SYMBOL
 62
7
  6
CONTINUOUS
 10
20.1820592183
 20
7.4047862359
  0
VERTEX
  8
___SYMBOL
 62
7
  6
CONTINUOUS
 10
20.1875482801
 20
7.4002968836
  0
VERTEX
  8
___SYMBOL
 62
7
  6
CONTINUOUS
 10
20.1933574415
 20
7.3962837368
  0
VERTEX
  8
___SYMBOL
 62
7
  6
CONTINUOUS
 10
20.1994677625
 20
7.39275988
  0
VERTEX
  8
___SYMBOL
 62
7
  6
CONTINUOUS
 10
20.2058593214
 20
7.389736802
  0
VERTEX
  8
___SYMBOL
 62
7
  6
CONTINUOUS
 10
20.2125112795
 20
7.3872243592
  0
VERTEX
  8
___SYMBOL
 62
7
  6
CONTINUOUS
 10
20.2194019491
 20
7.3852307429
  0
VERTEX
  8
___SYMBOL
 62
7
  6
CONTINUOUS
 10
20.2265088643
 20
7.3837624531
  0
VERTEX
  8
___SYMBOL
 62
7
  6
CONTINUOUS
 10
20.233808854
 20
7.3828242769
  0
VERTEX
  8
___SYMBOL
 62
7
  6
CONTINUOUS
 10
20.2412781177
 20
7.382419273
  0
VERTEX
  8
___SYMBOL
 62
7
  6
CONTINUOUS
 10
20.2488923031
 20
7.382548762
  0
VERTEX
  8
___SYMBOL
 62
7
  6
CONTINUOUS
 10
20.2566265853
 20
7.3832123217
  0
VERTEX
  8
___SYMBOL
 62
7
  6
CONTINUOUS
 10
20.2644557478
 20
7.3844077885
  0
VERTEX
  8
___SYMBOL
 62
7
  6
CONTINUOUS
 10
20.2723542648
 20
7.3861312649
  0
SEQEND
  0
POLYLINE
  8
___SYMBOL
 62
7
  6
CONTINUOUS
 66
1
 70
0
  0
VERTEX
  8
___SYMBOL
 62
7
  6
CONTINUOUS
 10
20.7324151711
 20
7.4098166189
  0
VERTEX
  8
___SYMBOL
 62
7
  6
CONTINUOUS
 10
20.7132496705
 20
7.4147698122
  0
VERTEX
  8
___SYMBOL
 62
7
  6
CONTINUOUS
 10
20.6923454609
 20
7.4140389835
  0
VERTEX
  8
___SYMBOL
 62
7
  6
CONTINUOUS
 10
20.6715343649
 20
7.4076883801
  0
VERTEX
  8
___SYMBOL
 62
7
  6
CONTINUOUS
 10
20.6510704727
 20
7.3957954672
  0
VERTEX
  8
___SYMBOL
 62
7
  6
CONTINUOUS
 10
20.6327468406
 20
7.3794023384
  0
VERTEX
  8
___SYMBOL
 62
7
  6
CONTINUOUS
 10
20.6167873287
 20
7.3587091741
  0
VERTEX
  8
___SYMBOL
 62
7
  6
CONTINUOUS
 10
20.6045904204
 20
7.3355292993
  0
VERTEX
  8
___SYMBOL
 62
7
  6
CONTINUOUS
 10
20.5964218064
 20
7.3106425199
  0
VERTEX
  8
___SYMBOL
 62
7
  6
CONTINUOUS
 10
20.5926571065
 20
7.2847826751
  0
VERTEX
  8
___SYMBOL
 62
7
  6
CONTINUOUS
 10
20.593625978
 20
7.260215335
  0
VERTEX
  8
___SYMBOL
 62
7
  6
CONTINUOUS
 10
20.5993168408
 20
7.2372408379
  0
VERTEX
  8
___SYMBOL
 62
7
  6
CONTINUOUS
 10
20.6092308634
 20
7.2178721679
  0
VERTEX
  8
___SYMBOL
 62
7
  6
CONTINUOUS
 10
20.6232469882
 20
7.2023458609
  0
VERTEX
  8
___SYMBOL
 62
7
  6
CONTINUOUS
 10
20.6401371657
 20
7.1920224491
  0
VERTEX
  8
___SYMBOL
 62
7
  6
CONTINUOUS
 10
20.659302722
 20
7.1870693523
  0
VERTEX
  8
___SYMBOL
 62
7
  6
CONTINUOUS
 10
20.6802068759
 20
7.1878000845
  0
VERTEX
  8
___SYMBOL
 62
7
  6
CONTINUOUS
 10
20.7010179719
 20
7.1941506879
  0
VERTEX
  8
___SYMBOL
 62
7
  6
CONTINUOUS
 10
20.7214819681
 20
7.2060436695
  0
VERTEX
  8
___SYMBOL
 62
7
  6
CONTINUOUS
 10
20.7398055519
 20
7.2224368261
  0
VERTEX
  8
___SYMBOL
 62
7
  6
CONTINUOUS
 10
20.755765008
 20
7.2431298939
  0
VERTEX
  8
___SYMBOL
 62
7
  6
CONTINUOUS
 10
20.7679619164
 20
7.2663097687
  0
VERTEX
  8
___SYMBOL
 62
7
  6
CONTINUOUS
 10
20.7761305304
 20
7.2911965481
  0
VERTEX
  8
___SYMBOL
 62
7
  6
CONTINUOUS
 10
20.779895286
 20
7.3170564894
  0
VERTEX
  8
___SYMBOL
 62
7
  6
CONTINUOUS
 10
20.7789263588
 20
7.341623733
  0
VERTEX
  8
___SYMBOL
 62
7
  6
CONTINUOUS
 10
20.773235496
 20
7.3645982302
  0
VERTEX
  8
___SYMBOL
 62
7
  6
CONTINUOUS
 10
20.7633214734
 20
7.3839669002
  0
VERTEX
  8
___SYMBOL
 62
7
  6
CONTINUOUS
 10
20.7493053486
 20
7.3994932071
  0
VERTEX
  8
___SYMBOL
 62
7
  6
CONTINUOUS
 10
20.7324151711
 20
7.4098166189
  0
SEQEND
  0
POLYLINE
  8
___SYMBOL
 62
7
  6
CONTINUOUS
 66
1
 70
0
  0
VERTEX
  8
___SYMBOL
 62
7
  6
CONTINUOUS
 10
20.5690717935
 20
7.2244620222
  0
VERTEX
  8
___SYMBOL
 62
7
  6
CONTINUOUS
 10
20.5725295208
 20
7.2171242588
  0
VERTEX
  8
___SYMBOL
 62
7
  6
CONTINUOUS
 10
20.5764214419
 20
7.2101499393
  0
VERTEX
  8
___SYMBOL
 62
7
  6
CONTINUOUS
 10
20.5807336652
 20
7.2035639573
  0
VERTEX
  8
___SYMBOL
 62
7
  6
CONTINUOUS
 10
20.585450799
 20
7.1973898205
  0
VERTEX
  8
___SYMBOL
 62
7
  6
CONTINUOUS
 10
20.5905560062
 20
7.1916495664
  0
VERTEX
  8
___SYMBOL
 62
7
  6
CONTINUOUS
 10
20.5960310647
 20
7.1863636838
  0
VERTEX
  8
___SYMBOL
 62
7
  6
CONTINUOUS
 10
20.6018564322
 20
7.1815510398
  0
VERTEX
  8
___SYMBOL
 62
7
  6
CONTINUOUS
 10
20.608011316
 20
7.1772288124
  0
VERTEX
  8
___SYMBOL
 62
7
  6
CONTINUOUS
 10
20.6144737473
 20
7.173412429
  0
VERTEX
  8
___SYMBOL
 62
7
  6
CONTINUOUS
 10
20.6212206594
 20
7.1701155116
  0
VERTEX
  8
___SYMBOL
 62
7
  6
CONTINUOUS
 10
20.6282279705
 20
7.1673498279
  0
VERTEX
  8
___SYMBOL
 62
7
  6
CONTINUOUS
 10
20.6354706691
 20
7.1651252496
  0
VERTEX
  8
___SYMBOL
 62
7
  6
CONTINUOUS
 10
20.6429229036
 20
7.163449717
  0
VERTEX
  8
___SYMBOL
 62
7
  6
CONTINUOUS
 10
20.6505580744
 20
7.1623292106
  0
VERTEX
  8
___SYMBOL
 62
7
  6
CONTINUOUS
 10
20.6583489293
 20
7.1617677298
  0
VERTEX
  8
___SYMBOL
 62
7
  6
CONTINUOUS
 10
20.6662676598
 20
7.1617672788
  0
VERTEX
  8
___SYMBOL
 62
7
  6
CONTINUOUS
 10
20.6742860016
 20
7.1623278592
  0
VERTEX
  8
___SYMBOL
 62
7
  6
CONTINUOUS
 10
20.6823753344
 20
7.16344747
  0
VERTEX
  8
___SYMBOL
 62
7
  6
CONTINUOUS
 10
20.6905067848
 20
7.1651221151
  0
VERTEX
  8
___SYMBOL
 62
7
  6
CONTINUOUS
 10
20.6986513289
 20
7.167345817
  0
VERTEX
  8
___SYMBOL
 62
7
  6
CONTINUOUS
 10
20.706779896
 20
7.1701106386
  0
VERTEX
  8
___SYMBOL
 62
7
  6
CONTINUOUS
 10
20.7148634727
 20
7.1734067114
  0
VERTEX
  8
___SYMBOL
 62
7
  6
CONTINUOUS
 10
20.722873206
 20
7.1772222706
  0
VERTEX
  8
___SYMBOL
 62
7
  6
CONTINUOUS
 10
20.7307805064
 20
7.1815436971
  0
VERTEX
  8
___SYMBOL
 62
7
  6
CONTINUOUS
 10
20.7385571502
 20
7.1863555664
  0
VERTEX
  8
___SYMBOL
 62
7
  6
CONTINUOUS
 10
20.7461753799
 20
7.1916407032
  0
VERTEX
  8
___SYMBOL
 62
7
  6
CONTINUOUS
 10
20.7536080036
 20
7.1973802433
  0
VERTEX
  8
___SYMBOL
 62
7
  6
CONTINUOUS
 10
20.7608284917
 20
7.2035537002
  0
VERTEX
  8
___SYMBOL
 62
7
  6
CONTINUOUS
 10
20.767811072
 20
7.2101390389
  0
VERTEX
  8
___SYMBOL
 62
7
  6
CONTINUOUS
 10
20.7745308212
 20
7.217112754
  0
VERTEX
  8
___SYMBOL
 62
7
  6
CONTINUOUS
 10
20.7809637543
 20
7.2244499541
  0
VERTEX
  8
___SYMBOL
 62
7
  6
CONTINUOUS
 10
20.7870869102
 20
7.2321244502
  0
VERTEX
  8
___SYMBOL
 62
7
  6
CONTINUOUS
 10
20.792878433
 20
7.2401088495
  0
VERTEX
  8
___SYMBOL
 62
7
  6
CONTINUOUS
 10
20.7983176512
 20
7.2483746531
  0
VERTEX
  8
___SYMBOL
 62
7
  6
CONTINUOUS
 10
20.8033851501
 20
7.2568923575
  0
VERTEX
  8
___SYMBOL
 62
7
  6
CONTINUOUS
 10
20.8080628423
 20
7.2656315603
  0
VERTEX
  8
___SYMBOL
 62
7
  6
CONTINUOUS
 10
20.8123340314
 20
7.2745610682
  0
VERTEX
  8
___SYMBOL
 62
7
  6
CONTINUOUS
 10
20.8161834723
 20
7.283649009
  0
VERTEX
  8
___SYMBOL
 62
7
  6
CONTINUOUS
 10
20.819597425
 20
7.2928629446
  0
VERTEX
  8
___SYMBOL
 62
7
  6
CONTINUOUS
 10
20.8225637039
 20
7.3021699876
  0
VERTEX
  8
___SYMBOL
 62
7
  6
CONTINUOUS
 10
20.8250717214
 20
7.311536918
  0
VERTEX
  8
___SYMBOL
 62
7
  6
CONTINUOUS
 10
20.8271125255
 20
7.3209303021
  0
VERTEX
  8
___SYMBOL
 62
7
  6
CONTINUOUS
 10
20.828678832
 20
7.3303166118
  0
VERTEX
  8
___SYMBOL
 62
7
  6
CONTINUOUS
 10
20.8297650501
 20
7.3396623441
  0
VERTEX
  8
___SYMBOL
 62
7
  6
CONTINUOUS
 10
20.8303673029
 20
7.3489341412
  0
VERTEX
  8
___SYMBOL
 62
7
  6
CONTINUOUS
 10
20.8304834406
 20
7.3580989089
  0
VERTEX
  8
___SYMBOL
 62
7
  6
CONTINUOUS
 10
20.8301130487
 20
7.367123935
  0
VERTEX
  8
___SYMBOL
 62
7
  6
CONTINUOUS
 10
20.8292574494
 20
7.3759770062
  0
VERTEX
  8
___SYMBOL
 62
7
  6
CONTINUOUS
 10
20.8279196964
 20
7.384626523
  0
VERTEX
  8
___SYMBOL
 62
7
  6
CONTINUOUS
 10
20.8261045647
 20
7.3930416124
  0
VERTEX
  8
___SYMBOL
 62
7
  6
CONTINUOUS
 10
20.8238185331
 20
7.4011922381
  0
VERTEX
  8
___SYMBOL
 62
7
  6
CONTINUOUS
 10
20.8210697611
 20
7.4090493078
  0
VERTEX
  8
___SYMBOL
 62
7
  6
CONTINUOUS
 10
20.8178680602
 20
7.4165847771
  0
VERTEX
  8
___SYMBOL
 62
7
  6
CONTINUOUS
 10
20.8142248582
 20
7.4237717493
  0
VERTEX
  8
___SYMBOL
 62
7
  6
CONTINUOUS
 10
20.8101531589
 20
7.4305845717
  0
VERTEX
  8
___SYMBOL
 62
7
  6
CONTINUOUS
 10
20.8056674955
 20
7.4369989271
  0
VERTEX
  8
___SYMBOL
 62
7
  6
CONTINUOUS
 10
20.800783879
 20
7.4429919206
  0
VERTEX
  8
___SYMBOL
 62
7
  6
CONTINUOUS
 10
20.7955197404
 20
7.4485421612
  0
VERTEX
  8
___SYMBOL
 62
7
  6
CONTINUOUS
 10
20.7898938694
 20
7.4536298381
  0
VERTEX
  8
___SYMBOL
 62
7
  6
CONTINUOUS
 10
20.7839263465
 20
7.4582367918
  0
VERTEX
  8
___SYMBOL
 62
7
  6
CONTINUOUS
 10
20.7776384718
 20
7.4623465785
  0
VERTEX
  8
___SYMBOL
 62
7
  6
CONTINUOUS
 10
20.7710526888
 20
7.4659445291
  0
VERTEX
  8
___SYMBOL
 62
7
  6
CONTINUOUS
 10
20.7641925044
 20
7.4690178012
  0
VERTEX
  8
___SYMBOL
 62
7
  6
CONTINUOUS
 10
20.7570824048
 20
7.4715554253
  0
VERTEX
  8
___SYMBOL
 62
7
  6
CONTINUOUS
 10
20.7497477683
 20
7.4735483439
  0
VERTEX
  8
___SYMBOL
 62
7
  6
CONTINUOUS
 10
20.7422147747
 20
7.4749894434
  0
VERTEX
  8
___SYMBOL
 62
7
  6
CONTINUOUS
 10
20.7345103118
 20
7.4758735802
  0
VERTEX
  8
___SYMBOL
 62
7
  6
CONTINUOUS
 10
20.7266618794
 20
7.4761975985
  0
VERTEX
  8
___SYMBOL
 62
7
  6
CONTINUOUS
 10
20.7186974911
 20
7.4759603417
  0
VERTEX
  8
___SYMBOL
 62
7
  6
CONTINUOUS
 10
20.7106455744
 20
7.4751626567
  0
VERTEX
  8
___SYMBOL
 62
7
  6
CONTINUOUS
 10
20.7025348694
 20
7.4738073906
  0
VERTEX
  8
___SYMBOL
 62
7
  6
CONTINUOUS
 10
20.6943943259
 20
7.471899381
  0
VERTEX
  8
___SYMBOL
 62
7
  6
CONTINUOUS
 10
20.6862530001
 20
7.469445438
  0
VERTEX
  8
___SYMBOL
 62
7
  6
CONTINUOUS
 10
20.6781399512
 20
7.4664543207
  0
VERTEX
  8
___SYMBOL
 62
7
  6
CONTINUOUS
 10
20.6700841373
 20
7.4629367053
  0
VERTEX
  8
___SYMBOL
 62
7
  6
CONTINUOUS
 10
20.6621143123
 20
7.4589051474
  0
VERTEX
  8
___SYMBOL
 62
7
  6
CONTINUOUS
 10
20.6542589232
 20
7.454374037
  0
VERTEX
  8
___SYMBOL
 62
7
  6
CONTINUOUS
 10
20.6465460085
 20
7.4493595471
  0
VERTEX
  8
___SYMBOL
 62
7
  6
CONTINUOUS
 10
20.639003098
 20
7.443879576
  0
VERTEX
  8
___SYMBOL
 62
7
  6
CONTINUOUS
 10
20.6316571151
 20
7.4379536836
  0
VERTEX
  8
___SYMBOL
 62
7
  6
CONTINUOUS
 10
20.6245342799
 20
7.4316030214
  0
VERTEX
  8
___SYMBOL
 62
7
  6
CONTINUOUS
 10
20.6176600163
 20
7.4248502571
  0
VERTEX
  8
___SYMBOL
 62
7
  6
CONTINUOUS
 10
20.6110588606
 20
7.4177194934
  0
VERTEX
  8
___SYMBOL
 62
7
  6
CONTINUOUS
 10
20.6047543748
 20
7.4102361825
  0
VERTEX
  8
___SYMBOL
 62
7
  6
CONTINUOUS
 10
20.5987690615
 20
7.4024270347
  0
SEQEND
  0
ENDBLK
  8
0
  6
BYBLOCK
 62
0
  0
BLOCK
  8
0
  2
_FILLED
 70
64
 10
0.0
 20
0.0
  0
SOLID
  8
0
  6
BYBLOCK
 62
0
 10
0.0
 20
0.0
 11
-1.0
 21
0.2933333333
 12
-1.0
 22
-0.2933333333
 13
-1.0
 23
-0.2933333333
  0
ENDBLK
  8
0
  6
BYBLOCK
 62
0
  0
BLOCK
  8
0
 62
2
  6
CONTINUOUS
  2
*D0
 70
65
 10
0.0
 20
0.0
  0
TEXT
  8
0
 62
2
  6
CONTINUOUS
 10
13.2499782413
 20
9.1209599809
  7
STANDARD
 40
0.15625
  1
13-3/4
 41
0.8
 72
1
 11
13.6249782413
 21
9.1209599809
  0
TEXT
  8
0
 62
2
  6
CONTINUOUS
 10
13.2499782413
 20
8.8865849809
  7
STANDARD
 40
0.15625
  1
[
 41
0.8
 72
1
 11
13.3124782413
 21
8.8865849809
  0
TEXT
  8
0
 62
2
  6
CONTINUOUS
 10
13.3749782413
 20
8.8865849809
  7
STANDARD
 40
0.15625
  1
34,9
 41
0.8
 72
1
 11
13.6249782413
 21
8.8865849809
  0
TEXT
  8
0
 62
2
  6
CONTINUOUS
 10
13.8749782413
 20
8.8865849809
  7
STANDARD
 40
0.15625
  1
]
 41
0.8
 72
1
 11
13.9374782413
 21
8.8865849809
  0
LINE
  8
0
 62
2
  6
CONTINUOUS
 10
12.6119820665
 20
16.6177218629
 11
13.7499782413
 21
16.6177218629
  0
LINE
  8
0
 62
2
  6
CONTINUOUS
 10
12.6345988106
 20
2.8665486398
 11
13.7499782413
 21
2.8665486398
  0
LINE
  8
0
 62
2
  6
CONTINUOUS
 10
13.6249782413
 20
16.6177218629
 11
13.6249782413
 21
9.3553349809
  0
LINE
  8
0
 62
2
  6
CONTINUOUS
 10
13.6249782413
 20
2.8665486398
 11
13.6249782413
 21
8.8084599809
  0
INSERT
  8
0
 62
2
  6
CONTINUOUS
  2
_FILLED
 10
13.6249782413
 20
16.6177218629
 41
0.1875
 42
0.1875
 43
0.1875
 50
90.0
  0
INSERT
  8
0
 62
2
  6
CONTINUOUS
  2
_FILLED
 10
13.6249782413
 20
2.8665486398
 41
0.1875
 42
0.1875
 43
0.1875
 50
270.0
  0
ENDBLK
  8
0
  6
BYBLOCK
 62
0
  0
BLOCK
  8
0
 62
2
  6
CONTINUOUS
  2
*D1
 70
65
 10
0.0
 20
0.0
  0
TEXT
  8
0
 62
2
  6
CONTINUOUS
 10
14.5376676545
 20
10.488453177
  7
STANDARD
 40
0.15625
  1
16-3/4
 41
0.8
 72
1
 11
14.9126676545
 21
10.488453177
  0
TEXT
  8
0
 62
2
  6
CONTINUOUS
 10
14.5376676545
 20
10.254078177
  7
STANDARD
 40
0.15625
  1
[
 41
0.8
 72
1
 11
14.6001676545
 21
10.254078177
  0
TEXT
  8
0
 62
2
  6
CONTINUOUS
 10
14.6626676545
 20
10.254078177
  7
STANDARD
 40
0.15625
  1
42,5
 41
0.8
 72
1
 11
14.9126676545
 21
10.254078177
  0
TEXT
  8
0
 62
2
  6
CONTINUOUS
 10
15.1626676545
 20
10.254078177
  7
STANDARD
 40
0.15625
  1
]
 41
0.8
 72
1
 11
15.2251676545
 21
10.254078177
  0
LINE
  8
0
 62
2
  6
CONTINUOUS
 10
20.935250188
 20
9.7728563138
 11
20.935250188
 21
10.691578177
  0
LINE
  8
0
 62
2
  6
CONTINUOUS
 10
4.1846381019
 20
9.8046117675
 11
4.1846381019
 21
10.691578177
  0
LINE
  8
0
 62
2
  6
CONTINUOUS
 10
20.935250188
 20
10.566578177
 11
15.3657926545
 21
10.566578177
  0
LINE
  8
0
 62
2
  6
CONTINUOUS
 10
4.1846381019
 20
10.566578177
 11
14.4595426545
 21
10.566578177
  0
INSERT
  8
0
 62
2
  6
CONTINUOUS
  2
_FILLED
 10
20.935250188
 20
10.566578177
 41
0.1875
 42
0.1875
 43
0.1875
  0
INSERT
  8
0
 62
2
  6
CONTINUOUS
  2
_FILLED
 10
4.1846381019
 20
10.566578177
 41
0.1875
 42
0.1875
 43
0.1875
 50
180.0
  0
ENDBLK
  8
0
  6
BYBLOCK
 62
0
  0
BLOCK
  8
0
 62
2
  6
CONTINUOUS
  2
*D2
 70
65
 10
0.0
 20
0.0
  0
TEXT
  8
0
 62
2
  6
CONTINUOUS
 10
2.7503179903
 20
17.7895968152
  7
STANDARD
 40
0.15625
  1
2-1/2
 41
0.8
 72
1
 11
3.0628179903
 21
17.7895968152
  0
TEXT
  8
0
 62
2
  6
CONTINUOUS
 10
2.7503179903
 20
17.5552218152
  7
STANDARD
 40
0.15625
  1
[
 41
0.8
 72
1
 11
2.8128179903
 21
17.5552218152
  0
TEXT
  8
0
 62
2
  6
CONTINUOUS
 10
2.8753179903
 20
17.5552218152
  7
STANDARD
 40
0.15625
  1
6,4
 41
0.8
 72
1
 11
3.0628179903
 21
17.5552218152
  0
TEXT
  8
0
 62
2
  6
CONTINUOUS
 10
3.2503179903
 20
17.5552218152
  7
STANDARD
 40
0.15625
  1
]
 41
0.8
 72
1
 11
3.3128179903
 21
17.5552218152
  0
LINE
  8
0
 62
2
  6
CONTINUOUS
 10
12.4869820665
 20
16.6177218629
 11
2.9378179903
 21
16.6177218629
  0
LINE
  8
0
 62
2
  6
CONTINUOUS
 10
3.0628179903
 20
19.1177217675
 11
3.0628179903
 21
18.0239718152
  0
LINE
  8
0
 62
2
  6
CONTINUOUS
 10
3.0628179903
 20
16.6177218629
 11
3.0628179903
 21
17.4770968152
  0
INSERT
  8
0
 62
2
  6
CONTINUOUS
  2
_FILLED
 10
3.0628179903
 20
19.1177217675
 41
0.1875
 42
0.1875
 43
0.1875
 50
90.0
  0
INSERT
  8
0
 62
2
  6
CONTINUOUS
  2
_FILLED
 10
3.0628179903
 20
16.6177218629
 41
0.1875
 42
0.1875
 43
0.1875
 50
270.0
  0
ENDBLK
  8
0
  6
BYBLOCK
 62
0
  0
BLOCK
  8
0
 62
2
  6
CONTINUOUS
  2
*D3
 70
65
 10
0.0
 20
0.0
  0
TEXT
  8
0
 62
2
  6
CONTINUOUS
 10
2.5628179903
 20
20.0395967675
  7
STANDARD
 40
0.15625
  1
2
 41
0.8
 72
1
 11
2.6253179903
 21
20.0395967675
  0
TEXT
  8
0
 62
2
  6
CONTINUOUS
 10
3.1878179903
 20
20.0395967675
  7
STANDARD
 40
0.15625
  1
MIN
 41
0.8
 72
1
 11
3.3753179903
 21
20.0395967675
  0
TEXT
  8
0
 62
2
  6
CONTINUOUS
 10
2.5628179903
 20
19.8052217675
  7
STANDARD
 40
0.15625
  1
[
 41
0.8
 72
1
 11
2.6253179903
 21
19.8052217675
  0
TEXT
  8
0
 62
2
  6
CONTINUOUS
 10
2.6878179903
 20
19.8052217675
  7
STANDARD
 40
0.15625
  1
5,1
 41
0.8
 72
1
 11
2.8753179903
 21
19.8052217675
  0
TEXT
  8
0
 62
2
  6
CONTINUOUS
 10
3.0628179903
 20
19.8052217675
  7
STANDARD
 40
0.15625
  1
]
 41
0.8
 72
1
 11
3.1253179903
 21
19.8052217675
  0
LINE
  8
0
 62
2
  6
CONTINUOUS
 10
3.0628179903
 20
19.1177217675
 11
3.0628179903
 21
19.7270967675
  0
LINE
  8
0
 62
2
  6
CONTINUOUS
 10
3.0628179903
 20
21.1177217675
 11
3.0628179903
 21
20.2739717675
  0
INSERT
  8
0
 62
2
  6
CONTINUOUS
  2
_FILLED
 10
3.0628179903
 20
19.1177217675
 41
0.1875
 42
0.1875
 43
0.1875
 50
270.0
  0
INSERT
  8
0
 62
2
  6
CONTINUOUS
  2
_FILLED
 10
3.0628179903
 20
21.1177217675
 41
0.1875
 42
0.1875
 43
0.1875
 50
90.0
  0
ENDBLK
  8
0
  6
BYBLOCK
 62
0
  0
ENDSEC
  0
SECTION
  2
ENTITIES
  0
SOLID
  8
DRAFT_ENT
 62
2
  6
CONTINUOUS
 10
7.9728106402
 20
14.6672563751
 11
8.0589132608
 21
14.7696446381
 12
8.1789519163
 22
14.7696446381
 13
8.1789519163
 23
14.7696446381
  0
SOLID
  8
DRAFT_ENT
 62
2
  6
CONTINUOUS
 10
8.1789519163
 20
14.7696446381
 11
8.0456372334
 21
14.6111144373
 12
7.9728106402
 22
14.6672563751
 13
7.9728106402
 23
14.6672563751
  0
SOLID
  8
DRAFT_ENT
 62
2
  6
CONTINUOUS
 10
7.9728106402
 20
14.5293859577
 11
8.0456372334
 21
14.6111144373
 12
8.0688968711
 22
14.4034485374
 13
8.0688968711
 23
14.4034485374
  0
SOLID
  8
DRAFT_ENT
 62
2
  6
CONTINUOUS
 10
8.0456372334
 20
14.6111144373
 11
8.2040796603
 21
14.4034485374
 12
8.0688968711
 22
14.4034485374
 13
8.0688968711
 23
14.4034485374
  0
SOLID
  8
DRAFT_ENT
 62
2
  6
CONTINUOUS
 10
7.9728106402
 20
14.4034485374
 11
7.8637479775
 21
14.4034335352
 12
7.9728106402
 22
14.5293859577
 13
7.9728106402
 23
14.5293859577
  0
SOLID
  8
DRAFT_ENT
 62
2
  6
CONTINUOUS
 10
8.0456372334
 20
14.6111144373
 11
7.9728106402
 21
14.5293859577
 12
7.9728106402
 22
14.6672563751
 13
7.9728106402
 23
14.6672563751
  0
SOLID
  8
DRAFT_ENT
 62
2
  6
CONTINUOUS
 10
7.9728106402
 20
14.5293859577
 11
7.8637479775
 21
14.4034335352
 12
7.9728106402
 22
14.6672563751
 13
7.9728106402
 23
14.6672563751
  0
SOLID
  8
DRAFT_ENT
 62
2
  6
CONTINUOUS
 10
7.9728106402
 20
14.6672563751
 11
7.8637479775
 21
14.4034335352
 12
7.9728106402
 22
14.7696446381
 13
7.9728106402
 23
14.7696446381
  0
SOLID
  8
DRAFT_ENT
 62
2
  6
CONTINUOUS
 10
7.8637479775
 20
14.4034335352
 11
7.8637479775
 21
14.7696446381
 12
7.9728106402
 22
14.7696446381
 13
7.9728106402
 23
14.7696446381
  0
SOLID
  8
DRAFT_ENT
 62
2
  6
CONTINUOUS
 10
8.2568323484
 20
14.7630137535
 11
8.2949255772
 21
14.7711107192
 12
8.3338698314
 22
14.7711107192
 13
8.3338698314
 23
14.7711107192
  0
SOLID
  8
DRAFT_ENT
 62
2
  6
CONTINUOUS
 10
8.3338698314
 20
14.7711107192
 11
8.3719630602
 21
14.7630137535
 12
8.2568323484
 22
14.7630137535
 13
8.2568323484
 23
14.7630137535
  0
SOLID
  8
DRAFT_ENT
 62
2
  6
CONTINUOUS
 10
8.2212550018
 20
14.7471736983
 11
8.2568323484
 21
14.7630137535
 12
8.3719630602
 22
14.7630137535
 13
8.3719630602
 23
14.7630137535
  0
SOLID
  8
DRAFT_ENT
 62
2
  6
CONTINUOUS
 10
8.3719630602
 20
14.7630137535
 11
8.4075404067
 21
14.7471736983
 12
8.2212550018
 22
14.7471736983
 13
8.2212550018
 23
14.7471736983
  0
SOLID
  8
DRAFT_ENT
 62
2
  6
CONTINUOUS
 10
8.1897484383
 20
14.72428284
 11
8.2212550018
 21
14.7471736983
 12
8.4075404067
 22
14.7471736983
 13
8.4075404067
 23
14.7471736983
  0
SOLID
  8
DRAFT_ENT
 62
2
  6
CONTINUOUS
 10
8.4075404067
 20
14.7471736983
 11
8.4390469702
 21
14.72428284
 12
8.1897484383
 22
14.72428284
 13
8.1897484383
 23
14.72428284
  0
SOLID
  8
DRAFT_ENT
 62
2
  6
CONTINUOUS
 10
8.1636896459
 20
14.695341619
 11
8.1897484383
 21
14.72428284
 12
8.4390469702
 22
14.72428284
 13
8.4390469702
 23
14.72428284
  0
SOLID
  8
DRAFT_ENT
 62
2
  6
CONTINUOUS
 10
8.4390469702
 20
14.72428284
 11
8.4651057627
 21
14.695341619
 12
8.1636896459
 22
14.695341619
 13
8.1636896459
 23
14.695341619
  0
SOLID
  8
DRAFT_ENT
 62
2
  6
CONTINUOUS
 10
8.3143977043
 20
14.6638267045
 11
8.1442175188
 21
14.6616149055
 12
8.4651057627
 22
14.695341619
 13
8.4651057627
 23
14.695341619
  0
SOLID
  8
DRAFT_ENT
 62
2
  6
CONTINUOUS
 10
8.1442175188
 20
14.6616149055
 11
8.1636896459
 21
14.695341619
 12
8.4651057627
 22
14.695341619
 13
8.4651057627
 23
14.695341619
  0
SOLID
  8
DRAFT_ENT
 62
2
  6
CONTINUOUS
 10
8.4651057627
 20
14.695341619
 11
8.4845778898
 21
14.6616149055
 12
8.3143977043
 22
14.6638267045
 13
8.3143977043
 23
14.6638267045
  0
SOLID
  8
DRAFT_ENT
 62
2
  6
CONTINUOUS
 10
8.3143977043
 20
14.6638267045
 11
8.2903002812
 21
14.6600100477
 12
8.1442175188
 22
14.6616149055
 13
8.1442175188
 23
14.6616149055
  0
SOLID
  8
DRAFT_ENT
 62
2
  6
CONTINUOUS
 10
8.3384951274
 20
14.6600100477
 11
8.3143977043
 21
14.6638267045
 12
8.4845778898
 22
14.6616149055
 13
8.4845778898
 23
14.6616149055
  0
SOLID
  8
DRAFT_ENT
 62
2
  6
CONTINUOUS
 10
8.2513098315
 20
14.6316818278
 11
8.1321830824
 21
14.6245767187
 12
8.2685616817
 22
14.648933678
 13
8.2685616817
 23
14.648933678
  0
SOLID
  8
DRAFT_ENT
 62
2
  6
CONTINUOUS
 10
8.2685616817
 20
14.648933678
 11
8.1321830824
 21
14.6245767187
 12
8.2903002812
 22
14.6600100477
 13
8.2903002812
 23
14.6600100477
  0
SOLID
  8
DRAFT_ENT
 62
2
  6
CONTINUOUS
 10
8.1321830824
 20
14.6245767187
 11
8.1442175188
 21
14.6616149055
 12
8.2903002812
 22
14.6600100477
 13
8.2903002812
 23
14.6600100477
  0
SOLID
  8
DRAFT_ENT
 62
2
  6
CONTINUOUS
 10
8.3384951274
 20
14.6600100477
 11
8.4845778898
 21
14.6616149055
 12
8.3602337269
 22
14.648933678
 13
8.3602337269
 23
14.648933678
  0
SOLID
  8
DRAFT_ENT
 62
2
  6
CONTINUOUS
 10
8.3602337269
 20
14.648933678
 11
8.4845778898
 21
14.6616149055
 12
8.3774855771
 22
14.6316818278
 13
8.3774855771
 23
14.6316818278
  0
SOLID
  8
DRAFT_ENT
 62
2
  6
CONTINUOUS
 10
8.4845778898
 20
14.6616149055
 11
8.4966123262
 21
14.6245767187
 12
8.3774855771
 22
14.6316818278
 13
8.3774855771
 23
14.6316818278
  0
SOLID
  8
DRAFT_ENT
 62
2
  6
CONTINUOUS
 10
8.2513098315
 20
14.6316818278
 11
8.2402334619
 21
14.6099432284
 12
8.1321830824
 22
14.6245767187
 13
8.1321830824
 23
14.6245767187
  0
SOLID
  8
DRAFT_ENT
 62
2
  6
CONTINUOUS
 10
8.3885619467
 20
14.6099432284
 11
8.3774855771
 21
14.6316818278
 12
8.4966123262
 22
14.6245767187
 13
8.4966123262
 23
14.6245767187
  0
SOLID
  8
DRAFT_ENT
 62
2
  6
CONTINUOUS
 10
8.1281122994
 20
14.5858458052
 11
8.1321830824
 21
14.6245767187
 12
8.2402334619
 22
14.6099432284
 13
8.2402334619
 23
14.6099432284
  0
SOLID
  8
DRAFT_ENT
 62
2
  6
CONTINUOUS
 10
8.2402334619
 20
14.6099432284
 11
8.236416805
 21
14.5858458052
 12
8.1281122994
 22
14.5858458052
 13
8.1281122994
 23
14.5858458052
  0
SOLID
  8
DRAFT_ENT
 62
2
  6
CONTINUOUS
 10
8.3885619467
 20
14.6099432284
 11
8.4966123262
 21
14.6245767187
 12
8.3923786036
 22
14.5858458052
 13
8.3923786036
 23
14.5858458052
  0
SOLID
  8
DRAFT_ENT
 62
2
  6
CONTINUOUS
 10
8.4966123262
 20
14.6245767187
 11
8.5006831092
 21
14.5858458052
 12
8.3923786036
 22
14.5858458052
 13
8.3923786036
 23
14.5858458052
  0
SOLID
  8
DRAFT_ENT
 62
2
  6
CONTINUOUS
 10
8.3885619467
 20
14.5617483821
 11
8.3923786036
 21
14.5858458052
 12
8.5006831092
 22
14.5858458052
 13
8.5006831092
 23
14.5858458052
  0
SOLID
  8
DRAFT_ENT
 62
2
  6
CONTINUOUS
 10
8.2402334619
 20
14.5617483821
 11
8.1321830824
 21
14.5471148917
 12
8.236416805
 22
14.5858458052
 13
8.236416805
 23
14.5858458052
  0
SOLID
  8
DRAFT_ENT
 62
2
  6
CONTINUOUS
 10
8.1321830824
 20
14.5471148917
 11
8.1281122994
 21
14.5858458052
 12
8.236416805
 22
14.5858458052
 13
8.236416805
 23
14.5858458052
  0
SOLID
  8
DRAFT_ENT
 62
2
  6
CONTINUOUS
 10
8.5006831092
 20
14.5858458052
 11
8.4966123262
 21
14.5471148917
 12
8.3885619467
 22
14.5617483821
 13
8.3885619467
 23
14.5617483821
  0
SOLID
  8
DRAFT_ENT
 62
2
  6
CONTINUOUS
 10
8.2402334619
 20
14.5617483821
 11
8.2513098315
 21
14.5400097827
 12
8.1321830824
 22
14.5471148917
 13
8.1321830824
 23
14.5471148917
  0
SOLID
  8
DRAFT_ENT
 62
2
  6
CONTINUOUS
 10
8.3774855771
 20
14.5400097827
 11
8.3885619467
 21
14.5617483821
 12
8.4966123262
 22
14.5471148917
 13
8.4966123262
 23
14.5471148917
  0
SOLID
  8
DRAFT_ENT
 62
2
  6
CONTINUOUS
 10
8.2903002812
 20
14.5116815628
 11
8.1442175188
 21
14.510076705
 12
8.2685616817
 22
14.5227579325
 13
8.2685616817
 23
14.5227579325
  0
SOLID
  8
DRAFT_ENT
 62
2
  6
CONTINUOUS
 10
8.2685616817
 20
14.5227579325
 11
8.1442175188
 21
14.510076705
 12
8.2513098315
 22
14.5400097827
 13
8.2513098315
 23
14.5400097827
  0
SOLID
  8
DRAFT_ENT
 62
2
  6
CONTINUOUS
 10
8.1442175188
 20
14.510076705
 11
8.1321830824
 21
14.5471148917
 12
8.2513098315
 22
14.5400097827
 13
8.2513098315
 23
14.5400097827
  0
SOLID
  8
DRAFT_ENT
 62
2
  6
CONTINUOUS
 10
8.3774855771
 20
14.5400097827
 11
8.4966123262
 21
14.5471148917
 12
8.3602337269
 22
14.5227579325
 13
8.3602337269
 23
14.5227579325
  0
SOLID
  8
DRAFT_ENT
 62
2
  6
CONTINUOUS
 10
8.3602337269
 20
14.5227579325
 11
8.4966123262
 21
14.5471148917
 12
8.3384951274
 22
14.5116815628
 13
8.3384951274
 23
14.5116815628
  0
SOLID
  8
DRAFT_ENT
 62
2
  6
CONTINUOUS
 10
8.4966123262
 20
14.5471148917
 11
8.4845778898
 21
14.510076705
 12
8.3384951274
 22
14.5116815628
 13
8.3384951274
 23
14.5116815628
  0
SOLID
  8
DRAFT_ENT
 62
2
  6
CONTINUOUS
 10
8.2903002812
 20
14.5116815628
 11
8.3143977043
 21
14.5078649059
 12
8.1442175188
 22
14.510076705
 13
8.1442175188
 23
14.510076705
  0
SOLID
  8
DRAFT_ENT
 62
2
  6
CONTINUOUS
 10
8.3143977043
 20
14.5078649059
 11
8.3384951274
 21
14.5116815628
 12
8.4845778898
 22
14.510076705
 13
8.4845778898
 23
14.510076705
  0
SOLID
  8
DRAFT_ENT
 62
2
  6
CONTINUOUS
 10
8.1636896459
 20
14.4763499915
 11
8.1442175188
 21
14.510076705
 12
8.3143977043
 22
14.5078649059
 13
8.3143977043
 23
14.5078649059
  0
SOLID
  8
DRAFT_ENT
 62
2
  6
CONTINUOUS
 10
8.3143977043
 20
14.5078649059
 11
8.4845778898
 21
14.510076705
 12
8.1636896459
 22
14.4763499915
 13
8.1636896459
 23
14.4763499915
  0
SOLID
  8
DRAFT_ENT
 62
2
  6
CONTINUOUS
 10
8.4845778898
 20
14.510076705
 11
8.4651057627
 21
14.4763499915
 12
8.1636896459
 22
14.4763499915
 13
8.1636896459
 23
14.4763499915
  0
SOLID
  8
DRAFT_ENT
 62
2
  6
CONTINUOUS
 10
8.1897484383
 20
14.4474087705
 11
8.1636896459
 21
14.4763499915
 12
8.4651057627
 22
14.4763499915
 13
8.4651057627
 23
14.4763499915
  0
SOLID
  8
DRAFT_ENT
 62
2
  6
CONTINUOUS
 10
8.4651057627
 20
14.4763499915
 11
8.4390469702
 21
14.4474087705
 12
8.1897484383
 22
14.4474087705
 13
8.1897484383
 23
14.4474087705
  0
SOLID
  8
DRAFT_ENT
 62
2
  6
CONTINUOUS
 10
8.2212550018
 20
14.4245179122
 11
8.1897484383
 21
14.4474087705
 12
8.4390469702
 22
14.4474087705
 13
8.4390469702
 23
14.4474087705
  0
SOLID
  8
DRAFT_ENT
 62
2
  6
CONTINUOUS
 10
8.4390469702
 20
14.4474087705
 11
8.4075404067
 21
14.4245179122
 12
8.2212550018
 22
14.4245179122
 13
8.2212550018
 23
14.4245179122
  0
SOLID
  8
DRAFT_ENT
 62
2
  6
CONTINUOUS
 10
8.2568323484
 20
14.408677857
 11
8.2212550018
 21
14.4245179122
 12
8.4075404067
 22
14.4245179122
 13
8.4075404067
 23
14.4245179122
  0
SOLID
  8
DRAFT_ENT
 62
2
  6
CONTINUOUS
 10
8.4075404067
 20
14.4245179122
 11
8.3719630602
 21
14.408677857
 12
8.2568323484
 22
14.408677857
 13
8.2568323484
 23
14.408677857
  0
SOLID
  8
DRAFT_ENT
 62
2
  6
CONTINUOUS
 10
8.2949255772
 20
14.4005808913
 11
8.2568323484
 21
14.408677857
 12
8.3719630602
 22
14.408677857
 13
8.3719630602
 23
14.408677857
  0
SOLID
  8
DRAFT_ENT
 62
2
  6
CONTINUOUS
 10
8.3719630602
 20
14.408677857
 11
8.3338698314
 21
14.4005808913
 12
8.2949255772
 22
14.4005808913
 13
8.2949255772
 23
14.4005808913
  0
SOLID
  8
DRAFT_ENT
 62
2
  6
CONTINUOUS
 10
8.706836735
 20
14.6319047621
 11
8.706836735
 21
14.7696446381
 12
8.8097953046
 22
14.7696446381
 13
8.8097953046
 23
14.7696446381
  0
SOLID
  8
DRAFT_ENT
 62
2
  6
CONTINUOUS
 10
8.706836735
 20
14.6319047621
 11
8.6143387104
 21
14.5461514458
 12
8.6143387104
 22
14.6319047621
 13
8.6143387104
 23
14.6319047621
  0
SOLID
  8
DRAFT_ENT
 62
2
  6
CONTINUOUS
 10
8.6143387104
 20
14.5461514458
 11
8.5113801409
 21
14.4034485374
 12
8.6143387104
 22
14.6319047621
 13
8.6143387104
 23
14.6319047621
  0
SOLID
  8
DRAFT_ENT
 62
2
  6
CONTINUOUS
 10
8.6143387104
 20
14.6319047621
 11
8.5113801409
 21
14.4034485374
 12
8.6143387104
 22
14.7696446381
 13
8.6143387104
 23
14.7696446381
  0
SOLID
  8
DRAFT_ENT
 62
2
  6
CONTINUOUS
 10
8.5113801409
 20
14.4034485374
 11
8.5113801409
 21
14.7696446381
 12
8.6143387104
 22
14.7696446381
 13
8.6143387104
 23
14.7696446381
  0
SOLID
  8
DRAFT_ENT
 62
2
  6
CONTINUOUS
 10
8.6143387104
 20
14.5461514458
 11
8.6143387104
 21
14.4034485374
 12
8.5113801409
 22
14.4034485374
 13
8.5113801409
 23
14.4034485374
  0
SOLID
  8
DRAFT_ENT
 62
2
  6
CONTINUOUS
 10
8.6143387104
 20
14.5461514458
 11
8.706836735
 21
14.6319047621
 12
8.706836735
 22
14.5461514458
 13
8.706836735
 23
14.5461514458
  0
SOLID
  8
DRAFT_ENT
 62
2
  6
CONTINUOUS
 10
8.706836735
 20
14.6319047621
 11
8.8097953046
 21
14.7696446381
 12
8.706836735
 22
14.5461514458
 13
8.706836735
 23
14.5461514458
  0
SOLID
  8
DRAFT_ENT
 62
2
  6
CONTINUOUS
 10
8.706836735
 20
14.5461514458
 11
8.8097953046
 21
14.7696446381
 12
8.706836735
 22
14.4034485374
 13
8.706836735
 23
14.4034485374
  0
SOLID
  8
DRAFT_ENT
 62
2
  6
CONTINUOUS
 10
8.8097953046
 20
14.7696446381
 11
8.8097953046
 21
14.4034485374
 12
8.706836735
 22
14.4034485374
 13
8.706836735
 23
14.4034485374
  0
SOLID
  8
DRAFT_ENT
 62
2
  6
CONTINUOUS
 10
9.0334047078
 20
14.4917152775
 11
8.8379483376
 21
14.4034485374
 12
8.9317271447
 22
14.4917152775
 13
8.9317271447
 23
14.4917152775
  0
SOLID
  8
DRAFT_ENT
 62
2
  6
CONTINUOUS
 10
8.9317271447
 20
14.4917152775
 11
8.8379483376
 21
14.4034485374
 12
8.9317271447
 22
14.7696446381
 13
8.9317271447
 23
14.7696446381
  0
SOLID
  8
DRAFT_ENT
 62
2
  6
CONTINUOUS
 10
8.8379483376
 20
14.4034485374
 11
8.8379483376
 21
14.7696446381
 12
8.9317271447
 22
14.7696446381
 13
8.9317271447
 23
14.7696446381
  0
SOLID
  8
DRAFT_ENT
 62
2
  6
CONTINUOUS
 10
8.8379483376
 20
14.4034485374
 11
9.0334047078
 21
14.4917152775
 12
8.9317271447
 22
14.4034485374
 13
8.9317271447
 23
14.4034485374
  0
SOLID
  8
DRAFT_ENT
 62
2
  6
CONTINUOUS
 10
9.0334047078
 20
14.4917152775
 11
9.0334047078
 21
14.4034485374
 12
8.9317271447
 22
14.4034485374
 13
8.9317271447
 23
14.4034485374
  0
SOLID
  8
DRAFT_ENT
 62
2
  6
CONTINUOUS
 10
9.2448121944
 20
14.7696446381
 11
9.2448121944
 21
14.6804199981
 12
9.1505262243
 22
14.6804199981
 13
9.1505262243
 23
14.6804199981
  0
SOLID
  8
DRAFT_ENT
 62
2
  6
CONTINUOUS
 10
9.2448121944
 20
14.6319047621
 11
9.2448121944
 21
14.5416662439
 12
9.1505262243
 22
14.5416662439
 13
9.1505262243
 23
14.5416662439
  0
SOLID
  8
DRAFT_ENT
 62
2
  6
CONTINUOUS
 10
9.2448121944
 20
14.4917152775
 11
9.051622048
 21
14.4034485374
 12
9.1505262243
 22
14.4917152775
 13
9.1505262243
 23
14.4917152775
  0
SOLID
  8
DRAFT_ENT
 62
2
  6
CONTINUOUS
 10
9.1505262243
 20
14.4917152775
 11
9.051622048
 21
14.4034485374
 12
9.1505262243
 22
14.5416662439
 13
9.1505262243
 23
14.5416662439
  0
SOLID
  8
DRAFT_ENT
 62
2
  6
CONTINUOUS
 10
9.2448121944
 20
14.6319047621
 11
9.1505262243
 21
14.5416662439
 12
9.1505262243
 22
14.6319047621
 13
9.1505262243
 23
14.6319047621
  0
SOLID
  8
DRAFT_ENT
 62
2
  6
CONTINUOUS
 10
9.1505262243
 20
14.5416662439
 11
9.051622048
 21
14.4034485374
 12
9.1505262243
 22
14.6319047621
 13
9.1505262243
 23
14.6319047621
  0
SOLID
  8
DRAFT_ENT
 62
2
  6
CONTINUOUS
 10
9.1505262243
 20
14.6319047621
 11
9.051622048
 21
14.4034485374
 12
9.1505262243
 22
14.6804199981
 13
9.1505262243
 23
14.6804199981
  0
SOLID
  8
DRAFT_ENT
 62
2
  6
CONTINUOUS
 10
9.2448121944
 20
14.7696446381
 11
9.1505262243
 21
14.6804199981
 12
9.1594039281
 22
14.7696446381
 13
9.1594039281
 23
14.7696446381
  0
SOLID
  8
DRAFT_ENT
 62
2
  6
CONTINUOUS
 10
9.1505262243
 20
14.6804199981
 11
9.051622048
 21
14.4034485374
 12
9.1594039281
 22
14.7696446381
 13
9.1594039281
 23
14.7696446381
  0
SOLID
  8
DRAFT_ENT
 62
2
  6
CONTINUOUS
 10
9.051622048
 20
14.4034485374
 11
9.051622048
 21
14.7696446381
 12
9.1594039281
 22
14.7696446381
 13
9.1594039281
 23
14.7696446381
  0
SOLID
  8
DRAFT_ENT
 62
2
  6
CONTINUOUS
 10
9.2448121944
 20
14.4917152775
 11
9.2448121944
 21
14.4034485374
 12
9.051622048
 22
14.4034485374
 13
9.051622048
 23
14.4034485374
  0
SOLID
  8
DRAFT_ENT
 62
2
  6
CONTINUOUS
 10
9.4187921747
 20
14.7696490792
 11
9.44812532
 21
14.7656426731
 12
9.272824834
 22
14.7696446381
 13
9.272824834
 23
14.7696446381
  0
SOLID
  8
DRAFT_ENT
 62
2
  6
CONTINUOUS
 10
9.3669847411
 20
14.6805328503
 11
9.5256971095
 21
14.6834261856
 12
9.4019409236
 22
14.6805328503
 13
9.4019409236
 23
14.6805328503
  0
SOLID
  8
DRAFT_ENT
 62
2
  6
CONTINUOUS
 10
9.4019409236
 20
14.6805328503
 11
9.5256971095
 21
14.6834261856
 12
9.41676754
 22
14.6770739944
 13
9.41676754
 23
14.6770739944
  0
SOLID
  8
DRAFT_ENT
 62
2
  6
CONTINUOUS
 10
9.41676754
 20
14.6770739944
 11
9.5256971095
 21
14.6834261856
 12
9.4285331595
 22
14.6674115707
 13
9.4285331595
 23
14.6674115707
  0
SOLID
  8
DRAFT_ENT
 62
2
  6
CONTINUOUS
 10
9.5256971095
 20
14.6834261856
 11
9.527992889
 21
14.6539098494
 12
9.4285331595
 22
14.6674115707
 13
9.4285331595
 23
14.6674115707
  0
SOLID
  8
DRAFT_ENT
 62
2
  6
CONTINUOUS
 10
9.4348087473
 20
14.6535404052
 11
9.4285331595
 21
14.6674115707
 12
9.527992889
 22
14.6539098494
 13
9.527992889
 23
14.6539098494
  0
SOLID
  8
DRAFT_ENT
 62
2
  6
CONTINUOUS
 10
9.4348087473
 20
14.6535404052
 11
9.527992889
 21
14.6539098494
 12
9.4342986961
 22
14.6383242268
 13
9.4342986961
 23
14.6383242268
  0
SOLID
  8
DRAFT_ENT
 62
2
  6
CONTINUOUS
 10
9.4342986961
 20
14.6383242268
 11
9.527992889
 21
14.6539098494
 12
9.4271083071
 22
14.6249044451
 13
9.4271083071
 23
14.6249044451
  0
SOLID
  8
DRAFT_ENT
 62
2
  6
CONTINUOUS
 10
9.527992889
 20
14.6539098494
 11
9.5222893856
 21
14.6248589501
 12
9.4271083071
 22
14.6249044451
 13
9.4271083071
 23
14.6249044451
  0
SOLID
  8
DRAFT_ENT
 62
2
  6
CONTINUOUS
 10
9.4147220498
 20
14.6160516
 11
9.4271083071
 21
14.6249044451
 12
9.5222893856
 22
14.6248589501
 13
9.5222893856
 23
14.6248589501
  0
SOLID
  8
DRAFT_ENT
 62
2
  6
CONTINUOUS
 10
9.4147220498
 20
14.6160516
 11
9.5222893856
 21
14.6248589501
 12
9.3996970912
 22
14.6135933785
 13
9.3996970912
 23
14.6135933785
  0
SOLID
  8
DRAFT_ENT
 62
2
  6
CONTINUOUS
 10
9.5222893856
 20
14.6248589501
 11
9.5090043983
 21
14.5984015539
 12
9.3996970912
 22
14.6135933785
 13
9.3996970912
 23
14.6135933785
  0
SOLID
  8
DRAFT_ENT
 62
2
  6
CONTINUOUS
 10
9.4640667132
 20
14.5606876557
 11
9.3669847411
 21
14.5265462927
 12
9.4891110925
 22
14.5764757451
 13
9.4891110925
 23
14.5764757451
  0
SOLID
  8
DRAFT_ENT
 62
2
  6
CONTINUOUS
 10
9.4891110925
 20
14.5764757451
 11
9.3669847411
 21
14.5265462927
 12
9.5090043983
 22
14.5984015539
 13
9.5090043983
 23
14.5984015539
  0
SOLID
  8
DRAFT_ENT
 62
2
  6
CONTINUOUS
 10
9.5090043983
 20
14.5984015539
 11
9.3669847411
 21
14.5265462927
 12
9.3996970912
 22
14.6135933785
 13
9.3996970912
 23
14.6135933785
  0
SOLID
  8
DRAFT_ENT
 62
2
  6
CONTINUOUS
 10
9.3669847411
 20
14.5265462927
 11
9.272824834
 21
14.4034485374
 12
9.3996970912
 22
14.6135933785
 13
9.3996970912
 23
14.6135933785
  0
SOLID
  8
DRAFT_ENT
 62
2
  6
CONTINUOUS
 10
9.3996970912
 20
14.6135933785
 11
9.272824834
 21
14.4034485374
 12
9.3669847411
 22
14.6135933785
 13
9.3669847411
 23
14.6135933785
  0
SOLID
  8
DRAFT_ENT
 62
2
  6
CONTINUOUS
 10
9.3669847411
 20
14.6135933785
 11
9.272824834
 21
14.4034485374
 12
9.3669847411
 22
14.6805328503
 13
9.3669847411
 23
14.6805328503
  0
SOLID
  8
DRAFT_ENT
 62
2
  6
CONTINUOUS
 10
9.5256971095
 20
14.6834261856
 11
9.3669847411
 21
14.6805328503
 12
9.51557022
 22
14.7112457976
 13
9.51557022
 23
14.7112457976
  0
SOLID
  8
DRAFT_ENT
 62
2
  6
CONTINUOUS
 10
9.51557022
 20
14.7112457976
 11
9.3669847411
 21
14.6805328503
 12
9.4983540458
 22
14.7353308146
 13
9.4983540458
 23
14.7353308146
  0
SOLID
  8
DRAFT_ENT
 62
2
  6
CONTINUOUS
 10
9.4983540458
 20
14.7353308146
 11
9.3669847411
 21
14.6805328503
 12
9.4753097237
 22
14.7539169364
 13
9.4753097237
 23
14.7539169364
  0
SOLID
  8
DRAFT_ENT
 62
2
  6
CONTINUOUS
 10
9.4753097237
 20
14.7539169364
 11
9.3669847411
 21
14.6805328503
 12
9.44812532
 22
14.7656426731
 13
9.44812532
 23
14.7656426731
  0
SOLID
  8
DRAFT_ENT
 62
2
  6
CONTINUOUS
 10
9.44812532
 20
14.7656426731
 11
9.3669847411
 21
14.6805328503
 12
9.272824834
 22
14.7696446381
 13
9.272824834
 23
14.7696446381
  0
SOLID
  8
DRAFT_ENT
 62
2
  6
CONTINUOUS
 10
9.272824834
 20
14.4034485374
 11
9.272824834
 21
14.7696446381
 12
9.3669847411
 22
14.6805328503
 13
9.3669847411
 23
14.6805328503
  0
SOLID
  8
DRAFT_ENT
 62
2
  6
CONTINUOUS
 10
9.3669847411
 20
14.5265462927
 11
9.3669847411
 21
14.4034485374
 12
9.272824834
 22
14.4034485374
 13
9.272824834
 23
14.4034485374
  0
SOLID
  8
DRAFT_ENT
 62
2
  6
CONTINUOUS
 10
9.3669847411
 20
14.5265462927
 11
9.4640667132
 21
14.5606876557
 12
9.4449993992
 22
14.4034485374
 13
9.4449993992
 23
14.4034485374
  0
SOLID
  8
DRAFT_ENT
 62
2
  6
CONTINUOUS
 10
9.4640667132
 20
14.5606876557
 11
9.563718759
 21
14.4034485374
 12
9.4449993992
 22
14.4034485374
 13
9.4449993992
 23
14.4034485374
  0
SOLID
  8
0
 62
2
  6
CONTINUOUS
 10
16.5912105397
 20
8.1645551739
 11
16.5840263896
 21
8.167203767
 12
16.934775761
 22
8.167203767
 13
16.934775761
 23
8.167203767
  0
SOLID
  8
0
 62
2
  6
CONTINUOUS
 10
16.934775761
 20
8.167203767
 11
16.9360173881
 21
8.1643832077
 12
16.5912105397
 22
8.1645551739
 13
16.5912105397
 23
8.1645551739
  0
SOLID
  8
0
 62
2
  6
CONTINUOUS
 10
16.937032327
 20
8.1615853876
 11
16.5980832764
 21
8.1611798612
 12
16.9360173881
 22
8.1643832077
 13
16.9360173881
 23
8.1643832077
  0
SOLID
  8
0
 62
2
  6
CONTINUOUS
 10
16.5980832764
 20
8.1611798612
 11
16.5912105397
 21
8.1645551739
 12
16.9360173881
 22
8.1643832077
 13
16.9360173881
 23
8.1643832077
  0
SOLID
  8
0
 62
2
  6
CONTINUOUS
 10
16.937032327
 20
8.1615853876
 11
16.9378205776
 21
8.1588103423
 12
16.5980832764
 22
8.1611798612
 13
16.5980832764
 23
8.1611798612
  0
SOLID
  8
0
 62
2
  6
CONTINUOUS
 10
16.6045713268
 20
8.15711385
 11
16.5980832764
 21
8.1611798612
 12
16.9378205776
 22
8.1588103423
 13
16.9378205776
 23
8.1588103423
  0
SOLID
  8
0
 62
2
  6
CONTINUOUS
 10
16.9378205776
 20
8.1588103423
 11
16.9383821398
 21
8.1560580718
 12
16.6045713268
 22
8.15711385
 13
16.6045713268
 23
8.15711385
  0
SOLID
  8
0
 62
2
  6
CONTINUOUS
 10
16.9387170137
 20
8.1533285761
 11
16.6106055193
 21
8.1524004895
 12
16.9383821398
 22
8.1560580718
 13
16.9383821398
 23
8.1560580718
  0
SOLID
  8
0
 62
2
  6
CONTINUOUS
 10
16.6106055193
 20
8.1524004895
 11
16.6045713268
 21
8.15711385
 12
16.9383821398
 22
8.1560580718
 13
16.9383821398
 23
8.1560580718
  0
SOLID
  8
0
 62
2
  6
CONTINUOUS
 10
16.9387170137
 20
8.1533285761
 11
16.9388251993
 21
8.1506218552
 12
16.6106055193
 22
8.1524004895
 13
16.6106055193
 23
8.1524004895
  0
SOLID
  8
0
 62
2
  6
CONTINUOUS
 10
16.9387066965
 20
8.1479379091
 11
16.616121521
 21
8.1470900309
 12
16.9388251993
 22
8.1506218552
 13
16.9388251993
 23
8.1506218552
  0
SOLID
  8
0
 62
2
  6
CONTINUOUS
 10
16.616121521
 20
8.1470900309
 11
16.6106055193
 21
8.1524004895
 12
16.9388251993
 22
8.1506218552
 13
16.9388251993
 23
8.1506218552
  0
SOLID
  8
0
 62
2
  6
CONTINUOUS
 10
16.9387066965
 20
8.1479379091
 11
16.9383615055
 21
8.1452767377
 12
16.616121521
 22
8.1470900309
 13
16.616121521
 23
8.1470900309
  0
SOLID
  8
0
 62
2
  6
CONTINUOUS
 10
16.9377896261
 20
8.1426383412
 11
16.6210605236
 21
8.1412390908
 12
16.9383615055
 22
8.1452767377
 13
16.9383615055
 23
8.1452767377
  0
SOLID
  8
0
 62
2
  6
CONTINUOUS
 10
16.6210605236
 20
8.1412390908
 11
16.616121521
 21
8.1470900309
 12
16.9383615055
 22
8.1452767377
 13
16.9383615055
 23
8.1452767377
  0
SOLID
  8
0
 62
2
  6
CONTINUOUS
 10
16.9377896261
 20
8.1426383412
 11
16.9370658015
 21
8.1402384684
 12
16.6210605236
 22
8.1412390908
 13
16.6210605236
 23
8.1412390908
  0
SOLID
  8
0
 62
2
  6
CONTINUOUS
 10
16.9350460627
 20
8.135496199
 11
16.6253698705
 21
8.1349100486
 12
16.9361512803
 22
8.1378577543
 13
16.9361512803
 23
8.1378577543
  0
SOLID
  8
0
 62
2
  6
CONTINUOUS
 10
16.9361512803
 20
8.1378577543
 11
16.6253698705
 21
8.1349100486
 12
16.9370658015
 22
8.1402384684
 13
16.9370658015
 23
8.1402384684
  0
SOLID
  8
0
 62
2
  6
CONTINUOUS
 10
16.6253698705
 20
8.1349100486
 11
16.6210605236
 21
8.1412390908
 12
16.9370658015
 22
8.1402384684
 13
16.9370658015
 23
8.1402384684
  0
SOLID
  8
0
 62
2
  6
CONTINUOUS
 10
16.6253698705
 20
8.1349100486
 11
16.9350460627
 21
8.135496199
 12
16.7355621975
 22
8.1331537804
 13
16.7355621975
 23
8.1331537804
  0
SOLID
  8
0
 62
2
  6
CONTINUOUS
 10
16.9350460627
 20
8.135496199
 11
16.9337501487
 21
8.1331537804
 12
16.7355621975
 22
8.1331537804
 13
16.7355621975
 23
8.1331537804
  0
SOLID
  8
0
 62
2
  6
CONTINUOUS
 10
16.7052713867
 20
8.1292678274
 11
16.6290036181
 21
8.1281703806
 12
16.7152458105
 22
8.1314214837
 13
16.7152458105
 23
8.1314214837
  0
SOLID
  8
0
 62
2
  6
CONTINUOUS
 10
16.7152458105
 20
8.1314214837
 11
16.6290036181
 21
8.1281703806
 12
16.7253671435
 22
8.1327199385
 13
16.7253671435
 23
8.1327199385
  0
SOLID
  8
0
 62
2
  6
CONTINUOUS
 10
16.7355621975
 20
8.1331537804
 11
16.7253671435
 21
8.1327199385
 12
16.6253698705
 22
8.1349100486
 13
16.6253698705
 23
8.1349100486
  0
SOLID
  8
0
 62
2
  6
CONTINUOUS
 10
16.6290036181
 20
8.1281703806
 11
16.6253698705
 21
8.1349100486
 12
16.7253671435
 22
8.1327199385
 13
16.7253671435
 23
8.1327199385
  0
SOLID
  8
0
 62
2
  6
CONTINUOUS
 10
16.7052713867
 20
8.1292678274
 11
16.6955159978
 21
8.1262745428
 12
16.6290036181
 22
8.1281703806
 13
16.6290036181
 23
8.1281703806
  0
SOLID
  8
0
 62
2
  6
CONTINUOUS
 10
16.6860501856
 20
8.1224632746
 11
16.6319230254
 21
8.1210919411
 12
16.6955159978
 22
8.1262745428
 13
16.6955159978
 23
8.1262745428
  0
SOLID
  8
0
 62
2
  6
CONTINUOUS
 10
16.6319230254
 20
8.1210919411
 11
16.6290036181
 21
8.1281703806
 12
16.6955159978
 22
8.1262745428
 13
16.6955159978
 23
8.1262745428
  0
SOLID
  8
0
 62
2
  6
CONTINUOUS
 10
16.6860501856
 20
8.1224632746
 11
16.6769423981
 21
8.1178615822
 12
16.6319230254
 22
8.1210919411
 13
16.6319230254
 23
8.1210919411
  0
SOLID
  8
0
 62
2
  6
CONTINUOUS
 10
16.6340969677
 20
8.113750196
 11
16.6319230254
 21
8.1210919411
 12
16.6769423981
 22
8.1178615822
 13
16.6769423981
 23
8.1178615822
  0
SOLID
  8
0
 62
2
  6
CONTINUOUS
 10
16.6769423981
 20
8.1178615822
 11
16.6682584943
 21
8.1125027408
 12
16.6340969677
 22
8.113750196
 13
16.6340969677
 23
8.113750196
  0
SOLID
  8
0
 62
2
  6
CONTINUOUS
 10
16.6600612681
 20
8.1064255006
 11
16.6355022676
 21
8.1062234186
 12
16.6682584943
 22
8.1125027408
 13
16.6682584943
 23
8.1125027408
  0
SOLID
  8
0
 62
2
  6
CONTINUOUS
 10
16.6355022676
 20
8.1062234186
 11
16.6340969677
 21
8.113750196
 12
16.6682584943
 22
8.1125027408
 13
16.6682584943
 23
8.1125027408
  0
SOLID
  8
0
 62
2
  6
CONTINUOUS
 10
16.6600612681
 20
8.1064255006
 11
16.6524099942
 21
8.0996738065
 12
16.6355022676
 22
8.1062234186
 13
16.6355022676
 23
8.1062234186
  0
SOLID
  8
0
 62
2
  6
CONTINUOUS
 10
16.6361239428
 20
8.0985918548
 11
16.6355022676
 21
8.1062234186
 12
16.6524099942
 22
8.0996738065
 13
16.6524099942
 23
8.0996738065
  0
SOLID
  8
0
 62
2
  6
CONTINUOUS
 10
16.6524099942
 20
8.0996738065
 11
16.6453599995
 21
8.0922964804
 12
16.6361239428
 22
8.0985918548
 13
16.6361239428
 23
8.0985918548
  0
SOLID
  8
0
 62
2
  6
CONTINUOUS
 10
16.6359553651
 20
8.0909368677
 11
16.6361239428
 21
8.0985918548
 12
16.6453599995
 22
8.0922964804
 13
16.6453599995
 23
8.0922964804
  0
SOLID
  8
0
 62
2
  6
CONTINUOUS
 10
16.6453599995
 20
8.0922964804
 11
16.6389622629
 21
8.0843468683
 12
16.6359553651
 22
8.0909368677
 13
16.6359553651
 23
8.0909368677
  0
SOLID
  8
0
 62
2
  6
CONTINUOUS
 10
16.6349983321
 20
8.0833400701
 11
16.6359553651
 21
8.0909368677
 12
16.6389622629
 22
8.0843468683
 13
16.6389622629
 23
8.0843468683
  0
SOLID
  8
0
 62
2
  6
CONTINUOUS
 10
16.6389622629
 20
8.0843468683
 11
16.6332630469
 21
8.0758824544
 12
16.6349983321
 22
8.0833400701
 13
16.6349983321
 23
8.0833400701
  0
DIMENSION
  8
0
 62
2
  6
CONTINUOUS
  2
*D0
 10
13.6249782413
 20
2.8665486398
 11
13.6249782413
 21
9.0818974809
 70
128
 13
12.5494820665
 23
16.6177218629
 14
12.5720988106
 24
2.8665486398
 50
270.0
  0
DIMENSION
  8
0
 62
2
  6
CONTINUOUS
  2
*D1
 10
4.1846381019
 20
10.566578177
 11
14.9126676545
 21
10.449390677
 70
128
 13
20.935250188
 23
9.7103563138
 14
4.1846381019
 24
9.7421117675
 50
180.0
  0
DIMENSION
  8
0
 62
2
  6
CONTINUOUS
  2
*D2
 10
3.0628179903
 20
16.6177218629
 11
3.0628179903
 21
17.7505343152
 70
128
 13
2.192671372
 23
19.1177217675
 14
12.5494820665
 24
16.6177218629
 50
270.0
  0
DIMENSION
  8
0
 62
2
  6
CONTINUOUS
  2
*D3
 10
3.0628179903
 20
21.1177217675
 11
3.0628179903
 21
20.0005342675
 70
128
 13
2.192671372
 23
19.1177217675
 14
2.192671372
 24
21.1177217675
 50
90.0
  0
TEXT
  8
NOTE
 62
2
  6
CONTINUOUS
 10
7.8784750808
 20
14.1004035678
  7
STANDARD
 40
0.15625
  1
CUT-OUT TEMPLATE
 41
0.8
 72
0
  0
TEXT
  8
NOTE
 62
2
  6
CONTINUOUS
 10
7.8784750808
 20
13.8660285678
  7
STANDARD
 40
0.15625
  1
UNDERCOUNTER LAVATORY
 41
0.8
 72
0
  0
TEXT
  8
NOTE
 62
2
  6
CONTINUOUS
 10
7.8784750808
 20
13.6316535678
  7
STANDARD
 40
0.15625
  1
GABARIT DE DCOUPE
 41
0.8
 72
0
  0
TEXT
  8
NOTE
 62
2
  6
CONTINUOUS
 10
7.8784750808
 20
13.3972785678
  7
STANDARD
 40
0.15625
  1
LAVABO SOUS COMPTOIR 
 41
0.8
 72
0
  0
TEXT
  8
NOTE
 62
2
  6
CONTINUOUS
 10
7.8784750808
 20
13.1629035678
  7
STANDARD
 40
0.15625
  1
PLANTILLA DE CORTE
 41
0.8
 72
0
  0
TEXT
  8
NOTE
 62
2
  6
CONTINUOUS
 10
7.8784750808
 20
12.9285285678
  7
STANDARD
 40
0.15625
  1
LAVABO DE INSTALACIN BAJO CUBIERTA 
 41
0.8
 72
0
  0
TEXT
  8
NOTE
 62
2
  6
CONTINUOUS
 10
15.9516160889
 20
20.8015572262
  7
STANDARD
 40
0.15625
  1
FINISHED WALL / BACK SPLASH
 41
0.8
 72
0
  0
TEXT
  8
NOTE
 62
2
  6
CONTINUOUS
 10
15.9516160889
 20
20.5671822262
  7
STANDARD
 40
0.15625
  1
MUR FINI/DOSSERET
 41
0.8
 72
0
  0
TEXT
  8
NOTE
 62
2
  6
CONTINUOUS
 10
15.9516160889
 20
20.3328072262
  7
STANDARD
 40
0.15625
  1
PARED ACABADA/PROTECTOR CONTRA SALPICADURAS
 41
0.8
 72
0
  0
TEXT
  8
NOTE
 62
2
  6
CONTINUOUS
 10
5.7643286584
 20
20.5667760633
  7
STANDARD
 40
0.15625
  1
NOTE: BEFORE CUTTING COUNTERTOP ALLOW
 41
0.8
 72
0
  0
TEXT
  8
NOTE
 62
2
  6
CONTINUOUS
 10
5.7643286584
 20
20.3324010633
  7
STANDARD
 40
0.15625
  1
      FOR HANDLE CLEARANCE
 41
0.8
 72
0
  0
TEXT
  8
NOTE
 62
2
  6
CONTINUOUS
 10
5.7643286584
 20
20.0980260633
  7
STANDARD
 40
0.15625
  1
REMARQUE: AVANT LA DCOUPE DU COMPTOIR
 41
0.8
 72
0
  0
TEXT
  8
NOTE
 62
2
  6
CONTINUOUS
 10
5.7643286584
 20
19.8636510633
  7
STANDARD
 40
0.15625
  1
      PRVOIR UN ESPACEMENT POUR LA POIGNE
 41
0.8
 72
0
  0
TEXT
  8
NOTE
 62
2
  6
CONTINUOUS
 10
5.7643286584
 20
19.6292760633
  7
STANDARD
 40
0.15625
  1
NOTA: ANTES DE CORTAR LA CUBIERTA, TOME EN
 41
0.8
 72
0
  0
TEXT
  8
NOTE
 62
2
  6
CONTINUOUS
 10
5.7643286584
 20
19.3949010633
  7
STANDARD
 40
0.15625
  1
      CUENTA EL ESPACIO LIBRE PARA LAS MANIJAS
 41
0.8
 72
0
  0
TEXT
  8
NOTE
 62
2
  6
CONTINUOUS
 10
5.0817115829
 20
9.5584467573
  7
STANDARD
 40
0.15625
  1
IMPORTANT: Basin clamp assembly supplied can only
 41
0.8
 72
0
  0
TEXT
  8
NOTE
 62
2
  6
CONTINUOUS
 10
5.0817115829
 20
9.3240717573
  7
STANDARD
 40
0.15625
  1
           be used on countertops with a minimum
 41
0.8
 72
0
  0
TEXT
  8
NOTE
 62
2
  6
CONTINUOUS
 10
5.0817115829
 20
9.0896967573
  7
STANDARD
 40
0.15625
  1
           thickness of 1".  Installer must supply
 41
0.8
 72
0
  0
TEXT
  8
NOTE
 62
2
  6
CONTINUOUS
 10
5.0817115829
 20
8.8553217573
  7
STANDARD
 40
0.15625
  1
           anchors for thinner countertops.
 41
0.8
 72
0
  0
TEXT
  8
NOTE
 62
2
  6
CONTINUOUS
 10
5.0817115829
 20
8.6209467573
  7
STANDARD
 40
0.15625
  1
 
 41
0.8
 72
0
  0
TEXT
  8
NOTE
 62
2
  6
CONTINUOUS
 10
5.0817115829
 20
8.3865717573
  7
STANDARD
 40
0.15625
  1
IMPORTANT: Ensemble des attaches du bassin fournit ne peut
 41
0.8
 72
0
  0
TEXT
  8
NOTE
 62
2
  6
CONTINUOUS
 10
5.0817115829
 20
8.1521967573
  7
STANDARD
 40
0.15625
  1
           tre utilis que sur des comptoirs  paisseur
 41
0.8
 72
0
  0
TEXT
  8
NOTE
 62
2
  6
CONTINUOUS
 10
5.0817115829
 20
7.9178217573
  7
STANDARD
 40
0.15625
  1
           minimum de 1" (25 mm).   L'installateur doit
 41
0.8
 72
0
  0
TEXT
  8
NOTE
 62
2
  6
CONTINUOUS
 10
5.0817115829
 20
7.6834467573
  7
STANDARD
 40
0.15625
  1
           fournir les ancrages pour des comptoirs plus fins.
 41
0.8
 72
0
  0
TEXT
  8
NOTE
 62
2
  6
CONTINUOUS
 10
5.0817115829
 20
7.4490717573
  7
STANDARD
 40
0.15625
  1
 
 41
0.8
 72
0
  0
TEXT
  8
NOTE
 62
2
  6
CONTINUOUS
 10
5.0817115829
 20
7.2146967573
  7
STANDARD
 40
0.15625
  1
IMPORTANTE: El montaje de grapas provisto para fondos, slo
 41
0.8
 72
0
  0
TEXT
  8
NOTE
 62
2
  6
CONTINUOUS
 10
5.0817115829
 20
6.9803217573
  7
STANDARD
 40
0.15625
  1
           se puede utilizar con cubiertas de un espesor
 41
0.8
 72
0
  0
TEXT
  8
NOTE
 62
2
  6
CONTINUOUS
 10
5.0817115829
 20
6.7459467573
  7
STANDARD
 40
0.15625
  1
           mnimo de 1" (25 mm).  El instalador debe proveer
 41
0.8
 72
0
  0
TEXT
  8
NOTE
 62
2
  6
CONTINUOUS
 10
5.0817115829
 20
6.5115717573
  7
STANDARD
 40
0.15625
  1
           los anclajes para cubiertas ms delgadas.
 41
0.8
 72
0
  0
TEXT
  8
NOTE
 62
2
  6
CONTINUOUS
 10
5.0817115829
 20
6.2771967573
  7
STANDARD
 40
0.15625
  1
 
 41
0.8
 72
0
  0
TEXT
  8
NOTE
 62
2
  6
CONTINUOUS
 10
5.0817115829
 20
6.0428217573
  7
STANDARD
 40
0.15625
  1
 
 41
0.8
 72
0
  0
TEXT
  8
NOTE
 62
2
  6
CONTINUOUS
 10
5.0817115829
 20
5.8084467573
  7
STANDARD
 40
0.15625
  1
 
 41
0.8
 72
0
  0
TEXT
  8
NOTE
 62
2
  6
CONTINUOUS
 10
5.0817115829
 20
5.5740717573
  7
STANDARD
 40
0.15625
  1
 
 41
0.8
 72
0
  0
TEXT
  8
NOTE
 62
2
  6
CONTINUOUS
 10
18.8999832184
 20
19.8008486837
  7
STANDARD
 40
0.15625
  1
CENTERLINE OF FITTING
 41
0.8
 72
0
  0
TEXT
  8
NOTE
 62
2
  6
CONTINUOUS
 10
18.8999832184
 20
19.5664736837
  7
STANDARD
 40
0.15625
  1
LIGNE CENTRALE DE RACCORDEMENT
 41
0.8
 72
0
  0
TEXT
  8
NOTE
 62
2
  6
CONTINUOUS
 10
18.8999832184
 20
19.3320986837
  7
STANDARD
 40
0.15625
  1
LNEA CENTRAL DE LA CONEXIN
 41
0.8
 72
0
  0
TEXT
  8
___NOTE
 62
2
  6
CONTINUOUS
 10
7.8555926405
 20
12.5993729885
  7
STANDARD
 40
0.15625
  1
2205    2210    2219    14174
 41
0.8
 72
0
  0
TEXT
  8
___NOTE
 62
2
  6
CONTINUOUS
 10
7.8555926405
 20
12.2087479885
  7
STANDARD
 40
0.15625
  1
14193   14194   14195   14218
 41
0.8
 72
0
  0
TEXT
  8
___NOTE
 62
2
  6
CONTINUOUS
 10
7.8555926405
 20
11.8181229885
  7
STANDARD
 40
0.15625
  1
14390   14280   2319    14297   
 41
0.8
 72
0
  0
TEXT
  8
___NOTE
 62
2
  6
CONTINUOUS
 10
7.8555926405
 20
11.4274979885
  7
STANDARD
 40
0.15625
  1
2881    2874    2741    17889
 41
0.8
 72
0
  0
TEXT
  8
___NOTE
 62
2
  6
CONTINUOUS
 10
7.8555926405
 20
11.0368729885
  7
STANDARD
 40
0.15625
  1
77635
 41
0.8
 72
0
  0
TEXT
  8
___NOTE
 62
2
  6
CONTINUOUS
 10
17.7365359894
 20
8.2806282292
  7
STANDARD
 40
0.15625
  1
5/8"
 41
0.8
 72
0
  0
TEXT
  8
___NOTE
 62
2
  6
CONTINUOUS
 10
17.7365359894
 20
8.0462532292
  7
STANDARD
 40
0.15625
  1
16mm
 41
0.8
 72
0
  0
TEXT
  8
___NOTE
 62
2
  6
CONTINUOUS
 10
16.800749706
 20
7.4484136895
  7
STANDARD
 40
0.15625
  1
MARBLE INSTALLATION
 41
0.8
 72
0
  0
TEXT
  8
___NOTE
 62
2
  6
CONTINUOUS
 10
16.800749706
 20
7.2140386895
  7
STANDARD
 40
0.15625
  1
MARBRE INSTALLATION
 41
0.8
 72
0
  0
TEXT
  8
___NOTE
 62
2
  6
CONTINUOUS
 10
16.800749706
 20
6.9796636895
  7
STANDARD
 40
0.15625
  1
MRMOL INSTALACIN
 41
0.8
 72
0
  0
TEXT
  8
___NOTE
 62
2
  6
CONTINUOUS
 10
16.3635208451
 20
9.9347543075
  7
STANDARD
 40
0.15625
  1
SEALANT
 41
0.8
 72
0
  0
TEXT
  8
___NOTE
 62
2
  6
CONTINUOUS
 10
16.3635208451
 20
9.7003793075
  7
STANDARD
 40
0.15625
  1
MASTIC D'TANCHIT
 41
0.8
 72
0
  0
TEXT
  8
___NOTE
 62
2
  6
CONTINUOUS
 10
16.3635208451
 20
9.4660043075
  7
STANDARD
 40
0.15625
  1
SELLADOR
 41
0.8
 72
0
  0
TEXT
  8
___NOTE
 62
2
  6
CONTINUOUS
 10
17.9954267022
 20
8.9559717609
  7
TEXTSTYLE_1
 40
0.15625
  1
n
 41
1.0
 72
0
  0
TEXT
  8
___NOTE
 62
2
  6
CONTINUOUS
 10
18.2298017022
 20
8.9559717609
  7
STANDARD
 40
0.15625
  1
3/8"
 41
0.8
 72
0
  0
TEXT
  8
___NOTE
 62
2
  6
CONTINUOUS
 10
17.9954267022
 20
8.7215967609
  7
TEXTSTYLE_1
 40
0.15625
  1
n
 41
1.0
 72
0
  0
TEXT
  8
___NOTE
 62
2
  6
CONTINUOUS
 10
18.2037600355
 20
8.7215967609
  7
STANDARD
 40
0.15625
  1
10mm
 41
0.8
 72
0
  0
TEXT
  8
___NOTE
 62
2
  6
CONTINUOUS
 10
10.5270929114
 20
3.785403038
  7
STANDARD
 40
0.15625
  1
1151011-7-D
 41
0.8
 72
0
  0
TEXT
  8
___NOTE
 62
2
  6
CONTINUOUS
 10
10.5469248101
 20
0.9872460759
  7
STANDARD
 40
0.15625
  1
1151011-7-D
 41
0.8
 72
0
  0
TEXT
  8
___NOTE
 62
2
  6
CONTINUOUS
 10
14.5389429028
 20
4.4592738345
  7
STANDARD
 40
0.15625
  1
c 2017 KOHLER CO.
 41
0.8
 72
0
  0
TEXT
  8
NOTE
 62
2
  6
CONTINUOUS
 10
16.0811202911
 20
6.1520178167
  7
STANDARD
 40
0.15625
  1
CUT ALONG THIS LINE
 41
0.8
 72
2
 11
18.4561202911
 21
6.1520178167
  0
TEXT
  8
NOTE
 62
2
  6
CONTINUOUS
 10
14.5811202911
 20
5.9176428167
  7
STANDARD
 40
0.15625
  1
DCOUPER LE LONG DE CETTE LIGNE
 41
0.8
 72
2
 11
18.4561202911
 21
5.9176428167
  0
TEXT
  8
NOTE
 62
2
  6
CONTINUOUS
 10
15.9561202911
 20
5.6832678167
  7
STANDARD
 40
0.15625
  1
CORTE POR ESTA LNEA
 41
0.8
 72
2
 11
18.4561202911
 21
5.6832678167
  0
LINE
  8
NOTE
 62
2
  6
CONTINUOUS
 10
19.220948025
 20
5.5804409904
 11
18.7061202911
 21
6.2301428167
  0
LINE
  8
NOTE
 62
2
  6
CONTINUOUS
 10
18.7061202911
 20
6.2301428167
 11
18.4561202911
 21
6.2301428167
  0
SOLID
  8
NOTE
 62
2
  6
CONTINUOUS
 10
19.0613924278
 20
5.6932384257
 11
19.220948025
 21
5.5804409904
 12
19.1476064325
 22
5.7615549347
 13
19.1476064325
 23
5.7615549347
  0
TEXT
  8
NOTE
 62
2
  6
CONTINUOUS
 10
14.6143447129
 20
15.1300808182
  7
STANDARD
 40
0.15625
  1
RIM OF LAVATORY
 41
0.8
 72
2
 11
16.4893447129
 21
15.1300808182
  0
TEXT
  8
NOTE
 62
2
  6
CONTINUOUS
 10
14.4893447129
 20
14.8957058182
  7
STANDARD
 40
0.15625
  1
REBORD DU LAVABO
 41
0.8
 72
2
 11
16.4893447129
 21
14.8957058182
  0
TEXT
  8
NOTE
 62
2
  6
CONTINUOUS
 10
14.3643447129
 20
14.6613308182
  7
STANDARD
 40
0.15625
  1
BORDE DEL LAVABO 
 41
0.8
 72
2
 11
16.4893447129
 21
14.6613308182
  0
LINE
  8
NOTE
 62
2
  6
CONTINUOUS
 10
18.1499647505
 20
16.5112350621
 11
16.7393447129
 21
15.2082058182
  0
LINE
  8
NOTE
 62
2
  6
CONTINUOUS
 10
16.7393447129
 20
15.2082058182
 11
16.4893447129
 21
15.2082058182
  0
SOLID
  8
NOTE
 62
2
  6
CONTINUOUS
 10
18.0495534136
 20
16.3436080552
 11
18.1499647505
 21
16.5112350621
 12
17.9749142012
 22
16.4244102085
 13
17.9749142012
 23
16.4244102085
  0
TEXT
  8
NOTE
 62
2
  6
CONTINUOUS
 10
16.1150732004
 20
13.9088226367
  7
STANDARD
 40
0.15625
  1
CLIP LOCATIONS
 41
0.8
 72
2
 11
17.8650732004
 21
13.9088226367
  0
TEXT
  8
NOTE
 62
2
  6
CONTINUOUS
 10
15.2400732004
 20
13.6744476367
  7
STANDARD
 40
0.15625
  1
EMPLACEMENT DES CLIPS
 41
0.8
 72
2
 11
17.8650732004
 21
13.6744476367
  0
TEXT
  8
NOTE
 62
2
  6
CONTINUOUS
 10
15.1150732004
 20
13.4400726367
  7
STANDARD
 40
0.15625
  1
LUGARES PARA LOS CLIPS
 41
0.8
 72
2
 11
17.8650732004
 21
13.4400726367
  0
LINE
  8
NOTE
 62
2
  6
CONTINUOUS
 10
20.2048812324
 20
15.107025673
 11
18.1150732004
 21
13.9869476367
  0
LINE
  8
NOTE
 62
2
  6
CONTINUOUS
 10
18.1150732004
 20
13.9869476367
 11
17.8650732004
 21
13.9869476367
  0
SOLID
  8
NOTE
 62
2
  6
CONTINUOUS
 10
20.0656033256
 20
14.9699748989
 11
20.2048812324
 21
15.107025673
 12
20.0136395769
 22
15.0669273039
 13
20.0136395769
 23
15.0669273039
  0
TEXT
  8
___NOTE
 62
2
  6
CONTINUOUS
 10
14.9996206791
 20
12.7784469213
  7
STANDARD
 40
0.15625
  1
RIM OF LAVATORY IS FOR REFERENCE ONLY.
 41
0.8
 72
2
 11
19.7496206791
 21
12.7784469213
  0
TEXT
  8
___NOTE
 62
2
  6
CONTINUOUS
 10
14.3746206791
 20
12.5440719213
  7
STANDARD
 40
0.15625
  1
IT SHOULD NOT BE USED FOR ACCURATE LAYOUTS.
 41
0.8
 72
2
 11
19.7496206791
 21
12.5440719213
  0
TEXT
  8
___NOTE
 62
2
  6
CONTINUOUS
 10
16.7496206791
 20
12.3096969213
  7
STANDARD
 40
0.15625
  1
LE REBORD DU LAVABO EST 
 41
0.8
 72
2
 11
19.7496206791
 21
12.3096969213
  0
TEXT
  8
___NOTE
 62
2
  6
CONTINUOUS
 10
15.8746206791
 20
12.0753219213
  7
STANDARD
 40
0.15625
  1
 TITRE DE RFRENCE SEULEMENT.
 41
0.8
 72
2
 11
19.7496206791
 21
12.0753219213
  0
TEXT
  8
___NOTE
 62
2
  6
CONTINUOUS
 10
13.9996206791
 20
11.8409469213
  7
STANDARD
 40
0.15625
  1
NE PAS L'UTILISER POUR DES AGENCEMENTS PRCIS.
 41
0.8
 72
2
 11
19.7496206791
 21
11.8409469213
  0
TEXT
  8
___NOTE
 62
2
  6
CONTINUOUS
 10
15.8746206791
 20
11.6065719213
  7
STANDARD
 40
0.15625
  1
EL BORDE DEL LAVABO SE MUESTRA 
 41
0.8
 72
2
 11
19.7496206791
 21
11.6065719213
  0
TEXT
  8
___NOTE
 62
2
  6
CONTINUOUS
 10
16.4996206791
 20
11.3721969213
  7
STANDARD
 40
0.15625
  1
COMO REFERENCIA SOLAMENTE.
 41
0.8
 72
2
 11
19.7496206791
 21
11.3721969213
  0
TEXT
  8
___NOTE
 62
2
  6
CONTINUOUS
 10
13.8746206791
 20
11.1378219213
  7
STANDARD
 40
0.15625
  1
NO SE DEBE UTILIZAR PARA LA DISPOSICIN EXACTA.
 41
0.8
 72
2
 11
19.7496206791
 21
11.1378219213
  0
LINE
  8
___NOTE
 62
2
  6
CONTINUOUS
 10
21.430353749
 20
13.2152856423
 11
19.9996206791
 21
12.8565719213
  0
LINE
  8
___NOTE
 62
2
  6
CONTINUOUS
 10
19.9996206791
 20
12.8565719213
 11
19.7496206791
 21
12.8565719213
  0
SOLID
  8
___NOTE
 62
2
  6
CONTINUOUS
 10
21.2618585122
 20
13.1163381553
 11
21.430353749
 21
13.2152856423
 12
21.2351072734
 22
13.2230357243
 13
21.2351072734
 23
13.2230357243
  0
INSERT
  8
___SYMBOL
 62
2
  6
CONTINUOUS
  2
SCISSORS_BL0
 10
20.2727537211
 20
7.0558895473
  0
LINE
  8
DRAFT_ENT
 62
2
  6
CONTINUOUS
 10
7.8637479775
 20
14.7696446381
 11
7.8637479775
 21
14.4034335352
  0
LINE
  8
DRAFT_ENT
 62
2
  6
CONTINUOUS
 10
7.9728106402
 20
14.7696446381
 11
7.9728106402
 21
14.6672563751
  0
LINE
  8
DRAFT_ENT
 62
2
  6
CONTINUOUS
 10
7.9728106402
 20
14.5293859577
 11
7.9728106402
 21
14.4034485374
  0
LINE
  8
DRAFT_ENT
 62
2
  6
CONTINUOUS
 10
8.5113801409
 20
14.7696446381
 11
8.5113801409
 21
14.4034485374
  0
LINE
  8
DRAFT_ENT
 62
2
  6
CONTINUOUS
 10
8.6143387104
 20
14.7696446381
 11
8.6143387104
 21
14.6319047621
  0
LINE
  8
DRAFT_ENT
 62
2
  6
CONTINUOUS
 10
8.6143387104
 20
14.5461514458
 11
8.6143387104
 21
14.4034485374
  0
LINE
  8
DRAFT_ENT
 62
2
  6
CONTINUOUS
 10
8.706836735
 20
14.7696446381
 11
8.706836735
 21
14.6319047621
  0
LINE
  8
DRAFT_ENT
 62
2
  6
CONTINUOUS
 10
8.706836735
 20
14.5461514458
 11
8.706836735
 21
14.4034485374
  0
LINE
  8
DRAFT_ENT
 62
2
  6
CONTINUOUS
 10
8.8097953046
 20
14.7696446381
 11
8.8097953046
 21
14.4034485374
  0
LINE
  8
DRAFT_ENT
 62
2
  6
CONTINUOUS
 10
8.8379483376
 20
14.4034485374
 11
8.8379483376
 21
14.7696446381
  0
LINE
  8
DRAFT_ENT
 62
2
  6
CONTINUOUS
 10
8.0589132608
 20
14.7696446381
 11
7.9728106402
 21
14.6672563751
  0
LINE
  8
DRAFT_ENT
 62
2
  6
CONTINUOUS
 10
8.1789519163
 20
14.7696446381
 11
8.0456372334
 21
14.6111144373
  0
LINE
  8
DRAFT_ENT
 62
2
  6
CONTINUOUS
 10
8.9317271447
 20
14.7696446381
 11
8.9317271447
 21
14.4917152775
  0
LINE
  8
DRAFT_ENT
 62
2
  6
CONTINUOUS
 10
9.0334047078
 20
14.4917152775
 11
9.0334047078
 21
14.4034485374
  0
LINE
  8
DRAFT_ENT
 62
2
  6
CONTINUOUS
 10
9.051622048
 20
14.4034485374
 11
9.051622048
 21
14.7696446381
  0
LINE
  8
DRAFT_ENT
 62
2
  6
CONTINUOUS
 10
9.1505262243
 20
14.6804199981
 11
9.1505262243
 21
14.6319047621
  0
LINE
  8
DRAFT_ENT
 62
2
  6
CONTINUOUS
 10
9.1505262243
 20
14.5416662439
 11
9.1505262243
 21
14.4917152775
  0
LINE
  8
DRAFT_ENT
 62
2
  6
CONTINUOUS
 10
9.2448121944
 20
14.4034485374
 11
9.2448121944
 21
14.4917152775
  0
LINE
  8
DRAFT_ENT
 62
2
  6
CONTINUOUS
 10
9.2448121944
 20
14.5416662439
 11
9.2448121944
 21
14.6319047621
  0
LINE
  8
DRAFT_ENT
 62
2
  6
CONTINUOUS
 10
9.2448121944
 20
14.6804199981
 11
9.2448121944
 21
14.7696446381
  0
LINE
  8
DRAFT_ENT
 62
2
  6
CONTINUOUS
 10
9.272824834
 20
14.4034485374
 11
9.272824834
 21
14.7696446381
  0
LINE
  8
DRAFT_ENT
 62
2
  6
CONTINUOUS
 10
9.3669847411
 20
14.6805328503
 11
9.3669847411
 21
14.6135933785
  0
LINE
  8
DRAFT_ENT
 62
2
  6
CONTINUOUS
 10
9.3669847411
 20
14.5265462927
 11
9.3669847411
 21
14.4034485374
  0
LINE
  8
DRAFT_ENT
 62
2
  6
CONTINUOUS
 10
9.6417712584
 20
14.3829231018
 11
9.6417712584
 21
14.4241519839
  0
LINE
  8
DRAFT_ENT
 62
2
  6
CONTINUOUS
 10
8.0688968711
 20
14.4034485374
 11
7.9728106402
 21
14.5293859577
  0
LINE
  8
DRAFT_ENT
 62
2
  6
CONTINUOUS
 10
8.2040796603
 20
14.4034485374
 11
8.0456372334
 21
14.6111144373
  0
LINE
  8
0
 62
2
  6
CONTINUOUS
 10
16.5354421625
 20
7.5802938025
 11
16.5603421625
 21
7.5802938025
  0
LINE
  8
0
 62
2
  6
CONTINUOUS
 10
16.4801421625
 20
7.6216738025
 11
16.4939221625
 21
7.6189938025
  0
LINE
  8
0
 62
2
  6
CONTINUOUS
 10
16.5713821625
 20
7.5857738025
 11
16.5824421625
 21
7.5829738025
  0
LINE
  8
DRAFT_ENT
 62
2
  6
CONTINUOUS
 10
9.4449993992
 20
14.4034485374
 11
9.3669847411
 21
14.5265462927
  0
LINE
  8
DRAFT_ENT
 62
2
  6
CONTINUOUS
 10
9.563718759
 20
14.4034485374
 11
9.4640667132
 21
14.5606876557
  0
LINE
  8
0
 62
2
  6
CONTINUOUS
 10
16.4939221625
 20
7.6189938025
 11
16.5243821625
 21
7.6189938025
  0
LINE
  8
0
 62
2
  6
CONTINUOUS
 10
17.2360095931
 20
7.822252525
 11
17.253194732
 21
7.822252525
  0
LINE
  8
0
 62
2
  6
CONTINUOUS
 10
17.4142021625
 20
7.8484738025
 11
16.8008821625
 21
7.8484738025
  0
LINE
  8
0
 62
2
  6
CONTINUOUS
 10
17.2197021625
 20
7.8553138025
 11
17.2708421625
 21
7.8553138025
  0
LINE
  8
0
 62
2
  6
CONTINUOUS
 10
17.2045021625
 20
7.8719138025
 11
17.2874421625
 21
7.8719138025
  0
LINE
  8
0
 62
2
  6
CONTINUOUS
 10
17.2197021625
 20
7.8898538025
 11
17.2708421625
 21
7.8898538025
  0
LINE
  8
0
 62
2
  6
CONTINUOUS
 10
16.7926070773
 20
7.9092738025
 11
17.4033421625
 21
7.9092738025
  0
LINE
  8
0
 62
2
  6
CONTINUOUS
 10
17.2197021625
 20
7.9258738025
 11
17.2708421625
 21
7.9258738025
  0
LINE
  8
0
 62
2
  6
CONTINUOUS
 10
17.2874421625
 20
7.9451538025
 11
17.2045021625
 21
7.9451538025
  0
LINE
  8
0
 62
2
  6
CONTINUOUS
 10
17.2197021625
 20
7.9617538025
 11
17.2708421625
 21
7.9617538025
  0
LINE
  8
0
 62
2
  6
CONTINUOUS
 10
17.2045021625
 20
7.9796938025
 11
17.2874421625
 21
7.9796938025
  0
LINE
  8
0
 62
2
  6
CONTINUOUS
 10
17.2197021625
 20
7.9977738025
 11
17.2708421625
 21
7.9977738025
  0
LINE
  8
0
 62
2
  6
CONTINUOUS
 10
17.2045021625
 20
8.0157138025
 11
17.2874421625
 21
8.0157138025
  0
LINE
  8
0
 62
2
  6
CONTINUOUS
 10
17.2197021625
 20
8.0323138025
 11
17.2708421625
 21
8.0323138025
  0
LINE
  8
0
 62
2
  6
CONTINUOUS
 10
17.2045021625
 20
8.0530738025
 11
17.2874421625
 21
8.0530738025
  0
LINE
  8
0
 62
2
  6
CONTINUOUS
 10
17.2197021625
 20
8.0696738025
 11
17.2708421625
 21
8.0696738025
  0
LINE
  8
0
 62
2
  6
CONTINUOUS
 10
17.2045021625
 20
8.0889538025
 11
17.2874421625
 21
8.0889538025
  0
LINE
  8
0
 62
2
  6
CONTINUOUS
 10
17.2197021625
 20
8.1055538025
 11
17.2708421625
 21
8.1055538025
  0
LINE
  8
0
 62
2
  6
CONTINUOUS
 10
17.2045021625
 20
8.1249738025
 11
17.2874421625
 21
8.1249738025
  0
LINE
  8
0
 62
2
  6
CONTINUOUS
 10
16.7355621975
 20
8.1331538025
 11
17.0348590296
 21
8.1331538025
  0
LINE
  8
0
 62
2
  6
CONTINUOUS
 10
17.2197021625
 20
8.1429138025
 11
17.2708421625
 21
8.1429138025
  0
LINE
  8
0
 62
2
  6
CONTINUOUS
 10
17.2045021625
 20
8.1608538025
 11
17.2874421625
 21
8.1608538025
  0
LINE
  8
0
 62
2
  6
CONTINUOUS
 10
16.4931421625
 20
8.1672038025
 11
17.1437221625
 21
8.1672038025
  0
LINE
  8
0
 62
2
  6
CONTINUOUS
 10
17.3400021625
 20
8.1672038025
 11
17.5777421625
 21
8.1672038025
  0
LINE
  8
0
 62
2
  6
CONTINUOUS
 10
17.5970821625
 20
8.1700038025
 11
17.7049221625
 21
8.1700038025
  0
LINE
  8
0
 62
2
  6
CONTINUOUS
 10
17.2197021625
 20
8.1802738025
 11
17.2708421625
 21
8.1802738025
  0
LINE
  8
0
 62
2
  6
CONTINUOUS
 10
17.2045021625
 20
8.1995538025
 11
17.2874421625
 21
8.1995538025
  0
LINE
  8
0
 62
2
  6
CONTINUOUS
 10
17.2197021625
 20
8.2161538025
 11
17.2708421625
 21
8.2161538025
  0
LINE
  8
0
 62
2
  6
CONTINUOUS
 10
17.2045021625
 20
8.2355538025
 11
17.2874421625
 21
8.2355538025
  0
LINE
  8
0
 62
2
  6
CONTINUOUS
 10
17.2197021625
 20
8.2520338025
 11
17.2708421625
 21
8.2520338025
  0
LINE
  8
0
 62
2
  6
CONTINUOUS
 10
17.2045021625
 20
8.2701138025
 11
17.2874421625
 21
8.2701138025
  0
LINE
  8
0
 62
2
  6
CONTINUOUS
 10
17.2197021625
 20
8.2880538025
 11
17.2708421625
 21
8.2880538025
  0
LINE
  8
0
 62
2
  6
CONTINUOUS
 10
17.2045021625
 20
8.3059938025
 11
17.2874421625
 21
8.3059938025
  0
LINE
  8
0
 62
2
  6
CONTINUOUS
 10
17.2197021625
 20
8.3239338025
 11
17.2708421625
 21
8.3239338025
  0
LINE
  8
0
 62
2
  6
CONTINUOUS
 10
17.2045021625
 20
8.3433538025
 11
17.2874421625
 21
8.3433538025
  0
LINE
  8
0
 62
2
  6
CONTINUOUS
 10
17.2197021625
 20
8.3612938025
 11
17.2708421625
 21
8.3612938025
  0
LINE
  8
0
 62
2
  6
CONTINUOUS
 10
17.2874421625
 20
8.3792338025
 11
17.2045021625
 21
8.3792338025
  0
LINE
  8
0
 62
2
  6
CONTINUOUS
 10
17.2183621625
 20
8.4262338025
 11
17.2736621625
 21
8.4262338025
  0
LINE
  8
0
 62
2
  6
CONTINUOUS
 10
17.3400021625
 20
8.4574838025
 11
17.1437221625
 21
8.4574838025
  0
LINE
  8
0
 62
2
  6
CONTINUOUS
 10
17.3731421625
 20
8.4603038025
 11
17.7104821625
 21
8.4603038025
  0
LINE
  8
DEFAULT_3
 62
2
  6
PHANTOM
 10
17.5777421625
 20
8.6952838025
 11
16.4931421625
 21
8.6952838025
  0
LINE
  8
0
 62
2
  6
CONTINUOUS
 10
17.1464621625
 20
8.7746338025
 11
17.9462021625
 21
8.7746338025
  0
LINE
  8
0
 62
2
  6
CONTINUOUS
 10
16.5879918171
 20
7.5333085425
 11
16.6017918171
 21
7.5276885425
  0
LINE
  8
0
 62
2
  6
CONTINUOUS
 10
16.5243821625
 20
7.5857738025
 11
16.5354421625
 21
7.5802938025
  0
LINE
  8
0
 62
2
  6
CONTINUOUS
 10
16.5796918171
 20
7.5416085425
 11
16.5879918171
 21
7.5333085425
  0
LINE
  8
0
 62
2
  6
CONTINUOUS
 10
16.4690821625
 20
7.6327738025
 11
16.4801421625
 21
7.6216738025
  0
LINE
  8
DRAFT_ENT
 62
2
  6
CONTINUOUS
 10
9.6490199949
 20
14.403112444
 11
9.6689375067
 21
14.3829231018
  0
LINE
  8
0
 62
2
  6
CONTINUOUS
 10
17.5252421625
 20
8.3248038025
 11
17.5169421625
 21
8.3331038025
  0
LINE
  8
0
 62
2
  6
CONTINUOUS
 10
15.8498581194
 20
9.2789242529
 11
16.7701524277
 21
8.150261422
  0
POLYLINE
  8
0
 62
2
  6
CONTINUOUS
 66
1
 70
0
  0
VERTEX
  8
0
 62
2
  6
CONTINUOUS
 10
16.934775761
 20
8.1672038025
  0
VERTEX
  8
0
 62
2
  6
CONTINUOUS
 10
16.9351074198
 20
8.1664965187
  0
VERTEX
  8
0
 62
2
  6
CONTINUOUS
 10
16.9354249106
 20
8.1657906582
  0
VERTEX
  8
0
 62
2
  6
CONTINUOUS
 10
16.9357282334
 20
8.1650862212
  0
VERTEX
  8
0
 62
2
  6
CONTINUOUS
 10
16.9360173881
 20
8.1643832077
  0
VERTEX
  8
0
 62
2
  6
CONTINUOUS
 10
16.9362923749
 20
8.1636816175
  0
VERTEX
  8
0
 62
2
  6
CONTINUOUS
 10
16.9365531936
 20
8.1629814508
  0
VERTEX
  8
0
 62
2
  6
CONTINUOUS
 10
16.9367998443
 20
8.1622827075
  0
VERTEX
  8
0
 62
2
  6
CONTINUOUS
 10
16.937032327
 20
8.1615853876
  0
VERTEX
  8
0
 62
2
  6
CONTINUOUS
 10
16.9372506417
 20
8.1608894911
  0
VERTEX
  8
0
 62
2
  6
CONTINUOUS
 10
16.9374547883
 20
8.1601950181
  0
VERTEX
  8
0
 62
2
  6
CONTINUOUS
 10
16.9376447669
 20
8.1595019685
  0
VERTEX
  8
0
 62
2
  6
CONTINUOUS
 10
16.9378205776
 20
8.1588103423
  0
VERTEX
  8
0
 62
2
  6
CONTINUOUS
 10
16.9379822201
 20
8.1581201395
  0
VERTEX
  8
0
 62
2
  6
CONTINUOUS
 10
16.9381296947
 20
8.1574313602
  0
VERTEX
  8
0
 62
2
  6
CONTINUOUS
 10
16.9382630012
 20
8.1567440043
  0
VERTEX
  8
0
 62
2
  6
CONTINUOUS
 10
16.9383821398
 20
8.1560580718
  0
VERTEX
  8
0
 62
2
  6
CONTINUOUS
 10
16.9384871103
 20
8.1553735627
  0
VERTEX
  8
0
 62
2
  6
CONTINUOUS
 10
16.9385779128
 20
8.1546904771
  0
VERTEX
  8
0
 62
2
  6
CONTINUOUS
 10
16.9386545472
 20
8.1540088149
  0
VERTEX
  8
0
 62
2
  6
CONTINUOUS
 10
16.9387170137
 20
8.1533285761
  0
VERTEX
  8
0
 62
2
  6
CONTINUOUS
 10
16.9387653121
 20
8.1526497607
  0
VERTEX
  8
0
 62
2
  6
CONTINUOUS
 10
16.9387994425
 20
8.1519723688
  0
VERTEX
  8
0
 62
2
  6
CONTINUOUS
 10
16.9388194049
 20
8.1512964003
  0
VERTEX
  8
0
 62
2
  6
CONTINUOUS
 10
16.9388251993
 20
8.1506218552
  0
VERTEX
  8
0
 62
2
  6
CONTINUOUS
 10
16.9388168256
 20
8.1499487335
  0
VERTEX
  8
0
 62
2
  6
CONTINUOUS
 10
16.9387942839
 20
8.1492770353
  0
VERTEX
  8
0
 62
2
  6
CONTINUOUS
 10
16.9387575743
 20
8.1486067605
  0
VERTEX
  8
0
 62
2
  6
CONTINUOUS
 10
16.9387066965
 20
8.1479379091
  0
VERTEX
  8
0
 62
2
  6
CONTINUOUS
 10
16.9386416508
 20
8.1472704811
  0
VERTEX
  8
0
 62
2
  6
CONTINUOUS
 10
16.9385624371
 20
8.1466044766
  0
VERTEX
  8
0
 62
2
  6
CONTINUOUS
 10
16.9384690553
 20
8.1459398954
  0
VERTEX
  8
0
 62
2
  6
CONTINUOUS
 10
16.9383615055
 20
8.1452767377
  0
VERTEX
  8
0
 62
2
  6
CONTINUOUS
 10
16.9382397877
 20
8.1446150035
  0
VERTEX
  8
0
 62
2
  6
CONTINUOUS
 10
16.9381039019
 20
8.1439546926
  0
VERTEX
  8
0
 62
2
  6
CONTINUOUS
 10
16.937953848
 20
8.1432958052
  0
VERTEX
  8
0
 62
2
  6
CONTINUOUS
 10
16.9377896261
 20
8.1426383412
  0
VERTEX
  8
0
 62
2
  6
CONTINUOUS
 10
16.9376022779
 20
8.1419507083
  0
VERTEX
  8
0
 62
2
  6
CONTINUOUS
 10
16.9373993626
 20
8.1412646393
  0
VERTEX
  8
0
 62
2
  6
CONTINUOUS
 10
16.9371808803
 20
8.1405801344
  0
VERTEX
  8
0
 62
2
  6
CONTINUOUS
 10
16.9369468309
 20
8.1398971934
  0
VERTEX
  8
0
 62
2
  6
CONTINUOUS
 10
16.9366972144
 20
8.1392158164
  0
VERTEX
  8
0
 62
2
  6
CONTINUOUS
 10
16.9364320309
 20
8.1385360034
  0
VERTEX
  8
0
 62
2
  6
CONTINUOUS
 10
16.9361512803
 20
8.1378577543
  0
VERTEX
  8
0
 62
2
  6
CONTINUOUS
 10
16.9358549627
 20
8.1371810693
  0
VERTEX
  8
0
 62
2
  6
CONTINUOUS
 10
16.935543078
 20
8.1365059482
  0
VERTEX
  8
0
 62
2
  6
CONTINUOUS
 10
16.9352156263
 20
8.1358323911
  0
VERTEX
  8
0
 62
2
  6
CONTINUOUS
 10
16.9348726075
 20
8.135160398
  0
VERTEX
  8
0
 62
2
  6
CONTINUOUS
 10
16.9345140216
 20
8.1344899688
  0
VERTEX
  8
0
 62
2
  6
CONTINUOUS
 10
16.9341398687
 20
8.1338211037
  0
VERTEX
  8
0
 62
2
  6
CONTINUOUS
 10
16.9337501487
 20
8.1331538025
  0
SEQEND
  0
LINE
  8
0
 62
2
  6
CONTINUOUS
 10
16.5768786443
 20
7.5525934891
 11
16.5796786443
 21
7.5416134891
  0
LINE
  8
0
 62
2
  6
CONTINUOUS
 10
16.6017782144
 20
7.5277157479
 11
16.6045182144
 21
7.5167357479
  0
LINE
  8
0
 62
2
  6
CONTINUOUS
 10
16.5243821625
 20
7.6189938025
 11
16.5271421625
 21
7.6078738025
  0
LINE
  8
0
 62
2
  6
CONTINUOUS
 10
16.4331421625
 20
8.6352838025
 11
16.4331421625
 21
8.2272038025
  0
LINE
  8
0
 62
2
  6
CONTINUOUS
 10
16.5243821625
 20
7.5968938025
 11
16.5243821625
 21
7.5857738025
  0
LINE
  8
0
 62
2
  6
CONTINUOUS
 10
16.5824421625
 20
7.5829738025
 11
16.5824421625
 21
7.5636938025
  0
LINE
  8
0
 62
2
  6
CONTINUOUS
 10
16.8008821625
 20
7.8484738025
 11
16.8008821625
 21
7.9092738025
  0
LINE
  8
0
 62
2
  6
CONTINUOUS
 10
17.1437221625
 20
8.8161338025
 11
17.1437221625
 21
8.1672038025
  0
LINE
  8
0
 62
2
  6
CONTINUOUS
 10
16.1710929251
 20
10.0342601475
 11
15.8498581194
 21
9.2789242529
  0
LINE
  8
0
 62
2
  6
CONTINUOUS
 10
16.3100052736
 20
10.0342601475
 11
16.1710929251
 21
10.0342601475
  0
LINE
  8
0
 62
2
  6
CONTINUOUS
 10
17.5777421625
 20
8.1672038025
 11
17.5500821625
 21
8.2115238025
  0
LINE
  8
0
 62
2
  6
CONTINUOUS
 10
17.5335421625
 20
8.2999038025
 11
17.5279821625
 21
8.3110038025
  0
LINE
  8
0
 62
2
  6
CONTINUOUS
 10
17.5169421625
 20
8.3331038025
 11
17.5086421625
 21
8.3551838025
  0
LINE
  8
0
 62
2
  6
CONTINUOUS
 10
17.2874421625
 20
8.3792338025
 11
17.2736621625
 21
8.4262338025
  0
LINE
  8
0
 62
2
  6
CONTINUOUS
 10
17.5500821625
 20
8.2115238025
 11
17.5390421625
 21
8.2585038025
  0
LINE
  8
0
 62
2
  6
CONTINUOUS
 10
17.5279821625
 20
8.3110038025
 11
17.5252421625
 21
8.3248038025
  0
LINE
  8
0
 62
2
  6
CONTINUOUS
 10
17.5390421625
 20
8.2695038025
 11
17.5335421625
 21
8.2999038025
  0
LINE
  8
0
 62
2
  6
CONTINUOUS
 10
17.1824021625
 20
7.9092738025
 11
17.1824021625
 21
7.8484738025
  0
LINE
  8
0
 62
2
  6
CONTINUOUS
 10
17.2045021625
 20
7.8484738025
 11
17.2045021625
 21
8.3792338025
  0
LINE
  8
0
 62
2
  6
CONTINUOUS
 10
17.2360095931
 20
7.822252525
 11
17.2360095931
 21
7.8080214863
  0
LINE
  8
DEFAULT_1
 62
2
  6
CENTER
 10
17.2446021625
 20
8.4781138025
 11
17.2446021625
 21
7.661933544
  0
LINE
  8
0
 62
2
  6
CONTINUOUS
 10
17.253194732
 20
7.808157739
 11
17.253194732
 21
7.822252525
  0
LINE
  8
0
 62
2
  6
CONTINUOUS
 10
17.2874421625
 20
7.8484738025
 11
17.2874421625
 21
8.3792338025
  0
LINE
  8
0
 62
2
  6
CONTINUOUS
 10
17.3095421625
 20
7.9092738025
 11
17.3095421625
 21
7.8484738025
  0
LINE
  8
0
 62
2
  6
CONTINUOUS
 10
17.3400021625
 20
8.1672038025
 11
17.3400021625
 21
8.8161338025
  0
LINE
  8
0
 62
2
  6
CONTINUOUS
 10
17.4533421625
 20
7.9592738025
 11
17.4533421625
 21
8.1672038025
  0
LINE
  8
0
 62
2
  6
CONTINUOUS
 10
17.5142021625
 20
8.1672038025
 11
17.5142021625
 21
7.9484738025
  0
LINE
  8
0
 62
2
  6
CONTINUOUS
 10
17.5362821625
 20
8.4519838025
 11
17.5362821625
 21
8.4631038025
  0
LINE
  8
0
 62
2
  6
CONTINUOUS
 10
17.5390421625
 20
8.2585038025
 11
17.5390421625
 21
8.2695038025
  0
LINE
  8
0
 62
2
  6
CONTINUOUS
 10
17.5583821625
 20
8.5210838025
 11
17.5583821625
 21
8.6344838025
  0
LINE
  8
0
 62
2
  6
CONTINUOUS
 10
17.5722421625
 20
8.6676838025
 11
17.5722421625
 21
8.6842838025
  0
LINE
  8
0
 62
2
  6
CONTINUOUS
 10
17.6579421625
 20
8.4603038025
 11
17.6579421625
 21
8.1700038025
  0
LINE
  8
0
 62
2
  6
CONTINUOUS
 10
17.5086421625
 20
8.3551838025
 11
17.5142021625
 21
8.3967038025
  0
LINE
  8
0
 62
2
  6
CONTINUOUS
 10
16.5271421625
 20
7.6078738025
 11
16.5243821625
 21
7.5968938025
  0
LINE
  8
0
 62
2
  6
CONTINUOUS
 10
17.5583821625
 20
8.6344838025
 11
17.5612021625
 21
8.6454838025
  0
LINE
  8
0
 62
2
  6
CONTINUOUS
 10
17.2045021625
 20
8.3792338025
 11
17.2183621625
 21
8.4262338025
  0
LINE
  8
0
 62
2
  6
CONTINUOUS
 10
16.6228276262
 20
8.0542745567
 11
16.4640558074
 21
7.6189938025
  0
LINE
  8
DEFAULT_3
 62
2
  6
PHANTOM
 10
16.6045182144
 20
7.5167493506
 11
16.7324840093
 21
7.8672768201
  0
LINE
  8
0
 62
2
  6
CONTINUOUS
 10
16.5824421625
 20
7.5636938025
 11
16.5768821625
 21
7.5525738025
  0
LINE
  8
0
 62
2
  6
CONTINUOUS
 10
17.5362821625
 20
8.4631038025
 11
17.5583821625
 21
8.5210838025
  0
LINE
  8
0
 62
2
  6
CONTINUOUS
 10
17.5142021625
 20
8.3967038025
 11
17.5362821625
 21
8.4519838025
  0
LINE
  8
0
 62
2
  6
CONTINUOUS
 10
17.5612021625
 20
8.6454838025
 11
17.5722421625
 21
8.6676838025
  0
LINE
  8
0
 62
2
  6
CONTINUOUS
 10
17.5722421625
 20
8.6842838025
 11
17.5777421625
 21
8.6952838025
  0
LINE
  8
DEFAULT_3
 62
2
  6
PHANTOM
 10
17.0616584868
 20
8.089670884
 11
16.9875195892
 21
7.9423079655
  0
LINE
  8
0
 62
2
  6
CONTINUOUS
 10
17.0724821625
 20
7.8510338025
 11
17.1409021625
 21
7.9082938025
  0
LINE
  8
0
 62
2
  6
CONTINUOUS
 10
16.8444021625
 20
7.8493338025
 11
16.9148821625
 21
7.9082938025
  0
LINE
  8
0
 62
2
  6
CONTINUOUS
 10
16.9646421625
 20
7.8504338025
 11
17.0351821625
 21
7.9093938025
  0
LINE
  8
0
 62
2
  6
CONTINUOUS
 10
17.3095421625
 20
7.8628738025
 11
17.3593421625
 21
7.9045138025
  0
LINE
  8
0
 62
2
  6
CONTINUOUS
 10
17.4125821625
 20
7.8538538025
 11
17.5121221625
 21
7.9370938025
  0
LINE
  8
0
 62
2
  6
CONTINUOUS
 10
17.4533421625
 20
8.0782138025
 11
17.5142021625
 21
8.1289938025
  0
LINE
  8
0
 62
2
  6
CONTINUOUS
 10
17.4533421625
 20
7.9831138025
 11
17.5142021625
 21
8.0338938025
  0
LINE
  8
0
 62
2
  6
CONTINUOUS
 10
16.5603421625
 20
7.5802938025
 11
16.5713821625
 21
7.5857738025
  0
LINE
  8
DRAFT_ENT
 62
2
  6
CONTINUOUS
 10
7.9728106402
 20
14.4034485374
 11
7.8637479775
 21
14.4034335352
  0
LINE
  8
DRAFT_ENT
 62
2
  6
CONTINUOUS
 10
9.6569458444
 20
14.403112444
 11
9.6417712584
 21
14.403112444
  0
LINE
  8
DRAFT_ENT
 62
2
  6
CONTINUOUS
 10
8.8097953046
 20
14.4034485374
 11
8.706836735
 21
14.4034485374
  0
LINE
  8
DRAFT_ENT
 62
2
  6
CONTINUOUS
 10
8.6143387104
 20
14.4034485374
 11
8.5113801409
 21
14.4034485374
  0
LINE
  8
DRAFT_ENT
 62
2
  6
CONTINUOUS
 10
8.0688968711
 20
14.4034485374
 11
8.2040796603
 21
14.4034485374
  0
LINE
  8
DRAFT_ENT
 62
2
  6
CONTINUOUS
 10
8.8379483376
 20
14.4034485374
 11
9.0334047078
 21
14.4034485374
  0
LINE
  8
DRAFT_ENT
 62
2
  6
CONTINUOUS
 10
9.051622048
 20
14.4034485374
 11
9.2448121944
 21
14.4034485374
  0
LINE
  8
DRAFT_ENT
 62
2
  6
CONTINUOUS
 10
9.272824834
 20
14.4034485374
 11
9.3669847411
 21
14.4034485374
  0
LINE
  8
DRAFT_ENT
 62
2
  6
CONTINUOUS
 10
9.4449993992
 20
14.4034485374
 11
9.563718759
 21
14.4034485374
  0
LINE
  8
DRAFT_ENT
 62
2
  6
CONTINUOUS
 10
9.6417712584
 20
14.4241519839
 11
9.6569458444
 21
14.4241519839
  0
LINE
  8
DRAFT_ENT
 62
2
  6
CONTINUOUS
 10
8.9317271447
 20
14.4917152775
 11
9.0334047078
 21
14.4917152775
  0
LINE
  8
DRAFT_ENT
 62
2
  6
CONTINUOUS
 10
9.1505262243
 20
14.4917152775
 11
9.2448121944
 21
14.4917152775
  0
LINE
  8
DRAFT_ENT
 62
2
  6
CONTINUOUS
 10
9.1505262243
 20
14.5416662439
 11
9.2448121944
 21
14.5416662439
  0
LINE
  8
DRAFT_ENT
 62
2
  6
CONTINUOUS
 10
8.6143387104
 20
14.5461514458
 11
8.706836735
 21
14.5461514458
  0
LINE
  8
DRAFT_ENT
 62
2
  6
CONTINUOUS
 10
9.3669847411
 20
14.6135933785
 11
9.3996970912
 21
14.6135933785
  0
LINE
  8
DRAFT_ENT
 62
2
  6
CONTINUOUS
 10
8.6143387104
 20
14.6319047621
 11
8.706836735
 21
14.6319047621
  0
LINE
  8
DRAFT_ENT
 62
2
  6
CONTINUOUS
 10
9.1505262243
 20
14.6319047621
 11
9.2448121944
 21
14.6319047621
  0
LINE
  8
DRAFT_ENT
 62
2
  6
CONTINUOUS
 10
9.1505262243
 20
14.6804199981
 11
9.2448121944
 21
14.6804199981
  0
LINE
  8
DRAFT_ENT
 62
2
  6
CONTINUOUS
 10
9.4019409236
 20
14.6805328503
 11
9.3669847411
 21
14.6805328503
  0
LINE
  8
DRAFT_ENT
 62
2
  6
CONTINUOUS
 10
7.8637479775
 20
14.7696446381
 11
7.9728106402
 21
14.7696446381
  0
LINE
  8
DRAFT_ENT
 62
2
  6
CONTINUOUS
 10
8.0589132608
 20
14.7696446381
 11
8.1789519163
 21
14.7696446381
  0
LINE
  8
DRAFT_ENT
 62
2
  6
CONTINUOUS
 10
8.5113801409
 20
14.7696446381
 11
8.6143387104
 21
14.7696446381
  0
LINE
  8
DRAFT_ENT
 62
2
  6
CONTINUOUS
 10
8.706836735
 20
14.7696446381
 11
8.8097953046
 21
14.7696446381
  0
LINE
  8
DRAFT_ENT
 62
2
  6
CONTINUOUS
 10
8.8379483376
 20
14.7696446381
 11
8.9317271447
 21
14.7696446381
  0
LINE
  8
DRAFT_ENT
 62
2
  6
CONTINUOUS
 10
9.051622048
 20
14.7696446381
 11
9.2448121944
 21
14.7696446381
  0
LINE
  8
DRAFT_ENT
 62
2
  6
CONTINUOUS
 10
9.272824834
 20
14.7696446381
 11
9.4187921747
 21
14.7696446381
  0
POLYLINE
  8
_CURVE
 62
8
  6
PHANTOM
 66
1
 70
0
  0
VERTEX
  8
_CURVE
 62
8
  6
PHANTOM
 10
2.7792588303
 20
9.7421117675
  0
VERTEX
  8
_CURVE
 62
8
  6
PHANTOM
 10
2.7867988558
 20
9.4182182875
  0
VERTEX
  8
_CURVE
 62
8
  6
PHANTOM
 10
2.8094073064
 20
9.0948242278
  0
VERTEX
  8
_CURVE
 62
8
  6
PHANTOM
 10
2.8470493213
 20
8.7724282385
  0
VERTEX
  8
_CURVE
 62
8
  6
PHANTOM
 10
2.8996668593
 20
8.4515274309
  0
VERTEX
  8
_CURVE
 62
8
  6
PHANTOM
 10
2.9671787879
 20
8.1326166109
  0
VERTEX
  8
_CURVE
 62
8
  6
PHANTOM
 10
3.0494810088
 20
7.8161875157
  0
VERTEX
  8
_CURVE
 62
8
  6
PHANTOM
 10
3.1464466178
 20
7.5027280561
  0
VERTEX
  8
_CURVE
 62
8
  6
PHANTOM
 10
3.2579261009
 20
7.1927215639
  0
VERTEX
  8
_CURVE
 62
8
  6
PHANTOM
 10
3.383747565
 20
6.8866460466
  0
VERTEX
  8
_CURVE
 62
8
  6
PHANTOM
 10
3.5237170023
 20
6.5849734505
  0
VERTEX
  8
_CURVE
 62
8
  6
PHANTOM
 10
3.6776185903
 20
6.2881689328
  0
VERTEX
  8
_CURVE
 62
8
  6
PHANTOM
 10
3.8452150237
 20
5.9966901447
  0
VERTEX
  8
_CURVE
 62
8
  6
PHANTOM
 10
4.0262478811
 20
5.7109865252
  0
VERTEX
  8
_CURVE
 62
8
  6
PHANTOM
 10
4.2204380229
 20
5.4314986086
  0
VERTEX
  8
_CURVE
 62
8
  6
PHANTOM
 10
4.427486022
 20
5.1586573451
  0
VERTEX
  8
_CURVE
 62
8
  6
PHANTOM
 10
4.6470726253
 20
4.8928834361
  0
VERTEX
  8
_CURVE
 62
8
  6
PHANTOM
 10
4.8788592463
 20
4.6345866857
  0
VERTEX
  8
_CURVE
 62
8
  6
PHANTOM
 10
5.1224884867
 20
4.3841653688
  0
VERTEX
  8
_CURVE
 62
8
  6
PHANTOM
 10
5.377584688
 20
4.1420056169
  0
VERTEX
  8
_CURVE
 62
8
  6
PHANTOM
 10
5.6437545103
 20
3.9084808227
  0
VERTEX
  8
_CURVE
 62
8
  6
PHANTOM
 10
5.920587539
 20
3.6839510647
  0
VERTEX
  8
_CURVE
 62
8
  6
PHANTOM
 10
6.2076569176
 20
3.4687625513
  0
VERTEX
  8
_CURVE
 62
8
  6
PHANTOM
 10
6.504520006
 20
3.2632470877
  0
VERTEX
  8
_CURVE
 62
8
  6
PHANTOM
 10
6.8107190629
 20
3.0677215639
  0
VERTEX
  8
_CURVE
 62
8
  6
PHANTOM
 10
7.1257819513
 20
2.882487466
  0
VERTEX
  8
_CURVE
 62
8
  6
PHANTOM
 10
7.4492228674
 20
2.7078304116
  0
VERTEX
  8
_CURVE
 62
8
  6
PHANTOM
 10
7.7805430884
 20
2.5440197092
  0
VERTEX
  8
_CURVE
 62
8
  6
PHANTOM
 10
8.1192317428
 20
2.391307943
  0
VERTEX
  8
_CURVE
 62
8
  6
PHANTOM
 10
8.4647665972
 20
2.2499305835
  0
VERTEX
  8
_CURVE
 62
8
  6
PHANTOM
 10
8.8166148617
 20
2.1201056243
  0
VERTEX
  8
_CURVE
 62
8
  6
PHANTOM
 10
9.1742340121
 20
2.0020332462
  0
VERTEX
  8
_CURVE
 62
8
  6
PHANTOM
 10
9.5370726253
 20
1.8958955081
  0
VERTEX
  8
_CURVE
 62
8
  6
PHANTOM
 10
9.9045712306
 20
1.8018560668
  0
VERTEX
  8
_CURVE
 62
8
  6
PHANTOM
 10
10.2761631718
 20
1.7200599242
  0
VERTEX
  8
_CURVE
 62
8
  6
PHANTOM
 10
10.651275481
 20
1.6506332042
  0
VERTEX
  8
_CURVE
 62
8
  6
PHANTOM
 10
11.0293297622
 20
1.5936829576
  0
VERTEX
  8
_CURVE
 62
8
  6
PHANTOM
 10
11.4097430831
 20
1.5492969976
  0
VERTEX
  8
_CURVE
 62
8
  6
PHANTOM
 10
11.7919288741
 20
1.5175437642
  0
VERTEX
  8
_CURVE
 62
8
  6
PHANTOM
 10
12.1752978322
 20
1.4984722185
  0
VERTEX
  8
_CURVE
 62
8
  6
PHANTOM
 10
12.5592588303
 20
1.4921117675
  0
VERTEX
  8
_CURVE
 62
8
  6
PHANTOM
 10
12.9432198284
 20
1.4984722185
  0
VERTEX
  8
_CURVE
 62
8
  6
PHANTOM
 10
13.3265887865
 20
1.5175437642
  0
VERTEX
  8
_CURVE
 62
8
  6
PHANTOM
 10
13.7087745774
 20
1.5492969976
  0
VERTEX
  8
_CURVE
 62
8
  6
PHANTOM
 10
14.0891878984
 20
1.5936829576
  0
VERTEX
  8
_CURVE
 62
8
  6
PHANTOM
 10
14.4672421796
 20
1.6506332042
  0
VERTEX
  8
_CURVE
 62
8
  6
PHANTOM
 10
14.8423544888
 20
1.7200599242
  0
VERTEX
  8
_CURVE
 62
8
  6
PHANTOM
 10
15.21394643
 20
1.8018560668
  0
VERTEX
  8
_CURVE
 62
8
  6
PHANTOM
 10
15.5814450353
 20
1.8958955081
  0
VERTEX
  8
_CURVE
 62
8
  6
PHANTOM
 10
15.9442836485
 20
2.0020332462
  0
VERTEX
  8
_CURVE
 62
8
  6
PHANTOM
 10
16.3019027988
 20
2.1201056243
  0
VERTEX
  8
_CURVE
 62
8
  6
PHANTOM
 10
16.6537510634
 20
2.2499305835
  0
VERTEX
  8
_CURVE
 62
8
  6
PHANTOM
 10
16.9992859177
 20
2.391307943
  0
VERTEX
  8
_CURVE
 62
8
  6
PHANTOM
 10
17.3379745721
 20
2.5440197092
  0
VERTEX
  8
_CURVE
 62
8
  6
PHANTOM
 10
17.6692947932
 20
2.7078304116
  0
VERTEX
  8
_CURVE
 62
8
  6
PHANTOM
 10
17.9927357092
 20
2.882487466
  0
VERTEX
  8
_CURVE
 62
8
  6
PHANTOM
 10
18.3077985977
 20
3.0677215639
  0
VERTEX
  8
_CURVE
 62
8
  6
PHANTOM
 10
18.6139976545
 20
3.2632470877
  0
VERTEX
  8
_CURVE
 62
8
  6
PHANTOM
 10
18.9108607429
 20
3.4687625513
  0
VERTEX
  8
_CURVE
 62
8
  6
PHANTOM
 10
19.1979301216
 20
3.6839510647
  0
VERTEX
  8
_CURVE
 62
8
  6
PHANTOM
 10
19.4747631503
 20
3.9084808227
  0
VERTEX
  8
_CURVE
 62
8
  6
PHANTOM
 10
19.7409329726
 20
4.1420056169
  0
VERTEX
  8
_CURVE
 62
8
  6
PHANTOM
 10
19.9960291738
 20
4.3841653688
  0
VERTEX
  8
_CURVE
 62
8
  6
PHANTOM
 10
20.2396584143
 20
4.6345866857
  0
VERTEX
  8
_CURVE
 62
8
  6
PHANTOM
 10
20.4714450353
 20
4.8928834361
  0
VERTEX
  8
_CURVE
 62
8
  6
PHANTOM
 10
20.6910316386
 20
5.1586573451
  0
VERTEX
  8
_CURVE
 62
8
  6
PHANTOM
 10
20.8980796377
 20
5.4314986086
  0
VERTEX
  8
_CURVE
 62
8
  6
PHANTOM
 10
21.0922697794
 20
5.7109865252
  0
VERTEX
  8
_CURVE
 62
8
  6
PHANTOM
 10
21.2733026368
 20
5.9966901447
  0
VERTEX
  8
_CURVE
 62
8
  6
PHANTOM
 10
21.4408990703
 20
6.2881689328
  0
VERTEX
  8
_CURVE
 62
8
  6
PHANTOM
 10
21.5948006582
 20
6.5849734505
  0
VERTEX
  8
_CURVE
 62
8
  6
PHANTOM
 10
21.7347700956
 20
6.8866460466
  0
VERTEX
  8
_CURVE
 62
8
  6
PHANTOM
 10
21.8605915596
 20
7.1927215639
  0
VERTEX
  8
_CURVE
 62
8
  6
PHANTOM
 10
21.9720710428
 20
7.5027280561
  0
VERTEX
  8
_CURVE
 62
8
  6
PHANTOM
 10
22.0690366518
 20
7.8161875157
  0
VERTEX
  8
_CURVE
 62
8
  6
PHANTOM
 10
22.1513388726
 20
8.1326166109
  0
VERTEX
  8
_CURVE
 62
8
  6
PHANTOM
 10
22.2188508013
 20
8.4515274309
  0
VERTEX
  8
_CURVE
 62
8
  6
PHANTOM
 10
22.2714683393
 20
8.7724282385
  0
VERTEX
  8
_CURVE
 62
8
  6
PHANTOM
 10
22.3091103542
 20
9.0948242278
  0
VERTEX
  8
_CURVE
 62
8
  6
PHANTOM
 10
22.3317188047
 20
9.4182182875
  0
VERTEX
  8
_CURVE
 62
8
  6
PHANTOM
 10
22.3392588303
 20
9.7421117675
  0
SEQEND
  0
POLYLINE
  8
_CURVE
 62
7
  6
CONTINUOUS
 66
1
 70
0
  0
VERTEX
  8
_CURVE
 62
7
  6
CONTINUOUS
 10
4.1846381019
 20
9.7421117675
  0
VERTEX
  8
_CURVE
 62
7
  6
CONTINUOUS
 10
4.1853955157
 20
9.6542194618
  0
VERTEX
  8
_CURVE
 62
7
  6
CONTINUOUS
 10
4.1875475776
 20
9.5663492208
  0
VERTEX
  8
_CURVE
 62
7
  6
CONTINUOUS
 10
4.1910863274
 20
9.4785217704
  0
VERTEX
  8
_CURVE
 62
7
  6
CONTINUOUS
 10
4.196003805
 20
9.3907578365
  0
VERTEX
  8
_CURVE
 62
7
  6
CONTINUOUS
 10
4.2022920503
 20
9.3030781451
  0
VERTEX
  8
_CURVE
 62
7
  6
CONTINUOUS
 10
4.209943103
 20
9.2155034221
  0
VERTEX
  8
_CURVE
 62
7
  6
CONTINUOUS
 10
4.2189490032
 20
9.1280543934
  0
VERTEX
  8
_CURVE
 62
7
  6
CONTINUOUS
 10
4.2293017905
 20
9.0407517851
  0
VERTEX
  8
_CURVE
 62
7
  6
CONTINUOUS
 10
4.2409935049
 20
8.9536163229
  0
VERTEX
  8
_CURVE
 62
7
  6
CONTINUOUS
 10
4.2540161862
 20
8.866668733
  0
VERTEX
  8
_CURVE
 62
7
  6
CONTINUOUS
 10
4.2683618744
 20
8.7799297411
  0
VERTEX
  8
_CURVE
 62
7
  6
CONTINUOUS
 10
4.2840226091
 20
8.6934200733
  0
VERTEX
  8
_CURVE
 62
7
  6
CONTINUOUS
 10
4.3009904303
 20
8.6071604554
  0
VERTEX
  8
_CURVE
 62
7
  6
CONTINUOUS
 10
4.3192651179
 20
8.5211357743
  0
VERTEX
  8
_CURVE
 62
7
  6
CONTINUOUS
 10
4.3388317965
 20
8.4353996493
  0
VERTEX
  8
_CURVE
 62
7
  6
CONTINUOUS
 10
4.3596822619
 20
8.3499696377
  0
VERTEX
  8
_CURVE
 62
7
  6
CONTINUOUS
 10
4.3818083102
 20
8.2648632969
  0
VERTEX
  8
_CURVE
 62
7
  6
CONTINUOUS
 10
4.4052017371
 20
8.1800981844
  0
VERTEX
  8
_CURVE
 62
7
  6
CONTINUOUS
 10
4.4298543386
 20
8.0956918574
  0
VERTEX
  8
_CURVE
 62
7
  6
CONTINUOUS
 10
4.4557579104
 20
8.0116618733
  0
VERTEX
  8
_CURVE
 62
7
  6
CONTINUOUS
 10
4.4829042485
 20
7.9280257895
  0
VERTEX
  8
_CURVE
 62
7
  6
CONTINUOUS
 10
4.5112851487
 20
7.8448011635
  0
VERTEX
  8
_CURVE
 62
7
  6
CONTINUOUS
 10
4.5408924069
 20
7.7620055525
  0
VERTEX
  8
_CURVE
 62
7
  6
CONTINUOUS
 10
4.571717819
 20
7.6796565139
  0
VERTEX
  8
_CURVE
 62
7
  6
CONTINUOUS
 10
4.6037531808
 20
7.5977716051
  0
VERTEX
  8
_CURVE
 62
7
  6
CONTINUOUS
 10
4.6369902882
 20
7.5163683835
  0
VERTEX
  8
_CURVE
 62
7
  6
CONTINUOUS
 10
4.673035178
 20
7.4317458108
  0
VERTEX
  8
_CURVE
 62
7
  6
CONTINUOUS
 10
4.7103669538
 20
7.3476819589
  0
VERTEX
  8
_CURVE
 62
7
  6
CONTINUOUS
 10
4.74896638
 20
7.2641892132
  0
VERTEX
  8
_CURVE
 62
7
  6
CONTINUOUS
 10
4.7888142213
 20
7.181279959
  0
VERTEX
  8
_CURVE
 62
7
  6
CONTINUOUS
 10
4.8298912421
 20
7.0989665817
  0
VERTEX
  8
_CURVE
 62
7
  6
CONTINUOUS
 10
4.8721782071
 20
7.0172614666
  0
VERTEX
  8
_CURVE
 62
7
  6
CONTINUOUS
 10
4.9156558807
 20
6.9361769992
  0
VERTEX
  8
_CURVE
 62
7
  6
CONTINUOUS
 10
4.9603050275
 20
6.8557255648
  0
VERTEX
  8
_CURVE
 62
7
  6
CONTINUOUS
 10
5.006106412
 20
6.7759195488
  0
VERTEX
  8
_CURVE
 62
7
  6
CONTINUOUS
 10
5.0530407989
 20
6.6967713365
  0
VERTEX
  8
_CURVE
 62
7
  6
CONTINUOUS
 10
5.1010889526
 20
6.6182933134
  0
VERTEX
  8
_CURVE
 62
7
  6
CONTINUOUS
 10
5.1502316377
 20
6.5404978647
  0
VERTEX
  8
_CURVE
 62
7
  6
CONTINUOUS
 10
5.2004496186
 20
6.4633973758
  0
VERTEX
  8
_CURVE
 62
7
  6
CONTINUOUS
 10
5.2517236601
 20
6.3870042322
  0
VERTEX
  8
_CURVE
 62
7
  6
CONTINUOUS
 10
5.3041148601
 20
6.3112162851
  0
VERTEX
  8
_CURVE
 62
7
  6
CONTINUOUS
 10
5.3575304233
 20
6.2361573351
  0
VERTEX
  8
_CURVE
 62
7
  6
CONTINUOUS
 10
5.4119547565
 20
6.161834475
  0
VERTEX
  8
_CURVE
 62
7
  6
CONTINUOUS
 10
5.4673722663
 20
6.0882547974
  0
VERTEX
  8
_CURVE
 62
7
  6
CONTINUOUS
 10
5.5237673596
 20
6.0154253951
  0
VERTEX
  8
_CURVE
 62
7
  6
CONTINUOUS
 10
5.581124443
 20
5.9433533607
  0
VERTEX
  8
_CURVE
 62
7
  6
CONTINUOUS
 10
5.6394279233
 20
5.8720457871
  0
VERTEX
  8
_CURVE
 62
7
  6
CONTINUOUS
 10
5.6986622071
 20
5.8015097669
  0
VERTEX
  8
_CURVE
 62
7
  6
CONTINUOUS
 10
5.7588117012
 20
5.7317523929
  0
VERTEX
  8
_CURVE
 62
7
  6
CONTINUOUS
 10
5.8198608122
 20
5.6627807577
  0
VERTEX
  8
_CURVE
 62
7
  6
CONTINUOUS
 10
5.881793947
 20
5.5946019542
  0
VERTEX
  8
_CURVE
 62
7
  6
CONTINUOUS
 10
5.9445955121
 20
5.5272230749
  0
VERTEX
  8
_CURVE
 62
7
  6
CONTINUOUS
 10
6.0082499144
 20
5.4606512127
  0
VERTEX
  8
_CURVE
 62
7
  6
CONTINUOUS
 10
6.0727415605
 20
5.3948934602
  0
VERTEX
  8
_CURVE
 62
7
  6
CONTINUOUS
 10
6.143243722
 20
5.3248665378
  0
VERTEX
  8
_CURVE
 62
7
  6
CONTINUOUS
 10
6.2146829966
 20
5.2557986375
  0
VERTEX
  8
_CURVE
 62
7
  6
CONTINUOUS
 10
6.2870400457
 20
5.1876928517
  0
VERTEX
  8
_CURVE
 62
7
  6
CONTINUOUS
 10
6.3602955312
 20
5.1205522729
  0
VERTEX
  8
_CURVE
 62
7
  6
CONTINUOUS
 10
6.4344301145
 20
5.0543799932
  0
VERTEX
  8
_CURVE
 62
7
  6
CONTINUOUS
 10
6.5094244573
 20
4.9891791051
  0
VERTEX
  8
_CURVE
 62
7
  6
CONTINUOUS
 10
6.5852592213
 20
4.924952701
  0
VERTEX
  8
_CURVE
 62
7
  6
CONTINUOUS
 10
6.6619150679
 20
4.8617038731
  0
VERTEX
  8
_CURVE
 62
7
  6
CONTINUOUS
 10
6.7393726589
 20
4.7994357139
  0
VERTEX
  8
_CURVE
 62
7
  6
CONTINUOUS
 10
6.8176126559
 20
4.7381513156
  0
VERTEX
  8
_CURVE
 62
7
  6
CONTINUOUS
 10
6.8966157204
 20
4.6778537707
  0
VERTEX
  8
_CURVE
 62
7
  6
CONTINUOUS
 10
6.9763625141
 20
4.6185461715
  0
VERTEX
  8
_CURVE
 62
7
  6
CONTINUOUS
 10
7.0568336986
 20
4.5602316103
  0
VERTEX
  8
_CURVE
 62
7
  6
CONTINUOUS
 10
7.1380099356
 20
4.5029131795
  0
VERTEX
  8
_CURVE
 62
7
  6
CONTINUOUS
 10
7.2263047534
 20
4.4422298808
  0
VERTEX
  8
_CURVE
 62
7
  6
CONTINUOUS
 10
7.3153775393
 20
4.3827077309
  0
VERTEX
  8
_CURVE
 62
7
  6
CONTINUOUS
 10
7.4052090709
 20
4.324346212
  0
VERTEX
  8
_CURVE
 62
7
  6
CONTINUOUS
 10
7.4957801258
 20
4.2671448067
  0
VERTEX
  8
_CURVE
 62
7
  6
CONTINUOUS
 10
7.5870714816
 20
4.2111029974
  0
VERTEX
  8
_CURVE
 62
7
  6
CONTINUOUS
 10
7.6790639161
 20
4.1562202666
  0
VERTEX
  8
_CURVE
 62
7
  6
CONTINUOUS
 10
7.7717382066
 20
4.1024960966
  0
VERTEX
  8
_CURVE
 62
7
  6
CONTINUOUS
 10
7.865075131
 20
4.0499299701
  0
VERTEX
  8
_CURVE
 62
7
  6
CONTINUOUS
 10
7.9590554668
 20
3.9985213693
  0
VERTEX
  8
_CURVE
 62
7
  6
CONTINUOUS
 10
8.0536599916
 20
3.9482697768
  0
VERTEX
  8
_CURVE
 62
7
  6
CONTINUOUS
 10
8.1488694831
 20
3.899174675
  0
VERTEX
  8
_CURVE
 62
7
  6
CONTINUOUS
 10
8.2446647188
 20
3.8512355463
  0
VERTEX
  8
_CURVE
 62
7
  6
CONTINUOUS
 10
8.3410264765
 20
3.8044518732
  0
VERTEX
  8
_CURVE
 62
7
  6
CONTINUOUS
 10
8.4379672634
 20
3.7588086012
  0
VERTEX
  8
_CURVE
 62
7
  6
CONTINUOUS
 10
8.5354398981
 20
3.7143199335
  0
VERTEX
  8
_CURVE
 62
7
  6
CONTINUOUS
 10
8.6334285781
 20
3.670984796
  0
VERTEX
  8
_CURVE
 62
7
  6
CONTINUOUS
 10
8.7319175007
 20
3.6288021142
  0
VERTEX
  8
_CURVE
 62
7
  6
CONTINUOUS
 10
8.8308908632
 20
3.5877708139
  0
VERTEX
  8
_CURVE
 62
7
  6
CONTINUOUS
 10
8.9303328631
 20
3.5478898208
  0
VERTEX
  8
_CURVE
 62
7
  6
CONTINUOUS
 10
9.0302276976
 20
3.5091580604
  0
VERTEX
  8
_CURVE
 62
7
  6
CONTINUOUS
 10
9.1305595641
 20
3.4715744585
  0
VERTEX
  8
_CURVE
 62
7
  6
CONTINUOUS
 10
9.23131266
 20
3.4351379408
  0
VERTEX
  8
_CURVE
 62
7
  6
CONTINUOUS
 10
9.3324711826
 20
3.3998474329
  0
VERTEX
  8
_CURVE
 62
7
  6
CONTINUOUS
 10
9.4340193293
 20
3.3657018604
  0
VERTEX
  8
_CURVE
 62
7
  6
CONTINUOUS
 10
9.5359412974
 20
3.3327001492
  0
VERTEX
  8
_CURVE
 62
7
  6
CONTINUOUS
 10
9.6382212843
 20
3.3008412248
  0
VERTEX
  8
_CURVE
 62
7
  6
CONTINUOUS
 10
9.7494299817
 20
3.2676099834
  0
VERTEX
  8
_CURVE
 62
7
  6
CONTINUOUS
 10
9.861024804
 20
3.235716406
  0
VERTEX
  8
_CURVE
 62
7
  6
CONTINUOUS
 10
9.9729901107
 20
3.205157774
  0
VERTEX
  8
_CURVE
 62
7
  6
CONTINUOUS
 10
10.0853102616
 20
3.1759313688
  0
VERTEX
  8
_CURVE
 62
7
  6
CONTINUOUS
 10
10.1979696161
 20
3.1480344719
  0
VERTEX
  8
_CURVE
 62
7
  6
CONTINUOUS
 10
10.3109525337
 20
3.1214643648
  0
VERTEX
  8
_CURVE
 62
7
  6
CONTINUOUS
 10
10.4242433742
 20
3.096218329
  0
VERTEX
  8
_CURVE
 62
7
  6
CONTINUOUS
 10
10.537826497
 20
3.0722936459
  0
VERTEX
  8
_CURVE
 62
7
  6
CONTINUOUS
 10
10.6516862618
 20
3.049687597
  0
VERTEX
  8
_CURVE
 62
7
  6
CONTINUOUS
 10
10.7658070281
 20
3.0283974638
  0
VERTEX
  8
_CURVE
 62
7
  6
CONTINUOUS
 10
10.8801731554
 20
3.0084205278
  0
VERTEX
  8
_CURVE
 62
7
  6
CONTINUOUS
 10
10.9947690034
 20
2.9897540704
  0
VERTEX
  8
_CURVE
 62
7
  6
CONTINUOUS
 10
11.1036789882
 20
2.9732555266
  0
VERTEX
  8
_CURVE
 62
7
  6
CONTINUOUS
 10
11.2127684586
 20
2.9579355618
  0
VERTEX
  8
_CURVE
 62
7
  6
CONTINUOUS
 10
11.3220242397
 20
2.9437958428
  0
VERTEX
  8
_CURVE
 62
7
  6
CONTINUOUS
 10
11.4314331567
 20
2.9308380366
  0
VERTEX
  8
_CURVE
 62
7
  6
CONTINUOUS
 10
11.5409820347
 20
2.9190638103
  0
VERTEX
  8
_CURVE
 62
7
  6
CONTINUOUS
 10
11.6506576989
 20
2.9084748307
  0
VERTEX
  8
_CURVE
 62
7
  6
CONTINUOUS
 10
11.7604469744
 20
2.899072765
  0
VERTEX
  8
_CURVE
 62
7
  6
CONTINUOUS
 10
11.8703366865
 20
2.89085928
  0
VERTEX
  8
_CURVE
 62
7
  6
CONTINUOUS
 10
11.9803136602
 20
2.8838360427
  0
VERTEX
  8
_CURVE
 62
7
  6
CONTINUOUS
 10
12.0903647208
 20
2.8780047202
  0
VERTEX
  8
_CURVE
 62
7
  6
CONTINUOUS
 10
12.2004766933
 20
2.8733669793
  0
VERTEX
  8
_CURVE
 62
7
  6
CONTINUOUS
 10
12.310636403
 20
2.8699244871
  0
VERTEX
  8
_CURVE
 62
7
  6
CONTINUOUS
 10
12.420830675
 20
2.8676789105
  0
VERTEX
  8
_CURVE
 62
7
  6
CONTINUOUS
 10
12.5310463345
 20
2.8666319166
  0
VERTEX
  8
_CURVE
 62
7
  6
CONTINUOUS
 10
12.6412702066
 20
2.8667851723
  0
VERTEX
  8
_CURVE
 62
7
  6
CONTINUOUS
 10
12.7514891166
 20
2.8681403445
  0
VERTEX
  8
_CURVE
 62
7
  6
CONTINUOUS
 10
12.8616898894
 20
2.8706991004
  0
VERTEX
  8
_CURVE
 62
7
  6
CONTINUOUS
 10
12.9718593504
 20
2.8744631067
  0
VERTEX
  8
_CURVE
 62
7
  6
CONTINUOUS
 10
13.0820482075
 20
2.8794369773
  0
VERTEX
  8
_CURVE
 62
7
  6
CONTINUOUS
 10
13.1921780194
 20
2.8856190449
  0
VERTEX
  8
_CURVE
 62
7
  6
CONTINUOUS
 10
13.3022342796
 20
2.8930091836
  0
VERTEX
  8
_CURVE
 62
7
  6
CONTINUOUS
 10
13.4122024815
 20
2.9016072669
  0
VERTEX
  8
_CURVE
 62
7
  6
CONTINUOUS
 10
13.5220681184
 20
2.9114131689
  0
VERTEX
  8
_CURVE
 62
7
  6
CONTINUOUS
 10
13.6318166838
 20
2.9224267633
  0
VERTEX
  8
_CURVE
 62
7
  6
CONTINUOUS
 10
13.741433671
 20
2.9346479239
  0
VERTEX
  8
_CURVE
 62
7
  6
CONTINUOUS
 10
13.8509045736
 20
2.9480765246
  0
VERTEX
  8
_CURVE
 62
7
  6
CONTINUOUS
 10
13.9602148848
 20
2.9627124392
  0
VERTEX
  8
_CURVE
 62
7
  6
CONTINUOUS
 10
14.069350098
 20
2.9785555414
  0
VERTEX
  8
_CURVE
 62
7
  6
CONTINUOUS
 10
14.1782957067
 20
2.9956057052
  0
VERTEX
  8
_CURVE
 62
7
  6
CONTINUOUS
 10
14.2870372043
 20
3.0138628043
  0
VERTEX
  8
_CURVE
 62
7
  6
CONTINUOUS
 10
14.3955600842
 20
3.0333267127
  0
VERTEX
  8
_CURVE
 62
7
  6
CONTINUOUS
 10
14.5038498398
 20
3.053997304
  0
VERTEX
  8
_CURVE
 62
7
  6
CONTINUOUS
 10
14.6118919644
 20
3.0758744521
  0
VERTEX
  8
_CURVE
 62
7
  6
CONTINUOUS
 10
14.7196719515
 20
3.0989580308
  0
VERTEX
  8
_CURVE
 62
7
  6
CONTINUOUS
 10
14.8271752945
 20
3.123247914
  0
VERTEX
  8
_CURVE
 62
7
  6
CONTINUOUS
 10
14.9343874868
 20
3.1487439755
  0
VERTEX
  8
_CURVE
 62
7
  6
CONTINUOUS
 10
15.0391850136
 20
3.1749069364
  0
VERTEX
  8
_CURVE
 62
7
  6
CONTINUOUS
 10
15.1436759395
 20
3.2022291707
  0
VERTEX
  8
_CURVE
 62
7
  6
CONTINUOUS
 10
15.2478473623
 20
3.2307110857
  0
VERTEX
  8
_CURVE
 62
7
  6
CONTINUOUS
 10
15.3516863798
 20
3.2603530886
  0
VERTEX
  8
_CURVE
 62
7
  6
CONTINUOUS
 10
15.4551800899
 20
3.2911555868
  0
VERTEX
  8
_CURVE
 62
7
  6
CONTINUOUS
 10
15.5583155903
 20
3.3231189874
  0
VERTEX
  8
_CURVE
 62
7
  6
CONTINUOUS
 10
15.6610799789
 20
3.3562436979
  0
VERTEX
  8
_CURVE
 62
7
  6
CONTINUOUS
 10
15.7634603534
 20
3.3905301253
  0
VERTEX
  8
_CURVE
 62
7
  6
CONTINUOUS
 10
15.8654438116
 20
3.4259786771
  0
VERTEX
  8
_CURVE
 62
7
  6
CONTINUOUS
 10
15.9670174514
 20
3.4625897605
  0
VERTEX
  8
_CURVE
 62
7
  6
CONTINUOUS
 10
16.0681683705
 20
3.5003637827
  0
VERTEX
  8
_CURVE
 62
7
  6
CONTINUOUS
 10
16.1687699776
 20
3.5392568741
  0
VERTEX
  8
_CURVE
 62
7
  6
CONTINUOUS
 10
16.2689194422
 20
3.579311865
  0
VERTEX
  8
_CURVE
 62
7
  6
CONTINUOUS
 10
16.3685992663
 20
3.6205299215
  0
VERTEX
  8
_CURVE
 62
7
  6
CONTINUOUS
 10
16.4677919516
 20
3.6629122097
  0
VERTEX
  8
_CURVE
 62
7
  6
CONTINUOUS
 10
16.5664800002
 20
3.706459896
  0
VERTEX
  8
_CURVE
 62
7
  6
CONTINUOUS
 10
16.6646459139
 20
3.7511741464
  0
VERTEX
  8
_CURVE
 62
7
  6
CONTINUOUS
 10
16.7622721947
 20
3.7970561271
  0
VERTEX
  8
_CURVE
 62
7
  6
CONTINUOUS
 10
16.8593413446
 20
3.8441070043
  0
VERTEX
  8
_CURVE
 62
7
  6
CONTINUOUS
 10
16.9558358654
 20
3.8923279441
  0
VERTEX
  8
_CURVE
 62
7
  6
CONTINUOUS
 10
17.051738259
 20
3.9417201128
  0
VERTEX
  8
_CURVE
 62
7
  6
CONTINUOUS
 10
17.1470310275
 20
3.9922846765
  0
VERTEX
  8
_CURVE
 62
7
  6
CONTINUOUS
 10
17.2414175337
 20
4.043868049
  0
VERTEX
  8
_CURVE
 62
7
  6
CONTINUOUS
 10
17.3351599674
 20
4.09661771
  0
VERTEX
  8
_CURVE
 62
7
  6
CONTINUOUS
 10
17.4282376812
 20
4.1505333069
  0
VERTEX
  8
_CURVE
 62
7
  6
CONTINUOUS
 10
17.5206300278
 20
4.2056144874
  0
VERTEX
  8
_CURVE
 62
7
  6
CONTINUOUS
 10
17.6123163598
 20
4.2618608989
  0
VERTEX
  8
_CURVE
 62
7
  6
CONTINUOUS
 10
17.70327603
 20
4.3192721892
  0
VERTEX
  8
_CURVE
 62
7
  6
CONTINUOUS
 10
17.7934883909
 20
4.3778480056
  0
VERTEX
  8
_CURVE
 62
7
  6
CONTINUOUS
 10
17.8829327953
 20
4.4375879959
  0
VERTEX
  8
_CURVE
 62
7
  6
CONTINUOUS
 10
17.9715885959
 20
4.4984918076
  0
VERTEX
  8
_CURVE
 62
7
  6
CONTINUOUS
 10
18.0594351452
 20
4.5605590882
  0
VERTEX
  8
_CURVE
 62
7
  6
CONTINUOUS
 10
18.1464517959
 20
4.6237894854
  0
VERTEX
  8
_CURVE
 62
7
  6
CONTINUOUS
 10
18.225404648
 20
4.6827219498
  0
VERTEX
  8
_CURVE
 62
7
  6
CONTINUOUS
 10
18.3036269058
 20
4.7426256514
  0
VERTEX
  8
_CURVE
 62
7
  6
CONTINUOUS
 10
18.3811014792
 20
4.8034964099
  0
VERTEX
  8
_CURVE
 62
7
  6
CONTINUOUS
 10
18.4578112785
 20
4.8653300448
  0
VERTEX
  8
_CURVE
 62
7
  6
CONTINUOUS
 10
18.5337392138
 20
4.928122376
  0
VERTEX
  8
_CURVE
 62
7
  6
CONTINUOUS
 10
18.608868195
 20
4.9918692229
  0
VERTEX
  8
_CURVE
 62
7
  6
CONTINUOUS
 10
18.6831811324
 20
5.0565664053
  0
VERTEX
  8
_CURVE
 62
7
  6
CONTINUOUS
 10
18.7566609359
 20
5.1222097429
  0
VERTEX
  8
_CURVE
 62
7
  6
CONTINUOUS
 10
18.8292905158
 20
5.1887950553
  0
VERTEX
  8
_CURVE
 62
7
  6
CONTINUOUS
 10
18.901052782
 20
5.2563181621
  0
VERTEX
  8
_CURVE
 62
7
  6
CONTINUOUS
 10
18.9719306447
 20
5.3247748831
  0
VERTEX
  8
_CURVE
 62
7
  6
CONTINUOUS
 10
19.041907014
 20
5.3941610379
  0
VERTEX
  8
_CURVE
 62
7
  6
CONTINUOUS
 10
19.1065939271
 20
5.4599664941
  0
VERTEX
  8
_CURVE
 62
7
  6
CONTINUOUS
 10
19.1704589387
 20
5.5265770157
  0
VERTEX
  8
_CURVE
 62
7
  6
CONTINUOUS
 10
19.2334854507
 20
5.593986517
  0
VERTEX
  8
_CURVE
 62
7
  6
CONTINUOUS
 10
19.2956568652
 20
5.6621889123
  0
VERTEX
  8
_CURVE
 62
7
  6
CONTINUOUS
 10
19.3569565841
 20
5.731178116
  0
VERTEX
  8
_CURVE
 62
7
  6
CONTINUOUS
 10
19.4173680095
 20
5.8009480423
  0
VERTEX
  8
_CURVE
 62
7
  6
CONTINUOUS
 10
19.4768745433
 20
5.8714926056
  0
VERTEX
  8
_CURVE
 62
7
  6
CONTINUOUS
 10
19.5354595875
 20
5.9428057202
  0
VERTEX
  8
_CURVE
 62
7
  6
CONTINUOUS
 10
19.5931065441
 20
6.0148813004
  0
VERTEX
  8
_CURVE
 62
7
  6
CONTINUOUS
 10
19.6497988152
 20
6.0877132604
  0
VERTEX
  8
_CURVE
 62
7
  6
CONTINUOUS
 10
19.7055198027
 20
6.1612955146
  0
VERTEX
  8
_CURVE
 62
7
  6
CONTINUOUS
 10
19.7602529086
 20
6.2356219774
  0
SEQEND
  0
POLYLINE
  8
_CURVE
 62
7
  6
CONTINUOUS
 66
1
 70
0
  0
VERTEX
  8
_CURVE
 62
7
  6
CONTINUOUS
 10
5.714089214
 20
13.6977361875
  0
VERTEX
  8
_CURVE
 62
7
  6
CONTINUOUS
 10
5.6563182711
 20
13.6296582345
  0
VERTEX
  8
_CURVE
 62
7
  6
CONTINUOUS
 10
5.5994005322
 20
13.560861208
  0
VERTEX
  8
_CURVE
 62
7
  6
CONTINUOUS
 10
5.5433542356
 20
13.4913548546
  0
VERTEX
  8
_CURVE
 62
7
  6
CONTINUOUS
 10
5.4881976194
 20
13.4211489206
  0
VERTEX
  8
_CURVE
 62
7
  6
CONTINUOUS
 10
5.4339489218
 20
13.3502531527
  0
VERTEX
  8
_CURVE
 62
7
  6
CONTINUOUS
 10
5.3806263813
 20
13.2786772973
  0
VERTEX
  8
_CURVE
 62
7
  6
CONTINUOUS
 10
5.3282482359
 20
13.2064311009
  0
VERTEX
  8
_CURVE
 62
7
  6
CONTINUOUS
 10
5.276832724
 20
13.1335243099
  0
VERTEX
  8
_CURVE
 62
7
  6
CONTINUOUS
 10
5.2263980838
 20
13.0599666708
  0
VERTEX
  8
_CURVE
 62
7
  6
CONTINUOUS
 10
5.1769625535
 20
12.9857679302
  0
VERTEX
  8
_CURVE
 62
7
  6
CONTINUOUS
 10
5.1285443713
 20
12.9109378345
  0
VERTEX
  8
_CURVE
 62
7
  6
CONTINUOUS
 10
5.0811617756
 20
12.8354861301
  0
VERTEX
  8
_CURVE
 62
7
  6
CONTINUOUS
 10
5.0348330045
 20
12.7594225637
  0
VERTEX
  8
_CURVE
 62
7
  6
CONTINUOUS
 10
4.9895762963
 20
12.6827568815
  0
VERTEX
  8
_CURVE
 62
7
  6
CONTINUOUS
 10
4.9454098893
 20
12.6054988302
  0
VERTEX
  8
_CURVE
 62
7
  6
CONTINUOUS
 10
4.9023520217
 20
12.5276581563
  0
VERTEX
  8
_CURVE
 62
7
  6
CONTINUOUS
 10
4.8604209317
 20
12.4492446061
  0
VERTEX
  8
_CURVE
 62
7
  6
CONTINUOUS
 10
4.8196348576
 20
12.3702679262
  0
VERTEX
  8
_CURVE
 62
7
  6
CONTINUOUS
 10
4.7800120376
 20
12.2907378631
  0
VERTEX
  8
_CURVE
 62
7
  6
CONTINUOUS
 10
4.7415707099
 20
12.2106641633
  0
VERTEX
  8
_CURVE
 62
7
  6
CONTINUOUS
 10
4.7043291129
 20
12.1300565731
  0
VERTEX
  8
_CURVE
 62
7
  6
CONTINUOUS
 10
4.6683054848
 20
12.0489248392
  0
VERTEX
  8
_CURVE
 62
7
  6
CONTINUOUS
 10
4.6335180637
 20
11.967278708
  0
VERTEX
  8
_CURVE
 62
7
  6
CONTINUOUS
 10
4.600284338
 20
11.8858840538
  0
VERTEX
  8
_CURVE
 62
7
  6
CONTINUOUS
 10
4.5682868061
 20
11.8040113067
  0
VERTEX
  8
_CURVE
 62
7
  6
CONTINUOUS
 10
4.5375300945
 20
11.721677821
  0
VERTEX
  8
_CURVE
 62
7
  6
CONTINUOUS
 10
4.5080188293
 20
11.6389009508
  0
VERTEX
  8
_CURVE
 62
7
  6
CONTINUOUS
 10
4.479757637
 20
11.5556980507
  0
VERTEX
  8
_CURVE
 62
7
  6
CONTINUOUS
 10
4.4527511439
 20
11.4720864749
  0
VERTEX
  8
_CURVE
 62
7
  6
CONTINUOUS
 10
4.4270039763
 20
11.3880835776
  0
VERTEX
  8
_CURVE
 62
7
  6
CONTINUOUS
 10
4.4025207606
 20
11.3037067134
  0
VERTEX
  8
_CURVE
 62
7
  6
CONTINUOUS
 10
4.379306123
 20
11.2189732364
  0
VERTEX
  8
_CURVE
 62
7
  6
CONTINUOUS
 10
4.3573646899
 20
11.133900501
  0
VERTEX
  8
_CURVE
 62
7
  6
CONTINUOUS
 10
4.3367010876
 20
11.0485058615
  0
VERTEX
  8
_CURVE
 62
7
  6
CONTINUOUS
 10
4.3173199425
 20
10.9628066722
  0
VERTEX
  8
_CURVE
 62
7
  6
CONTINUOUS
 10
4.2992258808
 20
10.8768202875
  0
VERTEX
  8
_CURVE
 62
7
  6
CONTINUOUS
 10
4.2824251438
 20
10.7905698606
  0
VERTEX
  8
_CURVE
 62
7
  6
CONTINUOUS
 10
4.2669244239
 20
10.7040704826
  0
VERTEX
  8
_CURVE
 62
7
  6
CONTINUOUS
 10
4.2527321841
 20
10.6173430109
  0
VERTEX
  8
_CURVE
 62
7
  6
CONTINUOUS
 10
4.2398568879
 20
10.5304083029
  0
VERTEX
  8
_CURVE
 62
7
  6
CONTINUOUS
 10
4.2283069982
 20
10.4432872159
  0
VERTEX
  8
_CURVE
 62
7
  6
CONTINUOUS
 10
4.2180909783
 20
10.3560006074
  0
VERTEX
  8
_CURVE
 62
7
  6
CONTINUOUS
 10
4.2092172915
 20
10.2685693348
  0
VERTEX
  8
_CURVE
 62
7
  6
CONTINUOUS
 10
4.2016944008
 20
10.1810142555
  0
VERTEX
  8
_CURVE
 62
7
  6
CONTINUOUS
 10
4.1955307695
 20
10.0933562268
  0
VERTEX
  8
_CURVE
 62
7
  6
CONTINUOUS
 10
4.1907348608
 20
10.0056161063
  0
VERTEX
  8
_CURVE
 62
7
  6
CONTINUOUS
 10
4.1873151378
 20
9.9178147513
  0
VERTEX
  8
_CURVE
 62
7
  6
CONTINUOUS
 10
4.1852800638
 20
9.8299730193
  0
VERTEX
  8
_CURVE
 62
7
  6
CONTINUOUS
 10
4.1846381019
 20
9.7421117675
  0
SEQEND
  0
LINE
  8
_CURVE
 62
2
  6
CENTER
 10
22.6637110869
 20
9.7421117675
 11
20.8911578499
 21
9.7421117675
  0
LINE
  8
_CURVE
 62
2
  6
CENTER
 10
4.4248831651
 20
9.7421117675
 11
2.6523299281
 21
9.7421117675
  0
LINE
  8
_CURVE
 62
2
  6
CENTER
 10
12.5592588303
 20
18.1538045433
 11
12.5592588303
 21
16.3812513063
  0
LINE
  8
_CURVE
 62
2
  6
CENTER
 10
12.5592588303
 20
3.0976619741
 11
12.5592588303
 21
1.3251087371
  0
POLYLINE
  8
_CURVE
 62
7
  6
CONTINUOUS
 66
1
 70
0
  0
VERTEX
  8
_CURVE
 62
7
  6
CONTINUOUS
 10
20.935250188
 20
9.7103563138
  0
VERTEX
  8
_CURVE
 62
7
  6
CONTINUOUS
 10
20.9353001897
 20
9.7418811901
  0
VERTEX
  8
_CURVE
 62
7
  6
CONTINUOUS
 10
20.9345423756
 20
9.8262682682
  0
VERTEX
  8
_CURVE
 62
7
  6
CONTINUOUS
 10
20.9324916623
 20
9.9106649192
  0
VERTEX
  8
_CURVE
 62
7
  6
CONTINUOUS
 10
20.9291553894
 20
9.9950520602
  0
VERTEX
  8
_CURVE
 62
7
  6
CONTINUOUS
 10
20.9245408968
 20
10.0794106087
  0
VERTEX
  8
_CURVE
 62
7
  6
CONTINUOUS
 10
20.9186555243
 20
10.1637214819
  0
VERTEX
  8
_CURVE
 62
7
  6
CONTINUOUS
 10
20.9115066115
 20
10.2479655972
  0
VERTEX
  8
_CURVE
 62
7
  6
CONTINUOUS
 10
20.9031014984
 20
10.3321238718
  0
VERTEX
  8
_CURVE
 62
7
  6
CONTINUOUS
 10
20.8934475246
 20
10.4161772232
  0
VERTEX
  8
_CURVE
 62
7
  6
CONTINUOUS
 10
20.88255203
 20
10.5001065685
  0
VERTEX
  8
_CURVE
 62
7
  6
CONTINUOUS
 10
20.8704223543
 20
10.5838928251
  0
VERTEX
  8
_CURVE
 62
7
  6
CONTINUOUS
 10
20.8570658374
 20
10.6675169104
  0
VERTEX
  8
_CURVE
 62
7
  6
CONTINUOUS
 10
20.8424898189
 20
10.7509597416
  0
VERTEX
  8
_CURVE
 62
7
  6
CONTINUOUS
 10
20.8267016388
 20
10.8342022361
  0
VERTEX
  8
_CURVE
 62
7
  6
CONTINUOUS
 10
20.8097086366
 20
10.9172253111
  0
VERTEX
  8
_CURVE
 62
7
  6
CONTINUOUS
 10
20.7915181524
 20
11.000009884
  0
VERTEX
  8
_CURVE
 62
7
  6
CONTINUOUS
 10
20.7721375257
 20
11.0825368721
  0
VERTEX
  8
_CURVE
 62
7
  6
CONTINUOUS
 10
20.7515740964
 20
11.1647871928
  0
VERTEX
  8
_CURVE
 62
7
  6
CONTINUOUS
 10
20.7298352043
 20
11.2467417632
  0
VERTEX
  8
_CURVE
 62
7
  6
CONTINUOUS
 10
20.7069281892
 20
11.3283815008
  0
VERTEX
  8
_CURVE
 62
7
  6
CONTINUOUS
 10
20.6828603908
 20
11.4096873229
  0
VERTEX
  8
_CURVE
 62
7
  6
CONTINUOUS
 10
20.6576391489
 20
11.4906401467
  0
VERTEX
  8
_CURVE
 62
7
  6
CONTINUOUS
 10
20.6312718033
 20
11.5712208897
  0
VERTEX
  8
_CURVE
 62
7
  6
CONTINUOUS
 10
20.6037656937
 20
11.651410469
  0
VERTEX
  8
_CURVE
 62
7
  6
CONTINUOUS
 10
20.5751281601
 20
11.731189802
  0
VERTEX
  8
_CURVE
 62
7
  6
CONTINUOUS
 10
20.545366542
 20
11.8105398061
  0
VERTEX
  8
_CURVE
 62
7
  6
CONTINUOUS
 10
20.5144881794
 20
11.8894413985
  0
VERTEX
  8
_CURVE
 62
7
  6
CONTINUOUS
 10
20.4825004119
 20
11.9678754966
  0
VERTEX
  8
_CURVE
 62
7
  6
CONTINUOUS
 10
20.4477269307
 20
12.0497133364
  0
VERTEX
  8
_CURVE
 62
7
  6
CONTINUOUS
 10
20.4117544594
 20
12.1310063153
  0
VERTEX
  8
_CURVE
 62
7
  6
CONTINUOUS
 10
20.3745991472
 20
12.2117460732
  0
VERTEX
  8
_CURVE
 62
7
  6
CONTINUOUS
 10
20.336277143
 20
12.29192425
  0
VERTEX
  8
_CURVE
 62
7
  6
CONTINUOUS
 10
20.2968045958
 20
12.3715324856
  0
VERTEX
  8
_CURVE
 62
7
  6
CONTINUOUS
 10
20.2561976546
 20
12.4505624198
  0
VERTEX
  8
_CURVE
 62
7
  6
CONTINUOUS
 10
20.2144724685
 20
12.5290056925
  0
VERTEX
  8
_CURVE
 62
7
  6
CONTINUOUS
 10
20.1716451864
 20
12.6068539436
  0
VERTEX
  8
_CURVE
 62
7
  6
CONTINUOUS
 10
20.1277319574
 20
12.6840988131
  0
VERTEX
  8
_CURVE
 62
7
  6
CONTINUOUS
 10
20.0827489305
 20
12.7607319407
  0
VERTEX
  8
_CURVE
 62
7
  6
CONTINUOUS
 10
20.0367122546
 20
12.8367449663
  0
VERTEX
  8
_CURVE
 62
7
  6
CONTINUOUS
 10
19.9896380787
 20
12.9121295298
  0
VERTEX
  8
_CURVE
 62
7
  6
CONTINUOUS
 10
19.9415425519
 20
12.9868772712
  0
VERTEX
  8
_CURVE
 62
7
  6
CONTINUOUS
 10
19.8924418232
 20
13.0609798302
  0
VERTEX
  8
_CURVE
 62
7
  6
CONTINUOUS
 10
19.8423520416
 20
13.1344288468
  0
VERTEX
  8
_CURVE
 62
7
  6
CONTINUOUS
 10
19.7912893561
 20
13.2072159608
  0
VERTEX
  8
_CURVE
 62
7
  6
CONTINUOUS
 10
19.7392699156
 20
13.2793328122
  0
VERTEX
  8
_CURVE
 62
7
  6
CONTINUOUS
 10
19.6863098693
 20
13.3507710407
  0
VERTEX
  8
_CURVE
 62
7
  6
CONTINUOUS
 10
19.632425366
 20
13.4215222863
  0
VERTEX
  8
_CURVE
 62
7
  6
CONTINUOUS
 10
19.5776325548
 20
13.4915781889
  0
VERTEX
  8
_CURVE
 62
7
  6
CONTINUOUS
 10
19.5219475848
 20
13.5609303883
  0
VERTEX
  8
_CURVE
 62
7
  6
CONTINUOUS
 10
19.4653866048
 20
13.6295705244
  0
VERTEX
  8
_CURVE
 62
7
  6
CONTINUOUS
 10
19.407965764
 20
13.6974902371
  0
VERTEX
  8
_CURVE
 62
7
  6
CONTINUOUS
 10
19.3497012113
 20
13.7646811663
  0
VERTEX
  8
_CURVE
 62
7
  6
CONTINUOUS
 10
19.2906090957
 20
13.8311349518
  0
VERTEX
  8
_CURVE
 62
7
  6
CONTINUOUS
 10
19.2307055663
 20
13.8968432336
  0
VERTEX
  8
_CURVE
 62
7
  6
CONTINUOUS
 10
19.170006772
 20
13.9617976515
  0
VERTEX
  8
_CURVE
 62
7
  6
CONTINUOUS
 10
19.1085288618
 20
14.0259898453
  0
VERTEX
  8
_CURVE
 62
7
  6
CONTINUOUS
 10
19.0462879848
 20
14.0894114551
  0
VERTEX
  8
_CURVE
 62
7
  6
CONTINUOUS
 10
18.9757110469
 20
14.1595010741
  0
VERTEX
  8
_CURVE
 62
7
  6
CONTINUOUS
 10
18.9042148875
 20
14.2286132524
  0
VERTEX
  8
_CURVE
 62
7
  6
CONTINUOUS
 10
18.8318165755
 20
14.2967471171
  0
VERTEX
  8
_CURVE
 62
7
  6
CONTINUOUS
 10
18.7585331801
 20
14.3639017953
  0
VERTEX
  8
_CURVE
 62
7
  6
CONTINUOUS
 10
18.6843817703
 20
14.4300764141
  0
VERTEX
  8
_CURVE
 62
7
  6
CONTINUOUS
 10
18.6093794153
 20
14.4952701005
  0
VERTEX
  8
_CURVE
 62
7
  6
CONTINUOUS
 10
18.5335431842
 20
14.5594819817
  0
VERTEX
  8
_CURVE
 62
7
  6
CONTINUOUS
 10
18.4568901459
 20
14.6227111848
  0
VERTEX
  8
_CURVE
 62
7
  6
CONTINUOUS
 10
18.3794373697
 20
14.6849568368
  0
VERTEX
  8
_CURVE
 62
7
  6
CONTINUOUS
 10
18.3012019246
 20
14.7462180648
  0
VERTEX
  8
_CURVE
 62
7
  6
CONTINUOUS
 10
18.2222008797
 20
14.806493996
  0
VERTEX
  8
_CURVE
 62
7
  6
CONTINUOUS
 10
18.1424513041
 20
14.8657837574
  0
VERTEX
  8
_CURVE
 62
7
  6
CONTINUOUS
 10
18.0619702669
 20
14.9240864761
  0
VERTEX
  8
_CURVE
 62
7
  6
CONTINUOUS
 10
17.9807748371
 20
14.9814012792
  0
VERTEX
  8
_CURVE
 62
7
  6
CONTINUOUS
 10
17.8988820838
 20
15.0377272937
  0
VERTEX
  8
_CURVE
 62
7
  6
CONTINUOUS
 10
17.8163090763
 20
15.0930636469
  0
VERTEX
  8
_CURVE
 62
7
  6
CONTINUOUS
 10
17.7330728834
 20
15.1474094658
  0
VERTEX
  8
_CURVE
 62
7
  6
CONTINUOUS
 10
17.6491905744
 20
15.2007638774
  0
VERTEX
  8
_CURVE
 62
7
  6
CONTINUOUS
 10
17.5646792183
 20
15.2531260089
  0
VERTEX
  8
_CURVE
 62
7
  6
CONTINUOUS
 10
17.4795558842
 20
15.3044949873
  0
VERTEX
  8
_CURVE
 62
7
  6
CONTINUOUS
 10
17.3938376412
 20
15.3548699398
  0
VERTEX
  8
_CURVE
 62
7
  6
CONTINUOUS
 10
17.3075415583
 20
15.4042499935
  0
VERTEX
  8
_CURVE
 62
7
  6
CONTINUOUS
 10
17.2206847047
 20
15.4526342753
  0
VERTEX
  8
_CURVE
 62
7
  6
CONTINUOUS
 10
17.1332841495
 20
15.5000219125
  0
VERTEX
  8
_CURVE
 62
7
  6
CONTINUOUS
 10
17.0453569618
 20
15.5464120321
  0
VERTEX
  8
_CURVE
 62
7
  6
CONTINUOUS
 10
16.9569202105
 20
15.5918037612
  0
VERTEX
  8
_CURVE
 62
7
  6
CONTINUOUS
 10
16.8679909649
 20
15.6361962268
  0
VERTEX
  8
_CURVE
 62
7
  6
CONTINUOUS
 10
16.7785862941
 20
15.6795885562
  0
VERTEX
  8
_CURVE
 62
7
  6
CONTINUOUS
 10
16.6815559205
 20
15.7253088546
  0
VERTEX
  8
_CURVE
 62
7
  6
CONTINUOUS
 10
16.5840058626
 20
15.7698644756
  0
VERTEX
  8
_CURVE
 62
7
  6
CONTINUOUS
 10
16.4859505996
 20
15.8132573079
  0
VERTEX
  8
_CURVE
 62
7
  6
CONTINUOUS
 10
16.3874046108
 20
15.8554892403
  0
VERTEX
  8
_CURVE
 62
7
  6
CONTINUOUS
 10
16.2883823756
 20
15.8965621615
  0
VERTEX
  8
_CURVE
 62
7
  6
CONTINUOUS
 10
16.1888983733
 20
15.9364779601
  0
VERTEX
  8
_CURVE
 62
7
  6
CONTINUOUS
 10
16.0889670831
 20
15.975238525
  0
VERTEX
  8
_CURVE
 62
7
  6
CONTINUOUS
 10
15.9886029845
 20
16.0128457447
  0
VERTEX
  8
_CURVE
 62
7
  6
CONTINUOUS
 10
15.8878205566
 20
16.0493015081
  0
VERTEX
  8
_CURVE
 62
7
  6
CONTINUOUS
 10
15.7866342789
 20
16.0846077038
  0
VERTEX
  8
_CURVE
 62
7
  6
CONTINUOUS
 10
15.6850586306
 20
16.1187662205
  0
VERTEX
  8
_CURVE
 62
7
  6
CONTINUOUS
 10
15.5831080911
 20
16.1517789471
  0
VERTEX
  8
_CURVE
 62
7
  6
CONTINUOUS
 10
15.4807971396
 20
16.1836477721
  0
VERTEX
  8
_CURVE
 62
7
  6
CONTINUOUS
 10
15.3781402555
 20
16.2143745843
  0
VERTEX
  8
_CURVE
 62
7
  6
CONTINUOUS
 10
15.2751519181
 20
16.2439612724
  0
VERTEX
  8
_CURVE
 62
7
  6
CONTINUOUS
 10
15.1718466068
 20
16.2724097251
  0
VERTEX
  8
_CURVE
 62
7
  6
CONTINUOUS
 10
15.0682388007
 20
16.2997218312
  0
VERTEX
  8
_CURVE
 62
7
  6
CONTINUOUS
 10
14.9643429793
 20
16.3258994793
  0
VERTEX
  8
_CURVE
 62
7
  6
CONTINUOUS
 10
14.8601736219
 20
16.3509445582
  0
VERTEX
  8
_CURVE
 62
7
  6
CONTINUOUS
 10
14.7557452077
 20
16.3748589565
  0
VERTEX
  8
_CURVE
 62
7
  6
CONTINUOUS
 10
14.6510722161
 20
16.3976445631
  0
VERTEX
  8
_CURVE
 62
7
  6
CONTINUOUS
 10
14.5461691264
 20
16.4193032665
  0
VERTEX
  8
_CURVE
 62
7
  6
CONTINUOUS
 10
14.4410504179
 20
16.4398369556
  0
VERTEX
  8
_CURVE
 62
7
  6
CONTINUOUS
 10
14.3357305699
 20
16.4592475191
  0
VERTEX
  8
_CURVE
 62
7
  6
CONTINUOUS
 10
14.2302240618
 20
16.4775368455
  0
VERTEX
  8
_CURVE
 62
7
  6
CONTINUOUS
 10
14.1245453729
 20
16.4947068238
  0
VERTEX
  8
_CURVE
 62
7
  6
CONTINUOUS
 10
14.0154692335
 20
16.5112321852
  0
VERTEX
  8
_CURVE
 62
7
  6
CONTINUOUS
 10
13.9062374028
 20
16.5265697955
  0
VERTEX
  8
_CURVE
 62
7
  6
CONTINUOUS
 10
13.7968616841
 20
16.5407187578
  0
VERTEX
  8
_CURVE
 62
7
  6
CONTINUOUS
 10
13.687353881
 20
16.5536781751
  0
VERTEX
  8
_CURVE
 62
7
  6
CONTINUOUS
 10
13.5777257967
 20
16.5654471505
  0
VERTEX
  8
_CURVE
 62
7
  6
CONTINUOUS
 10
13.4679892349
 20
16.576024787
  0
VERTEX
  8
_CURVE
 62
7
  6
CONTINUOUS
 10
13.358155999
 20
16.5854101877
  0
VERTEX
  8
_CURVE
 62
7
  6
CONTINUOUS
 10
13.2482378923
 20
16.5936024556
  0
VERTEX
  8
_CURVE
 62
7
  6
CONTINUOUS
 10
13.1382467184
 20
16.6006006939
  0
VERTEX
  8
_CURVE
 62
7
  6
CONTINUOUS
 10
13.0281942807
 20
16.6064040054
  0
VERTEX
  8
_CURVE
 62
7
  6
CONTINUOUS
 10
12.9180923827
 20
16.6110114933
  0
VERTEX
  8
_CURVE
 62
7
  6
CONTINUOUS
 10
12.8079528278
 20
16.6144222607
  0
VERTEX
  8
_CURVE
 62
7
  6
CONTINUOUS
 10
12.6977874194
 20
16.6166354106
  0
VERTEX
  8
_CURVE
 62
7
  6
CONTINUOUS
 10
12.5876079611
 20
16.617650046
  0
VERTEX
  8
_CURVE
 62
7
  6
CONTINUOUS
 10
12.4774262562
 20
16.61746527
  0
VERTEX
  8
_CURVE
 62
7
  6
CONTINUOUS
 10
12.3672541082
 20
16.6160801857
  0
VERTEX
  8
_CURVE
 62
7
  6
CONTINUOUS
 10
12.2571033205
 20
16.6134938961
  0
VERTEX
  8
_CURVE
 62
7
  6
CONTINUOUS
 10
12.1469856967
 20
16.6097055042
  0
VERTEX
  8
_CURVE
 62
7
  6
CONTINUOUS
 10
12.0368571236
 20
16.6047113435
  0
VERTEX
  8
_CURVE
 62
7
  6
CONTINUOUS
 10
11.92678659
 20
16.5985125543
  0
VERTEX
  8
_CURVE
 62
7
  6
CONTINUOUS
 10
11.8167871221
 20
16.5911087346
  0
VERTEX
  8
_CURVE
 62
7
  6
CONTINUOUS
 10
11.7068717464
 20
16.5824994823
  0
VERTEX
  8
_CURVE
 62
7
  6
CONTINUOUS
 10
11.5970534891
 20
16.5726843954
  0
VERTEX
  8
_CURVE
 62
7
  6
CONTINUOUS
 10
11.4873453766
 20
16.5616630718
  0
VERTEX
  8
_CURVE
 62
7
  6
CONTINUOUS
 10
11.3777604353
 20
16.5494351095
  0
VERTEX
  8
_CURVE
 62
7
  6
CONTINUOUS
 10
11.2683116913
 20
16.5360001064
  0
VERTEX
  8
_CURVE
 62
7
  6
CONTINUOUS
 10
11.1590121711
 20
16.5213576606
  0
VERTEX
  8
_CURVE
 62
7
  6
CONTINUOUS
 10
11.0498749011
 20
16.5055073698
  0
VERTEX
  8
_CURVE
 62
7
  6
CONTINUOUS
 10
10.9409129074
 20
16.4884488322
  0
VERTEX
  8
_CURVE
 62
7
  6
CONTINUOUS
 10
10.8321392166
 20
16.4701816456
  0
VERTEX
  8
_CURVE
 62
7
  6
CONTINUOUS
 10
10.7235668548
 20
16.4507054081
  0
VERTEX
  8
_CURVE
 62
7
  6
CONTINUOUS
 10
10.6152088484
 20
16.4300197174
  0
VERTEX
  8
_CURVE
 62
7
  6
CONTINUOUS
 10
10.5070782238
 20
16.4081241717
  0
VERTEX
  8
_CURVE
 62
7
  6
CONTINUOUS
 10
10.3991880073
 20
16.3850183688
  0
VERTEX
  8
_CURVE
 62
7
  6
CONTINUOUS
 10
10.2915512251
 20
16.3607019068
  0
VERTEX
  8
_CURVE
 62
7
  6
CONTINUOUS
 10
10.1841809037
 20
16.3351743835
  0
VERTEX
  8
_CURVE
 62
7
  6
CONTINUOUS
 10
10.0795330046
 20
16.3090594472
  0
VERTEX
  8
_CURVE
 62
7
  6
CONTINUOUS
 10
9.9751682496
 20
16.2817869829
  0
VERTEX
  8
_CURVE
 62
7
  6
CONTINUOUS
 10
9.8711029145
 20
16.2533562287
  0
VERTEX
  8
_CURVE
 62
7
  6
CONTINUOUS
 10
9.7673532749
 20
16.2237664232
  0
VERTEX
  8
_CURVE
 62
7
  6
CONTINUOUS
 10
9.6639356066
 20
16.1930168048
  0
VERTEX
  8
_CURVE
 62
7
  6
CONTINUOUS
 10
9.5608661854
 20
16.1611066117
  0
VERTEX
  8
_CURVE
 62
7
  6
CONTINUOUS
 10
9.4581612868
 20
16.1280350824
  0
VERTEX
  8
_CURVE
 62
7
  6
CONTINUOUS
 10
9.3558371868
 20
16.0938014553
  0
VERTEX
  8
_CURVE
 62
7
  6
CONTINUOUS
 10
9.253910161
 20
16.0584049687
  0
VERTEX
  8
_CURVE
 62
7
  6
CONTINUOUS
 10
9.152396485
 20
16.021844861
  0
VERTEX
  8
_CURVE
 62
7
  6
CONTINUOUS
 10
9.0513124347
 20
15.9841203706
  0
VERTEX
  8
_CURVE
 62
7
  6
CONTINUOUS
 10
8.9506742858
 20
15.9452307359
  0
VERTEX
  8
_CURVE
 62
7
  6
CONTINUOUS
 10
8.8504983139
 20
15.9051751953
  0
VERTEX
  8
_CURVE
 62
7
  6
CONTINUOUS
 10
8.7508007948
 20
15.8639529871
  0
VERTEX
  8
_CURVE
 62
7
  6
CONTINUOUS
 10
8.6515980043
 20
15.8215633498
  0
VERTEX
  8
_CURVE
 62
7
  6
CONTINUOUS
 10
8.552906218
 20
15.7780055217
  0
VERTEX
  8
_CURVE
 62
7
  6
CONTINUOUS
 10
8.4547417116
 20
15.7332787411
  0
VERTEX
  8
_CURVE
 62
7
  6
CONTINUOUS
 10
8.357120761
 20
15.6873822465
  0
VERTEX
  8
_CURVE
 62
7
  6
CONTINUOUS
 10
8.2600596418
 20
15.6403152763
  0
VERTEX
  8
_CURVE
 62
7
  6
CONTINUOUS
 10
8.1635746297
 20
15.5920770688
  0
VERTEX
  8
_CURVE
 62
7
  6
CONTINUOUS
 10
8.0676820005
 20
15.5426668625
  0
VERTEX
  8
_CURVE
 62
7
  6
CONTINUOUS
 10
7.9723980298
 20
15.4920838956
  0
VERTEX
  8
_CURVE
 62
7
  6
CONTINUOUS
 10
7.8859772053
 20
15.4448922759
  0
VERTEX
  8
_CURVE
 62
7
  6
CONTINUOUS
 10
7.8000924641
 20
15.3967234561
  0
VERTEX
  8
_CURVE
 62
7
  6
CONTINUOUS
 10
7.7147592971
 20
15.3475778212
  0
VERTEX
  8
_CURVE
 62
7
  6
CONTINUOUS
 10
7.6299931952
 20
15.2974557567
  0
VERTEX
  8
_CURVE
 62
7
  6
CONTINUOUS
 10
7.5458096493
 20
15.2463576478
  0
VERTEX
  8
_CURVE
 62
7
  6
CONTINUOUS
 10
7.4622241504
 20
15.1942838798
  0
VERTEX
  8
_CURVE
 62
7
  6
CONTINUOUS
 10
7.3792521892
 20
15.141234838
  0
VERTEX
  8
_CURVE
 62
7
  6
CONTINUOUS
 10
7.2969092567
 20
15.0872109075
  0
VERTEX
  8
_CURVE
 62
7
  6
CONTINUOUS
 10
7.2152108438
 20
15.0322124738
  0
VERTEX
  8
_CURVE
 62
7
  6
CONTINUOUS
 10
7.1341724414
 20
14.9762399221
  0
VERTEX
  8
_CURVE
 62
7
  6
CONTINUOUS
 10
7.0538095404
 20
14.9192936376
  0
VERTEX
  8
_CURVE
 62
7
  6
CONTINUOUS
 10
6.9741376317
 20
14.8613740056
  0
VERTEX
  8
_CURVE
 62
7
  6
CONTINUOUS
 10
6.8951722062
 20
14.8024814115
  0
VERTEX
  8
_CURVE
 62
7
  6
CONTINUOUS
 10
6.8169287548
 20
14.7426162404
  0
VERTEX
  8
_CURVE
 62
7
  6
CONTINUOUS
 10
6.7394227684
 20
14.6817788777
  0
VERTEX
  8
_CURVE
 62
7
  6
CONTINUOUS
 10
6.6626697378
 20
14.6199697087
  0
VERTEX
  8
_CURVE
 62
7
  6
CONTINUOUS
 10
6.586685154
 20
14.5571891185
  0
VERTEX
  8
_CURVE
 62
7
  6
CONTINUOUS
 10
6.5114845079
 20
14.4934374926
  0
VERTEX
  8
_CURVE
 62
7
  6
CONTINUOUS
 10
6.4370832904
 20
14.4287152161
  0
VERTEX
  8
_CURVE
 62
7
  6
CONTINUOUS
 10
6.3634969924
 20
14.3630226744
  0
VERTEX
  8
_CURVE
 62
7
  6
CONTINUOUS
 10
6.2907411047
 20
14.2963602527
  0
VERTEX
  8
_CURVE
 62
7
  6
CONTINUOUS
 10
6.2188311183
 20
14.2287283363
  0
VERTEX
  8
_CURVE
 62
7
  6
CONTINUOUS
 10
6.147782524
 20
14.1601273104
  0
VERTEX
  8
_CURVE
 62
7
  6
CONTINUOUS
 10
6.0776108129
 20
14.0905575604
  0
VERTEX
  8
_CURVE
 62
7
  6
CONTINUOUS
 10
6.0151036493
 20
14.0269987242
  0
VERTEX
  8
_CURVE
 62
7
  6
CONTINUOUS
 10
5.9533402602
 20
13.9626623356
  0
VERTEX
  8
_CURVE
 62
7
  6
CONTINUOUS
 10
5.8923388839
 20
13.8975581411
  0
VERTEX
  8
_CURVE
 62
7
  6
CONTINUOUS
 10
5.8321177586
 20
13.8316958873
  0
VERTEX
  8
_CURVE
 62
7
  6
CONTINUOUS
 10
5.7726951226
 20
13.7650853206
  0
VERTEX
  8
_CURVE
 62
7
  6
CONTINUOUS
 10
5.714089214
 20
13.6977361875
  0
SEQEND
  0
LINE
  8
_CURVE
 62
2
  6
CENTER
 10
22.9258462886
 20
19.1177217675
 11
2.192671372
 21
19.1177217675
  0
POLYLINE
  8
_CURVE
 62
7
  6
CONTINUOUS
 66
1
 70
0
  0
VERTEX
  8
_CURVE
 62
7
  6
CONTINUOUS
 10
19.7602529086
 20
6.2356219774
  0
VERTEX
  8
_CURVE
 62
7
  6
CONTINUOUS
 10
19.813981535
 20
6.310686563
  0
VERTEX
  8
_CURVE
 62
7
  6
CONTINUOUS
 10
19.8666890837
 20
6.3864831857
  0
VERTEX
  8
_CURVE
 62
7
  6
CONTINUOUS
 10
19.9182848212
 20
6.4628946325
  0
VERTEX
  8
_CURVE
 62
7
  6
CONTINUOUS
 10
19.96882442
 20
6.5400183925
  0
VERTEX
  8
_CURVE
 62
7
  6
CONTINUOUS
 10
20.0182864444
 20
6.6178429073
  0
VERTEX
  8
_CURVE
 62
7
  6
CONTINUOUS
 10
20.0666494585
 20
6.6963566183
  0
VERTEX
  8
_CURVE
 62
7
  6
CONTINUOUS
 10
20.1138920264
 20
6.7755479672
  0
VERTEX
  8
_CURVE
 62
7
  6
CONTINUOUS
 10
20.1599927123
 20
6.8554053955
  0
VERTEX
  8
_CURVE
 62
7
  6
CONTINUOUS
 10
20.2049300803
 20
6.9359173447
  0
VERTEX
  8
_CURVE
 62
7
  6
CONTINUOUS
 10
20.2486826946
 20
7.0170722564
  0
VERTEX
  8
_CURVE
 62
7
  6
CONTINUOUS
 10
20.2912291193
 20
7.0988585721
  0
VERTEX
  8
_CURVE
 62
7
  6
CONTINUOUS
 10
20.3325479185
 20
7.1812647333
  0
VERTEX
  8
_CURVE
 62
7
  6
CONTINUOUS
 10
20.3726176564
 20
7.2642791817
  0
VERTEX
  8
_CURVE
 62
7
  6
CONTINUOUS
 10
20.4114168972
 20
7.3478903588
  0
VERTEX
  8
_CURVE
 62
7
  6
CONTINUOUS
 10
20.4489242049
 20
7.4320867061
  0
VERTEX
  8
_CURVE
 62
7
  6
CONTINUOUS
 10
20.4851181437
 20
7.5168566651
  0
VERTEX
  8
_CURVE
 62
7
  6
CONTINUOUS
 10
20.5183917914
 20
7.5982158706
  0
VERTEX
  8
_CURVE
 62
7
  6
CONTINUOUS
 10
20.5504448798
 20
7.6800669168
  0
VERTEX
  8
_CURVE
 62
7
  6
CONTINUOUS
 10
20.5812706702
 20
7.7623905348
  0
VERTEX
  8
_CURVE
 62
7
  6
CONTINUOUS
 10
20.6108624241
 20
7.8451674553
  0
VERTEX
  8
_CURVE
 62
7
  6
CONTINUOUS
 10
20.6392134028
 20
7.9283784092
  0
VERTEX
  8
_CURVE
 62
7
  6
CONTINUOUS
 10
20.6663168677
 20
8.0120041275
  0
VERTEX
  8
_CURVE
 62
7
  6
CONTINUOUS
 10
20.6921660803
 20
8.0960253408
  0
VERTEX
  8
_CURVE
 62
7
  6
CONTINUOUS
 10
20.716754302
 20
8.1804227802
  0
VERTEX
  8
_CURVE
 62
7
  6
CONTINUOUS
 10
20.7400747941
 20
8.2651771765
  0
VERTEX
  8
_CURVE
 62
7
  6
CONTINUOUS
 10
20.7621208181
 20
8.3502692605
  0
VERTEX
  8
_CURVE
 62
7
  6
CONTINUOUS
 10
20.7828856353
 20
8.4356797632
  0
VERTEX
  8
_CURVE
 62
7
  6
CONTINUOUS
 10
20.8023625072
 20
8.5213894154
  0
VERTEX
  8
_CURVE
 62
7
  6
CONTINUOUS
 10
20.8205446952
 20
8.6073789479
  0
VERTEX
  8
_CURVE
 62
7
  6
CONTINUOUS
 10
20.8369682542
 20
8.6912002897
  0
VERTEX
  8
_CURVE
 62
7
  6
CONTINUOUS
 10
20.8521545428
 20
8.7752515802
  0
VERTEX
  8
_CURVE
 62
7
  6
CONTINUOUS
 10
20.866095541
 20
8.8595166093
  0
VERTEX
  8
_CURVE
 62
7
  6
CONTINUOUS
 10
20.878783229
 20
8.943979167
  0
VERTEX
  8
_CURVE
 62
7
  6
CONTINUOUS
 10
20.890209587
 20
9.0286230432
  0
VERTEX
  8
_CURVE
 62
7
  6
CONTINUOUS
 10
20.9003665951
 20
9.1134320279
  0
VERTEX
  8
_CURVE
 62
7
  6
CONTINUOUS
 10
20.9092462335
 20
9.198389911
  0
VERTEX
  8
_CURVE
 62
7
  6
CONTINUOUS
 10
20.9168404823
 20
9.2834804825
  0
VERTEX
  8
_CURVE
 62
7
  6
CONTINUOUS
 10
20.9231413217
 20
9.3686875324
  0
VERTEX
  8
_CURVE
 62
7
  6
CONTINUOUS
 10
20.9281407318
 20
9.4539948504
  0
VERTEX
  8
_CURVE
 62
7
  6
CONTINUOUS
 10
20.9318306928
 20
9.5393862268
  0
VERTEX
  8
_CURVE
 62
7
  6
CONTINUOUS
 10
20.9342031848
 20
9.6248454512
  0
VERTEX
  8
_CURVE
 62
7
  6
CONTINUOUS
 10
20.935250188
 20
9.7103563138
  0
SEQEND
  0
POLYLINE
  8
_CURVE
 62
8
  6
PHANTOM
 66
1
 70
0
  0
VERTEX
  8
_CURVE
 62
8
  6
PHANTOM
 10
22.3392588303
 20
9.7421117675
  0
VERTEX
  8
_CURVE
 62
8
  6
PHANTOM
 10
22.3317188047
 20
10.0660052475
  0
VERTEX
  8
_CURVE
 62
8
  6
PHANTOM
 10
22.3091103542
 20
10.3893993073
  0
VERTEX
  8
_CURVE
 62
8
  6
PHANTOM
 10
22.2714683393
 20
10.7117952965
  0
VERTEX
  8
_CURVE
 62
8
  6
PHANTOM
 10
22.2188508013
 20
11.0326961041
  0
VERTEX
  8
_CURVE
 62
8
  6
PHANTOM
 10
22.1513388726
 20
11.3516069241
  0
VERTEX
  8
_CURVE
 62
8
  6
PHANTOM
 10
22.0690366518
 20
11.6680360193
  0
VERTEX
  8
_CURVE
 62
8
  6
PHANTOM
 10
21.9720710428
 20
11.9814954789
  0
VERTEX
  8
_CURVE
 62
8
  6
PHANTOM
 10
21.8605915596
 20
12.2915019711
  0
VERTEX
  8
_CURVE
 62
8
  6
PHANTOM
 10
21.7347700956
 20
12.5975774884
  0
VERTEX
  8
_CURVE
 62
8
  6
PHANTOM
 10
21.5948006582
 20
12.8992500845
  0
VERTEX
  8
_CURVE
 62
8
  6
PHANTOM
 10
21.4408990703
 20
13.1960546022
  0
VERTEX
  8
_CURVE
 62
8
  6
PHANTOM
 10
21.2733026368
 20
13.4875333904
  0
VERTEX
  8
_CURVE
 62
8
  6
PHANTOM
 10
21.0922697794
 20
13.7732370099
  0
VERTEX
  8
_CURVE
 62
8
  6
PHANTOM
 10
20.8980796377
 20
14.0527249264
  0
VERTEX
  8
_CURVE
 62
8
  6
PHANTOM
 10
20.6910316386
 20
14.3255661899
  0
VERTEX
  8
_CURVE
 62
8
  6
PHANTOM
 10
20.4714450353
 20
14.5913400989
  0
VERTEX
  8
_CURVE
 62
8
  6
PHANTOM
 10
20.2396584143
 20
14.8496368493
  0
VERTEX
  8
_CURVE
 62
8
  6
PHANTOM
 10
19.9960291738
 20
15.1000581662
  0
VERTEX
  8
_CURVE
 62
8
  6
PHANTOM
 10
19.7409329726
 20
15.3422179182
  0
VERTEX
  8
_CURVE
 62
8
  6
PHANTOM
 10
19.4747631503
 20
15.5757427123
  0
VERTEX
  8
_CURVE
 62
8
  6
PHANTOM
 10
19.1979301216
 20
15.8002724704
  0
VERTEX
  8
_CURVE
 62
8
  6
PHANTOM
 10
18.9108607429
 20
16.0154609837
  0
VERTEX
  8
_CURVE
 62
8
  6
PHANTOM
 10
18.6139976545
 20
16.2209764473
  0
VERTEX
  8
_CURVE
 62
8
  6
PHANTOM
 10
18.3077985977
 20
16.4165019711
  0
VERTEX
  8
_CURVE
 62
8
  6
PHANTOM
 10
17.9927357092
 20
16.601736069
  0
VERTEX
  8
_CURVE
 62
8
  6
PHANTOM
 10
17.6692947932
 20
16.7763931234
  0
VERTEX
  8
_CURVE
 62
8
  6
PHANTOM
 10
17.3379745721
 20
16.9402038259
  0
VERTEX
  8
_CURVE
 62
8
  6
PHANTOM
 10
16.9992859177
 20
17.0929155921
  0
VERTEX
  8
_CURVE
 62
8
  6
PHANTOM
 10
16.6537510634
 20
17.2342929516
  0
VERTEX
  8
_CURVE
 62
8
  6
PHANTOM
 10
16.3019027988
 20
17.3641179107
  0
VERTEX
  8
_CURVE
 62
8
  6
PHANTOM
 10
15.9442836485
 20
17.4821902889
  0
VERTEX
  8
_CURVE
 62
8
  6
PHANTOM
 10
15.5814450353
 20
17.588328027
  0
VERTEX
  8
_CURVE
 62
8
  6
PHANTOM
 10
15.21394643
 20
17.6823674683
  0
VERTEX
  8
_CURVE
 62
8
  6
PHANTOM
 10
14.8423544888
 20
17.7641636108
  0
VERTEX
  8
_CURVE
 62
8
  6
PHANTOM
 10
14.4672421796
 20
17.8335903308
  0
VERTEX
  8
_CURVE
 62
8
  6
PHANTOM
 10
14.0891878984
 20
17.8905405774
  0
VERTEX
  8
_CURVE
 62
8
  6
PHANTOM
 10
13.7087745774
 20
17.9349265374
  0
VERTEX
  8
_CURVE
 62
8
  6
PHANTOM
 10
13.3265887865
 20
17.9666797708
  0
VERTEX
  8
_CURVE
 62
8
  6
PHANTOM
 10
12.9432198284
 20
17.9857513165
  0
VERTEX
  8
_CURVE
 62
8
  6
PHANTOM
 10
12.5592588303
 20
17.9921117675
  0
VERTEX
  8
_CURVE
 62
8
  6
PHANTOM
 10
12.1752978322
 20
17.9857513165
  0
VERTEX
  8
_CURVE
 62
8
  6
PHANTOM
 10
11.7919288741
 20
17.9666797708
  0
VERTEX
  8
_CURVE
 62
8
  6
PHANTOM
 10
11.4097430831
 20
17.9349265374
  0
VERTEX
  8
_CURVE
 62
8
  6
PHANTOM
 10
11.0293297622
 20
17.8905405774
  0
VERTEX
  8
_CURVE
 62
8
  6
PHANTOM
 10
10.651275481
 20
17.8335903308
  0
VERTEX
  8
_CURVE
 62
8
  6
PHANTOM
 10
10.2761631718
 20
17.7641636108
  0
VERTEX
  8
_CURVE
 62
8
  6
PHANTOM
 10
9.9045712306
 20
17.6823674683
  0
VERTEX
  8
_CURVE
 62
8
  6
PHANTOM
 10
9.5370726253
 20
17.588328027
  0
VERTEX
  8
_CURVE
 62
8
  6
PHANTOM
 10
9.1742340121
 20
17.4821902889
  0
VERTEX
  8
_CURVE
 62
8
  6
PHANTOM
 10
8.8166148617
 20
17.3641179107
  0
VERTEX
  8
_CURVE
 62
8
  6
PHANTOM
 10
8.4647665972
 20
17.2342929516
  0
VERTEX
  8
_CURVE
 62
8
  6
PHANTOM
 10
8.1192317428
 20
17.0929155921
  0
VERTEX
  8
_CURVE
 62
8
  6
PHANTOM
 10
7.7805430884
 20
16.9402038259
  0
VERTEX
  8
_CURVE
 62
8
  6
PHANTOM
 10
7.4492228674
 20
16.7763931234
  0
VERTEX
  8
_CURVE
 62
8
  6
PHANTOM
 10
7.1257819513
 20
16.601736069
  0
VERTEX
  8
_CURVE
 62
8
  6
PHANTOM
 10
6.8107190629
 20
16.4165019711
  0
VERTEX
  8
_CURVE
 62
8
  6
PHANTOM
 10
6.504520006
 20
16.2209764473
  0
VERTEX
  8
_CURVE
 62
8
  6
PHANTOM
 10
6.2076569176
 20
16.0154609837
  0
VERTEX
  8
_CURVE
 62
8
  6
PHANTOM
 10
5.920587539
 20
15.8002724704
  0
VERTEX
  8
_CURVE
 62
8
  6
PHANTOM
 10
5.6437545103
 20
15.5757427123
  0
VERTEX
  8
_CURVE
 62
8
  6
PHANTOM
 10
5.377584688
 20
15.3422179182
  0
VERTEX
  8
_CURVE
 62
8
  6
PHANTOM
 10
5.1224884867
 20
15.1000581662
  0
VERTEX
  8
_CURVE
 62
8
  6
PHANTOM
 10
4.8788592463
 20
14.8496368493
  0
VERTEX
  8
_CURVE
 62
8
  6
PHANTOM
 10
4.6470726253
 20
14.5913400989
  0
VERTEX
  8
_CURVE
 62
8
  6
PHANTOM
 10
4.427486022
 20
14.3255661899
  0
VERTEX
  8
_CURVE
 62
8
  6
PHANTOM
 10
4.2204380229
 20
14.0527249264
  0
VERTEX
  8
_CURVE
 62
8
  6
PHANTOM
 10
4.0262478811
 20
13.7732370099
  0
VERTEX
  8
_CURVE
 62
8
  6
PHANTOM
 10
3.8452150237
 20
13.4875333904
  0
VERTEX
  8
_CURVE
 62
8
  6
PHANTOM
 10
3.6776185903
 20
13.1960546022
  0
VERTEX
  8
_CURVE
 62
8
  6
PHANTOM
 10
3.5237170023
 20
12.8992500845
  0
VERTEX
  8
_CURVE
 62
8
  6
PHANTOM
 10
3.383747565
 20
12.5975774884
  0
VERTEX
  8
_CURVE
 62
8
  6
PHANTOM
 10
3.2579261009
 20
12.2915019711
  0
VERTEX
  8
_CURVE
 62
8
  6
PHANTOM
 10
3.1464466178
 20
11.9814954789
  0
VERTEX
  8
_CURVE
 62
8
  6
PHANTOM
 10
3.0494810088
 20
11.6680360193
  0
VERTEX
  8
_CURVE
 62
8
  6
PHANTOM
 10
2.9671787879
 20
11.3516069241
  0
VERTEX
  8
_CURVE
 62
8
  6
PHANTOM
 10
2.8996668593
 20
11.0326961041
  0
VERTEX
  8
_CURVE
 62
8
  6
PHANTOM
 10
2.8470493213
 20
10.7117952965
  0
VERTEX
  8
_CURVE
 62
8
  6
PHANTOM
 10
2.8094073064
 20
10.3893993073
  0
VERTEX
  8
_CURVE
 62
8
  6
PHANTOM
 10
2.7867988558
 20
10.0660052475
  0
VERTEX
  8
_CURVE
 62
8
  6
PHANTOM
 10
2.7792588303
 20
9.7421117675
  0
SEQEND
  0
LINE
  8
_CURVE
 62
2
  6
CENTER
 10
2.192671372
 20
21.1177217675
 11
22.9258462886
 21
21.1177217675
  0
CIRCLE
  8
DRAFT_ENT
 62
2
  6
CONTINUOUS
 10
8.3143977043
 20
14.5858458052
 40
0.1862854049
  0
ARC
  8
0
 62
2
  6
CONTINUOUS
 10
16.7355621975
 20
8.0131538025
 40
0.12
 50
90.0
 51
159.9601913116
  0
ARC
  8
DRAFT_ENT
 62
2
  6
CONTINUOUS
 10
9.4187921747
 20
14.6602636731
 40
0.1093854061
 50
294.4500166359
 51
90.0
  0
ARC
  8
0
 62
2
  6
CONTINUOUS
 10
17.4142021625
 20
7.9484738025
 40
0.1
 50
270.0
 51
360.0
  0
ARC
  8
0
 62
2
  6
CONTINUOUS
 10
17.2439035795
 20
7.8961997564
 40
0.0885309118
 50
212.3058638362
 51
264.8843450297
  0
ARC
  8
0
 62
2
  6
CONTINUOUS
 10
17.2439035795
 20
7.8961997564
 40
0.0885309118
 50
276.0241773206
 51
327.6941361638
  0
CIRCLE
  8
DRAFT_ENT
 62
2
  6
CONTINUOUS
 10
8.3143977043
 20
14.5858458052
 40
0.0779808993
  0
CIRCLE
  8
0
 62
7
  6
CONTINUOUS
 10
14.5898132906
 20
4.5100010887
 40
0.0755496224
  0
ARC
  8
0
 62
2
  6
CONTINUOUS
 10
16.5620010927
 20
8.0963948334
 40
0.0741554031
 50
343.9418139634
 51
72.7215708199
  0
ARC
  8
0
 62
2
  6
CONTINUOUS
 10
16.7926070773
 20
7.8452738025
 40
0.064
 50
90.0
 51
159.9445616853
  0
ARC
  8
0
 62
2
  6
CONTINUOUS
 10
16.9339206747
 20
7.9692738025
 40
0.06
 50
270.0
 51
333.2928412651
  0
ARC
  8
0
 62
2
  6
CONTINUOUS
 10
16.4931421625
 20
8.6352838025
 40
0.06
 50
90.0
 51
180.0
  0
ARC
  8
0
 62
2
  6
CONTINUOUS
 10
16.4931421625
 20
8.2272038025
 40
0.06
 50
180.0
 51
270.0
  0
ARC
  8
0
 62
2
  6
CONTINUOUS
 10
17.4033421625
 20
7.9592738025
 40
0.05
 50
270.0
 51
360.0
  0
CIRCLE
  8
DRAFT_ENT
 62
2
  6
CONTINUOUS
 10
9.65170001
 20
14.4034485374
 40
0.0408486778
  0
ARC
  8
DRAFT_ENT
 62
2
  6
CONTINUOUS
 10
9.4019408599
 20
14.6470255095
 40
0.0335073408
 50
266.1604009902
 51
89.9998910512
  0
ARC
  8
0
 62
2
  6
CONTINUOUS
 10
17.0348590296
 20
8.1031538025
 40
0.03
 50
333.2928412651
 51
90.0
  0
CIRCLE
  8
0
 62
7
  6
CONTINUOUS
 10
17.1437221625
 20
8.7746338025
 40
0.0298681023
  0
CIRCLE
  8
0
 62
7
  6
CONTINUOUS
 10
17.3400021625
 20
8.7746338025
 40
0.0298681023
  0
CIRCLE
  8
0
 62
7
  6
CONTINUOUS
 10
17.6579421625
 20
8.4603038025
 40
0.0298681023
  0
CIRCLE
  8
0
 62
7
  6
CONTINUOUS
 10
17.6579421625
 20
8.1700038025
 40
0.0298681023
  0
ARC
  8
DRAFT_ENT
 62
2
  6
CONTINUOUS
 10
9.6569458444
 20
14.4136323259
 40
0.010519658
 50
270.0
 51
90.0
  0
CIRCLE
  8
_CURVE
 62
4
  6
CONTINUOUS
 10
4.7527588303
 20
15.2081117675
 40
0.19
  0
CIRCLE
  8
_CURVE
 62
4
  6
CONTINUOUS
 10
20.3657588303
 20
15.2081117675
 40
0.19
  0
CIRCLE
  8
_CURVE
 62
4
  6
CONTINUOUS
 10
20.3657588303
 20
4.2761117675
 40
0.19
  0
CIRCLE
  8
_CURVE
 62
4
  6
CONTINUOUS
 10
4.7527588303
 20
4.2761117675
 40
0.19
  0
ENDSEC
  0
EOF
