  0
SECTION
  2
HEADER
  9
$ACADVER
  1
AC1009
  9
$INSBASE
 10
5.465707030299999
 20
32.354864364700489
 30
0.0
  9
$EXTMIN
 10
-4.2166629816257819
 20
24.28044676476048
 30
0.0
  9
$EXTMAX
 10
15.14807657347658
 20
40.429283034312832
 30
0.0
  9
$LIMMIN
 10
0.0
 20
0.0
  9
$LIMMAX
 10
11.692913385800001
 20
8.2677165353999982
  9
$ORTHOMODE
 70
     0
  9
$REGENMODE
 70
     1
  9
$FILLMODE
 70
     1
  9
$QTEXTMODE
 70
     0
  9
$MIRRTEXT
 70
     0
  9
$DRAGMODE
 70
     2
  9
$LTSCALE
 40
0.6431102362
  9
$OSMODE
 70
  3071
  9
$ATTMODE
 70
     1
  9
$TEXTSIZE
 40
0.2
  9
$TRACEWID
 40
0.05
  9
$TEXTSTYLE
  7
STANDARD
  9
$CLAYER
  8
0
  9
$CELTYPE
  6
BYLAYER
  9
$CECOLOR
 62
   256
  9
$DIMSCALE
 40
1.0
  9
$DIMASZ
 40
0.1875
  9
$DIMEXO
 40
0.0625
  9
$DIMDLI
 40
0.4443307087
  9
$DIMRND
 40
0.0
  9
$DIMDLE
 40
0.0
  9
$DIMEXE
 40
0.125
  9
$DIMTP
 40
0.0
  9
$DIMTM
 40
0.0
  9
$DIMTXT
 40
1.0
  9
$DIMCEN
 40
0.1052362205
  9
$DIMTSZ
 40
0.0
  9
$DIMTOL
 70
     0
  9
$DIMLIM
 70
     0
  9
$DIMTIH
 70
     1
  9
$DIMTOH
 70
     1
  9
$DIMSE1
 70
     0
  9
$DIMSE2
 70
     0
  9
$DIMTAD
 70
     0
  9
$DIMZIN
 70
     0
  9
$DIMBLK
  1

  9
$DIMASO
 70
     1
  9
$DIMSHO
 70
     1
  9
$DIMPOST
  1
\X
  9
$DIMAPOST
  1

  9
$DIMALT
 70
     1
  9
$DIMALTD
 70
     2
  9
$DIMALTF
 40
25.399999999999999
  9
$DIMLFAC
 40
1.0
  9
$DIMTOFL
 70
     0
  9
$DIMTVP
 40
0.0
  9
$DIMTIX
 70
     0
  9
$DIMSOXD
 70
     0
  9
$DIMSAH
 70
     0
  9
$DIMBLK1
  1

  9
$DIMBLK2
  1

  9
$DIMSTYLE
  2
STANDARD
  9
$DIMCLRD
 70
     0
  9
$DIMCLRE
 70
     0
  9
$DIMCLRT
 70
     0
  9
$DIMTFAC
 40
1.0
  9
$DIMGAP
 40
0.09
  9
$LUNITS
 70
     2
  9
$LUPREC
 70
     4
  9
$SKETCHINC
 40
0.1
  9
$FILLETRAD
 40
0.0
  9
$AUNITS
 70
     0
  9
$AUPREC
 70
     0
  9
$MENU
  1
.
  9
$ELEVATION
 40
0.0
  9
$PELEVATION
 40
0.0
  9
$THICKNESS
 40
0.0
  9
$LIMCHECK
 70
     0
  9
$BLIPMODE
 70
     0
  9
$CHAMFERA
 40
0.0
  9
$CHAMFERB
 40
0.0
  9
$SKPOLY
 70
     0
  9
$TDCREATE
 40
2458291.4536895491
  9
$TDUPDATE
 40
2458291.4992584502
  9
$TDINDWG
 40
0.0444329282
  9
$TDUSRTIMER
 40
0.0444329282
  9
$USRTIMER
 70
     1
  9
$ANGBASE
 50
0.0
  9
$ANGDIR
 70
     0
  9
$PDMODE
 70
     0
  9
$PDSIZE
 40
0.3125
  9
$PLINEWID
 40
0.0
  9
$COORDS
 70
     1
  9
$SPLFRAME
 70
     0
  9
$SPLINETYPE
 70
     6
  9
$SPLINESEGS
 70
     8
  9
$ATTDIA
 70
     1
  9
$ATTREQ
 70
     1
  9
$HANDLING
 70
     1
  9
$HANDSEED
  5
E2D
  9
$SURFTAB1
 70
     6
  9
$SURFTAB2
 70
     6
  9
$SURFTYPE
 70
     6
  9
$SURFU
 70
     6
  9
$SURFV
 70
     6
  9
$UCSNAME
  2

  9
$UCSORG
 10
0.0
 20
0.0
 30
0.0
  9
$UCSXDIR
 10
1.0
 20
0.0
 30
0.0
  9
$UCSYDIR
 10
0.0
 20
1.0
 30
0.0
  9
$PUCSNAME
  2

  9
$PUCSORG
 10
0.0
 20
0.0
 30
0.0
  9
$PUCSXDIR
 10
1.0
 20
0.0
 30
0.0
  9
$PUCSYDIR
 10
0.0
 20
1.0
 30
0.0
  9
$USERI1
 70
     0
  9
$USERI2
 70
     0
  9
$USERI3
 70
     0
  9
$USERI4
 70
     0
  9
$USERI5
 70
     0
  9
$USERR1
 40
0.0
  9
$USERR2
 40
0.0
  9
$USERR3
 40
0.0
  9
$USERR4
 40
0.0
  9
$USERR5
 40
0.0
  9
$WORLDVIEW
 70
     1
  9
$SHADEDGE
 70
     3
  9
$SHADEDIF
 70
    70
  9
$TILEMODE
 70
     1
  9
$MAXACTVP
 70
    48
  9
$PLIMCHECK
 70
     0
  9
$PEXTMIN
 10
1.0000000000000000E+020
 20
1.0000000000000000E+020
 30
1.0000000000000000E+020
  9
$PEXTMAX
 10
-1.0000000000000000E+020
 20
-1.0000000000000000E+020
 30
-1.0000000000000000E+020
  9
$PLIMMIN
 10
0.0
 20
0.0
  9
$PLIMMAX
 10
12.0
 20
9.0
  9
$UNITMODE
 70
     0
  9
$VISRETAIN
 70
     1
  9
$PLINEGEN
 70
     0
  9
$PSLTSCALE
 70
     1
  0
ENDSEC
  0
SECTION
  2
TABLES
  0
TABLE
  2
VPORT
 70
     1
  0
VPORT
  2
*ACTIVE
 70
     0
 10
0.0
 20
0.0
 11
1.0
 21
1.0
 12
0.0
 22
0.0
 13
0.0
 23
0.0
 14
1.0
 24
1.0
 15
0.0
 25
0.0
 16
-0.000000000000016
 26
0.0
 36
70.441714757970104
 17
5.4657070636749259
 27
32.354864120483398
 37
0.0
 40
25.25565260141887
 41
2.0792616720955479
 42
50.0
 43
0.0
 44
0.0
 50
0.0
 51
0.0
 71
     0
 72
   100
 73
     1
 74
     1
 75
     0
 76
     0
 77
     0
 78
     0
  0
ENDTAB
  0
TABLE
  2
LTYPE
 70
     2
  0
LTYPE
  2
CONTINUOUS
 70
     0
  3
Solid line
 72
    65
 73
     0
 40
0.0
  0
LTYPE
  2
PHANTOM2
 70
     0
  3
___ _ _ ___ _ _ ___ _ _ ___ _ _
 72
    65
 73
     6
 40
1.25
 49
0.625
 49
-0.125
 49
0.125
 49
-0.125
 49
0.125
 49
-0.125
  0
ENDTAB
  0
TABLE
  2
LAYER
 70
     3
  0
LAYER
  2
0
 70
     0
 62
     7
  6
CONTINUOUS
  0
LAYER
  2
DEFPOINTS
 70
     0
 62
     7
  6
CONTINUOUS
  0
ENDTAB
  0
TABLE
  2
STYLE
 70
     1
  0
STYLE
  2
STANDARD
 70
     0
 40
0.0
 41
0.8
 50
0.0
 71
     0
 42
0.2
  3
txt
  4

  0
ENDTAB
  0
TABLE
  2
VIEW
 70
     0
  0
ENDTAB
  0
TABLE
  2
UCS
 70
     0
  0
ENDTAB
  0
TABLE
  2
APPID
 70
     7
  0
APPID
  2
ACAD
 70
     0
  0
APPID
  2
ACAD_MLEADERVER
 70
     0
  0
APPID
  2
ACAD_NAV_VCDISPLAY
 70
     0
  0
APPID
  2
ACAD_DSTYLE_DIMJAG
 70
     0
  0
APPID
  2
ACAD_DSTYLE_DIMTALN
 70
     0
  0
APPID
  2
ACAD_EXEMPT_FROM_CAD_STANDARDS
 70
     0
  0
APPID
  2
AcDbAttr
 70
     0
  0
ENDTAB
  0
TABLE
  2
DIMSTYLE
 70
     1
  0
DIMSTYLE
  2
STANDARD
 70
     0
  3

  4

  5

  6

  7

 40
1.0
 41
0.1875
 42
0.0625
 43
0.38
 44
0.125
 45
0.0
 46
0.0
 47
1.5
 48
1.5
140
0.15625
141
0.09
142
0.0
143
25.399999999999999
144
1.0
145
0.0
146
1.0
147
0.09
 71
     0
 72
     0
 73
     1
 74
     1
 75
     0
 76
     0
 77
     0
 78
     4
170
     0
171
     2
172
     0
173
     0
174
     0
175
     0
176
     0
177
     0
178
     0
  0
ENDTAB
  0
ENDSEC
  0
SECTION
  2
BLOCKS
  0
BLOCK
  8
0
  2
$MODEL_SPACE
 70
     0
 10
0.0
 20
0.0
 30
0.0
  3
$MODEL_SPACE
  1

  0
ENDBLK
  5
21
  8
0
  0
BLOCK
 67
     1
  8
0
  2
$PAPER_SPACE
 70
     0
 10
0.0
 20
0.0
 30
0.0
  3
$PAPER_SPACE
  1

  0
ENDBLK
  5
1D
 67
     1
  8
0
  0
BLOCK
  8
0
  2
*U9
 70
     1
 10
0.0
 20
0.0
 30
0.0
  3
*U9
  1

  0
TEXT
  5
DE5
  8
0
 62
     0
 10
-12.12942846977389
 20
33.111531031366653
 30
0.0
 40
1.0
  1
16
 41
0.8
  0
TEXT
  5
DE6
  8
0
 62
     0
 10
-10.52942846977388
 20
33.778197698033331
 30
0.0
 40
1.0
  1
3
 41
0.8
  0
LINE
  5
DE7
  8
0
 62
     0
 10
-10.796095136440551
 20
33.61153103136666
 30
0.0
 11
-9.7294284697738878
 21
33.61153103136666
 31
0.0
  0
TEXT
  5
DE8
  8
0
 62
     0
 10
-10.796095136440551
 20
32.444864364699988
 30
0.0
 40
1.0
  1
16
 41
0.8
  0
ENDBLK
  5
DEA
  8
0
  0
BLOCK
  8
0
  2
*U10
 70
     1
 10
0.0
 20
0.0
 30
0.0
  3
*U10
  1

  0
TEXT
  5
DEC
  8
0
 62
     0
 10
-13.262761803107219
 20
31.264864364699989
 30
0.0
 40
1.0
  1
[410.84]
 41
0.8
  0
ENDBLK
  5
DEE
  8
0
  0
BLOCK
  8
0
  2
*U11
 70
     1
 10
0.0
 20
0.0
 30
0.0
  3
*U11
  1

  0
TEXT
  5
DF0
  8
0
 62
     0
 10
4.5323736970166646
 20
21.349058610855138
 30
0.0
 40
1.0
  1
19
 41
0.8
  0
TEXT
  5
DF1
  8
0
 62
     0
 10
5.8657070303499976
 20
22.015725277521799
 30
0.0
 40
1.0
  1
3
 41
0.8
  0
LINE
  5
DF2
  8
0
 62
     0
 10
5.8657070303499976
 20
21.849058610855138
 30
0.0
 11
6.3990403636833308
 21
21.849058610855138
 31
0.0
  0
TEXT
  5
DF3
  8
0
 62
     0
 10
5.8657070303499976
 20
20.68239194418847
 30
0.0
 40
1.0
  1
8
 41
0.8
  0
ENDBLK
  5
DF5
  8
0
  0
BLOCK
  8
0
  2
*U12
 70
     1
 10
0.0
 20
0.0
 30
0.0
  3
*U12
  1

  0
TEXT
  5
DF7
  8
0
 62
     0
 10
3.0657070303499991
 20
19.502391944188471
 30
0.0
 40
1.0
  1
[491.86]
 41
0.8
  0
ENDBLK
  5
DF9
  8
0
  0
BLOCK
  8
0
  2
*U13
 70
     1
 10
0.0
 20
0.0
 30
0.0
  3
*U13
  1

  0
TEXT
  5
DFB
  8
0
 62
     0
 10
41.330804170149989
 20
7.2516168569666704
 30
0.0
 40
1.0
  1
7
 41
0.8
  0
TEXT
  5
DFC
  8
0
 62
     0
 10
42.130804170149993
 20
7.9182835236333364
 30
0.0
 40
1.0
  1
3
 41
0.8
  0
LINE
  5
DFD
  8
0
 62
     0
 10
42.130804170149993
 20
7.7516168569666686
 30
0.0
 11
42.664137503483317
 21
7.7516168569666686
 31
0.0
  0
TEXT
  5
DFE
  8
0
 62
     0
 10
42.130804170149993
 20
6.5849501903000034
 30
0.0
 40
1.0
  1
8
 41
0.8
  0
ENDBLK
  5
E00
  8
0
  0
BLOCK
  8
0
  2
*U14
 70
     1
 10
0.0
 20
0.0
 30
0.0
  3
*U14
  1

  0
TEXT
  5
E02
  8
0
 62
     0
 10
39.597470836816662
 20
5.4049501903000037
 30
0.0
 40
1.0
  1
[187.45]
 41
0.8
  0
ENDBLK
  5
E04
  8
0
  0
BLOCK
  8
0
  2
*U15
 70
     1
 10
0.0
 20
0.0
 30
0.0
  3
*U15
  1

  0
TEXT
  5
E06
  8
0
 62
     0
 10
19.242395276515659
 20
28.661498166766108
 30
0.0
 40
1.0
  1
1
 41
0.8
  0
TEXT
  5
E07
  8
0
 62
     0
 10
20.042395276515659
 20
29.328164833432769
 30
0.0
 40
1.0
  1
3
 41
0.8
  0
LINE
  5
E08
  8
0
 62
     0
 10
19.77572860984899
 20
29.161498166766108
 30
0.0
 11
20.842395276515671
 21
29.161498166766108
 31
0.0
  0
TEXT
  5
E09
  8
0
 62
     0
 10
19.77572860984899
 20
27.994831500099441
 30
0.0
 40
1.0
  1
16
 41
0.8
  0
TEXT
  5
E0A
  8
0
 62
     0
 10
17.642395276515661
 20
26.661498166766108
 30
0.0
 40
1.0
  1
 [29.61]
 41
0.8
  0
ENDBLK
  5
E0C
  8
0
  0
BLOCK
  8
0
  2
*U16
 70
     1
 10
0.0
 20
0.0
 30
0.0
  3
*U16
  1

  0
TEXT
  5
E0E
  8
0
 62
     0
 10
18.488299163917251
 20
42.501481309442212
 30
0.0
 40
1.0
  1
2
 41
0.8
  0
TEXT
  5
E0F
  8
0
 62
     0
 10
19.554965830583921
 20
43.168147976108891
 30
0.0
 40
1.0
  1
9
 41
0.8
  0
LINE
  5
E10
  8
0
 62
     0
 10
19.288299163917252
 20
43.001481309442219
 30
0.0
 11
20.354965830583922
 21
43.001481309442219
 31
0.0
  0
TEXT
  5
E11
  8
0
 62
     0
 10
19.288299163917252
 20
41.834814642775548
 30
0.0
 40
1.0
  1
16
 41
0.8
  0
TEXT
  5
E12
  8
0
 62
     0
 10
16.88829916391725
 20
40.501481309442219
 30
0.0
 40
1.0
  1
 [65.78]
 41
0.8
  0
ENDBLK
  5
E14
  8
0
  0
BLOCK
  8
0
  2
*U17
 70
     1
 10
0.0
 20
0.0
 30
0.0
  3
*U17
  1

  0
TEXT
  5
E16
  8
0
 62
     0
 10
-2.391553663051134
 20
13.98764702719013
 30
0.0
 40
1.0
  1
1
 41
0.8
  0
LINE
  5
E17
  8
0
 62
     0
 10
-2.5248869963844669
 20
13.82098036052346
 30
0.0
 11
-1.9915536630511339
 21
13.82098036052346
 31
0.0
  0
TEXT
  5
E18
  8
0
 62
     0
 10
-2.5248869963844669
 20
12.6543136938568
 30
0.0
 40
1.0
  1
2
 41
0.8
  0
TEXT
  5
E19
  8
0
 62
     0
 10
-4.5915536630511342
 20
11.32098036052346
 30
0.0
 40
1.0
  1
 [12.70]
 41
0.8
  0
ENDBLK
  5
E1B
  8
0
  0
BLOCK
  8
0
  2
*U18
 70
     1
 10
0.0
 20
0.0
 30
0.0
  3
*U18
  1

  0
TEXT
  5
E1D
  8
0
 62
     0
 10
6.9307070302999989
 20
-1.4483925511077509
 30
0.0
 40
1.0
  1
0
 41
0.8
  0
ENDBLK
  5
E1F
  8
0
  0
BLOCK
  8
0
  2
*U19
 70
     1
 10
0.0
 20
0.0
 30
0.0
  3
*U19
  1

  0
TEXT
  5
E21
  8
0
 62
     0
 10
5.9307070302999989
 20
-2.6283925511077508
 30
0.0
 40
1.0
  1
[.00]
 41
0.8
  0
ENDBLK
  5
E23
  8
0
  0
BLOCK
  8
0
  2
*U20
 70
     1
 10
0.0
 20
0.0
 30
0.0
  3
*U20
  1

  0
TEXT
  5
E25
  8
0
 62
     0
 10
3.6007067959220129
 20
32.444865335765542
 30
0.0
 40
1.0
  1
0
 41
0.8
  0
ENDBLK
  5
E27
  8
0
  0
BLOCK
  8
0
  2
*U21
 70
     1
 10
0.0
 20
0.0
 30
0.0
  3
*U21
  1

  0
TEXT
  5
E29
  8
0
 62
     0
 10
2.6007067959220129
 20
31.264865335765531
 30
0.0
 40
1.0
  1
[.00]
 41
0.8
  0
ENDBLK
  5
E2B
  8
0
  0
ENDSEC
  0
SECTION
  2
ENTITIES
  0
CIRCLE
  5
6BD
  8
0
 10
5.465707030299999
 20
36.725536951149991
 30
0.0
 40
0.87205995375
  0
ARC
  5
6BF
  8
0
 10
5.4657278484739038
 20
29.069864364670561
 30
0.0
 40
11.372369544148491
 50
54.448195678079323
 51
125.55201409252081
  0
ARC
  5
6C0
  8
0
 10
3.118021334527211
 20
32.354856925764253
 30
0.0
 40
7.3346843161641511
 50
125.5517489944563
 51
234.44805112059049
  0
ARC
  5
6C1
  8
0
 10
5.4657070303692521
 20
35.639864364807451
 30
0.0
 40
11.372369544225529
 50
234.4479859068461
 51
305.5520140924562
  0
ARC
  5
6C2
  8
0
 10
7.8133626865811641
 20
32.354871803617023
 30
0.0
 40
7.3347138868998041
 50
305.55207221793461
 51
54.448053146033338
  0
ARC
  5
6CB
  8
0
 10
4.0471354487869782
 20
32.179364393524096
 30
0.0
 40
7.1002527382388516
 50
155.6716561289843
 51
178.58032032609259
  0
ARC
  5
6CD
  8
0
 10
3.2146512378683481
 20
32.442892609314697
 30
0.0
 40
6.26620158733268
 50
180.80114962622531
 51
233.61719512103849
  0
ARC
  5
6CE
  8
0
 10
5.6662815241986211
 20
36.06685358850627
 30
0.0
 40
10.63945637829549
 50
234.56456717678051
 51
268.9197988794736
  0
ARC
  5
6CF
  8
0
 10
5.435842493204107
 20
25.231140911397759
 30
0.0
 40
0.7065761740023355
 50
87.577583453543838
 51
119.6010271487997
  0
ARC
  5
6D0
  8
0
 10
5.1402216041494269
 20
25.751506064768812
 30
0.0
 40
0.1081017778178687
 50
119.6010271488009
 51
204.39325846643499
  0
ARC
  5
6D2
  8
0
 10
5.2283668339282681
 20
25.865877435319689
 30
0.0
 40
0.2451629745322236
 50
220.43748337180671
 51
253.85950247114951
  0
ARC
  5
6D3
  8
0
 10
5.4685439783705707
 20
26.648363009814279
 30
0.0
 40
1.063654678760126
 50
253.1493021906679
 51
269.84718222266412
  0
ARC
  5
715
  8
0
 10
5.4981790261737231
 20
28.990757222565001
 30
0.0
 40
10.324776522776959
 50
90.180198707352602
 51
119.222262768924
  0
ARC
  5
716
  8
0
 10
4.087607819078932
 20
31.512375987622988
 30
0.0
 40
7.4354388259029021
 50
119.222262768924
 51
151.11206969621989
  0
CIRCLE
  5
758
  8
0
 10
5.465707030299999
 20
36.725536951149991
 30
0.0
 40
1.0802184835927
  0
ARC
  5
759
  8
0
 10
6.8842786118130208
 20
32.179364393524096
 30
0.0
 40
7.1002527382388516
 50
1.4196796739074
 51
24.328343871015679
  0
ARC
  5
75A
  8
0
 10
7.71676282273165
 20
32.442892609314697
 30
0.0
 40
6.26620158733268
 50
306.38280487896151
 51
359.19885037377469
  0
ARC
  5
75B
  8
0
 10
5.2651325362469468
 20
36.066853588811362
 30
0.0
 40
10.6394563786336
 50
271.08020112994183
 51
305.43543282294462
  0
ARC
  5
75C
  8
0
 10
5.495571567395892
 20
25.231140911397759
 30
0.0
 40
0.7065761740023355
 50
60.398972851200263
 51
92.422416546456148
  0
ARC
  5
75D
  8
0
 10
5.7911924564505721
 20
25.751506064768812
 30
0.0
 40
0.1081017778178687
 50
335.60674153356501
 51
60.39897285119909
  0
ARC
  5
75E
  8
0
 10
5.7030472266717309
 20
25.865877435319689
 30
0.0
 40
0.2451629745322236
 50
286.14049752885057
 51
319.56251662819318
  0
ARC
  5
75F
  8
0
 10
5.4628700822294274
 20
26.64836300981429
 30
0.0
 40
1.0636546787601371
 50
270.15281777733588
 51
286.85069780933202
  0
ARC
  5
760
  8
0
 10
5.4332350344262759
 20
28.990757222565001
 30
0.0
 40
10.324776522776959
 50
60.777737231076031
 51
89.819801292647441
  0
ARC
  5
761
  8
0
 10
6.8438062415210661
 20
31.512375987622988
 30
0.0
 40
7.4354388259029021
 50
28.88793030378012
 51
60.77773723107601
  0
ATTDEF
  5
C95
  8
DEFPOINTS
 10
5.4621019412151952
 20
32.36626513239662
 30
0.0
 40
0.001
  1
K-2210
  3

  2
MODELNUMBER
 70
     0
1001
AcDbAttr
1070
     0
1070
     1
  0
ATTDEF
  5
C96
  8
DEFPOINTS
 10
5.4621019412151952
 20
32.364598465729962
 30
0.0
 40
0.001
  1
CAXTON
  3

  2
TRADENAME
 70
     0
1001
AcDbAttr
1070
     0
1070
     1
  0
ATTDEF
  5
C97
  8
DEFPOINTS
 10
5.4621019412151952
 20
32.362931799063283
 30
0.0
 40
0.001
  1
BATHROOM SINK
  3

  2
PRODUCT
 70
     0
1001
AcDbAttr
1070
     0
1070
     1
  0
ATTDEF
  5
C98
  8
DEFPOINTS
 10
5.4621019412151952
 20
32.361265132396611
 30
0.0
 40
0.001
  1
VITREOUS CHINA
  3

  2
MATERIAL
 70
     0
1001
AcDbAttr
1070
     0
1070
     1
  0
ENDSEC
  0
EOF
